<svg width="160" height="160" viewBox="0 0 160 160" fill="none" xmlns="http://www.w3.org/2000/svg">
<g clip-path="url(#clip0_153_8621)">
<circle cx="80" cy="80" r="80" fill="#373737"/>
<path d="M32.402 114.146V117.818H36.722V119.492H32.402V123.326H37.262V125H30.35V112.472H37.262V114.146H32.402ZM47.5835 117.62V119.348H40.1855V117.62H47.5835ZM52.7308 123.344H56.9608V125H50.6788V112.49H52.7308V123.344ZM67.9468 119.798C67.9468 120.17 67.9228 120.506 67.8748 120.806H60.2968C60.3568 121.598 60.6508 122.234 61.1788 122.714C61.7068 123.194 62.3548 123.434 63.1228 123.434C64.2268 123.434 65.0068 122.972 65.4628 122.048H67.6768C67.3768 122.96 66.8308 123.71 66.0388 124.298C65.2588 124.874 64.2868 125.162 63.1228 125.162C62.1748 125.162 61.3228 124.952 60.5668 124.532C59.8228 124.1 59.2348 123.5 58.8028 122.732C58.3828 121.952 58.1728 121.052 58.1728 120.032C58.1728 119.012 58.3768 118.118 58.7848 117.35C59.2048 116.57 59.7868 115.97 60.5308 115.55C61.2868 115.13 62.1508 114.92 63.1228 114.92C64.0588 114.92 64.8928 115.124 65.6248 115.532C66.3568 115.94 66.9268 116.516 67.3348 117.26C67.7428 117.992 67.9468 118.838 67.9468 119.798ZM65.8048 119.15C65.7928 118.394 65.5228 117.788 64.9948 117.332C64.4668 116.876 63.8128 116.648 63.0328 116.648C62.3248 116.648 61.7188 116.876 61.2148 117.332C60.7108 117.776 60.4108 118.382 60.3148 119.15H65.8048ZM69.4622 119.996C69.4622 119 69.6662 118.118 70.0742 117.35C70.4942 116.582 71.0582 115.988 71.7662 115.568C72.4862 115.136 73.2782 114.92 74.1422 114.92C74.9222 114.92 75.6002 115.076 76.1762 115.388C76.7642 115.688 77.2322 116.066 77.5802 116.522V115.082H79.6502V125H77.5802V123.524C77.2322 123.992 76.7582 124.382 76.1582 124.694C75.5582 125.006 74.8742 125.162 74.1062 125.162C73.2542 125.162 72.4742 124.946 71.7662 124.514C71.0582 124.07 70.4942 123.458 70.0742 122.678C69.6662 121.886 69.4622 120.992 69.4622 119.996ZM77.5802 120.032C77.5802 119.348 77.4362 118.754 77.1482 118.25C76.8722 117.746 76.5062 117.362 76.0502 117.098C75.5942 116.834 75.1022 116.702 74.5742 116.702C74.0462 116.702 73.5542 116.834 73.0982 117.098C72.6422 117.35 72.2702 117.728 71.9822 118.232C71.7062 118.724 71.5682 119.312 71.5682 119.996C71.5682 120.68 71.7062 121.28 71.9822 121.796C72.2702 122.312 72.6422 122.708 73.0982 122.984C73.5662 123.248 74.0582 123.38 74.5742 123.38C75.1022 123.38 75.5942 123.248 76.0502 122.984C76.5062 122.72 76.8722 122.336 77.1482 121.832C77.4362 121.316 77.5802 120.716 77.5802 120.032ZM84.5774 116.522C84.8774 116.018 85.2734 115.628 85.7654 115.352C86.2694 115.064 86.8634 114.92 87.5474 114.92V117.044H87.0254C86.2214 117.044 85.6094 117.248 85.1894 117.656C84.7814 118.064 84.5774 118.772 84.5774 119.78V125H82.5254V115.082H84.5774V116.522ZM94.6176 114.92C95.3976 114.92 96.0936 115.082 96.7056 115.406C97.3296 115.73 97.8156 116.21 98.1636 116.846C98.5116 117.482 98.6856 118.25 98.6856 119.15V125H96.6516V119.456C96.6516 118.568 96.4296 117.89 95.9856 117.422C95.5416 116.942 94.9356 116.702 94.1676 116.702C93.3996 116.702 92.7876 116.942 92.3316 117.422C91.8876 117.89 91.6656 118.568 91.6656 119.456V125H89.6136V115.082H91.6656V116.216C92.0016 115.808 92.4276 115.49 92.9436 115.262C93.4716 115.034 94.0296 114.92 94.6176 114.92ZM102.527 113.768C102.155 113.768 101.843 113.642 101.591 113.39C101.339 113.138 101.213 112.826 101.213 112.454C101.213 112.082 101.339 111.77 101.591 111.518C101.843 111.266 102.155 111.14 102.527 111.14C102.887 111.14 103.193 111.266 103.445 111.518C103.697 111.77 103.823 112.082 103.823 112.454C103.823 112.826 103.697 113.138 103.445 113.39C103.193 113.642 102.887 113.768 102.527 113.768ZM103.535 115.082V125H101.483V115.082H103.535ZM111.413 114.92C112.193 114.92 112.889 115.082 113.501 115.406C114.125 115.73 114.611 116.21 114.959 116.846C115.307 117.482 115.481 118.25 115.481 119.15V125H113.447V119.456C113.447 118.568 113.225 117.89 112.781 117.422C112.337 116.942 111.731 116.702 110.963 116.702C110.195 116.702 109.583 116.942 109.127 117.422C108.683 117.89 108.461 118.568 108.461 119.456V125H106.409V115.082H108.461V116.216C108.797 115.808 109.223 115.49 109.739 115.262C110.267 115.034 110.825 114.92 111.413 114.92ZM122.275 114.92C123.043 114.92 123.721 115.076 124.309 115.388C124.909 115.688 125.377 116.066 125.713 116.522V115.082H127.783V125.162C127.783 126.074 127.591 126.884 127.207 127.592C126.823 128.312 126.265 128.876 125.533 129.284C124.813 129.692 123.949 129.896 122.941 129.896C121.597 129.896 120.481 129.578 119.593 128.942C118.705 128.318 118.201 127.466 118.081 126.386H120.115C120.271 126.902 120.601 127.316 121.105 127.628C121.621 127.952 122.233 128.114 122.941 128.114C123.769 128.114 124.435 127.862 124.939 127.358C125.455 126.854 125.713 126.122 125.713 125.162V123.506C125.365 123.974 124.891 124.37 124.291 124.694C123.703 125.006 123.031 125.162 122.275 125.162C121.411 125.162 120.619 124.946 119.899 124.514C119.191 124.07 118.627 123.458 118.207 122.678C117.799 121.886 117.595 120.992 117.595 119.996C117.595 119 117.799 118.118 118.207 117.35C118.627 116.582 119.191 115.988 119.899 115.568C120.619 115.136 121.411 114.92 122.275 114.92ZM125.713 120.032C125.713 119.348 125.569 118.754 125.281 118.25C125.005 117.746 124.639 117.362 124.183 117.098C123.727 116.834 123.235 116.702 122.707 116.702C122.179 116.702 121.687 116.834 121.231 117.098C120.775 117.35 120.403 117.728 120.115 118.232C119.839 118.724 119.701 119.312 119.701 119.996C119.701 120.68 119.839 121.28 120.115 121.796C120.403 122.312 120.775 122.708 121.231 122.984C121.699 123.248 122.191 123.38 122.707 123.38C123.235 123.38 123.727 123.248 124.183 122.984C124.639 122.72 125.005 122.336 125.281 121.832C125.569 121.316 125.713 120.716 125.713 120.032Z" fill="white"/>
<path d="M105.325 45.7059C105.325 43.1184 103.075 41.0371 100.263 41.0371H57.7939C54.9814 41.0371 52.7314 43.1184 52.7314 45.7059V73.8871C52.7314 76.6434 54.9814 78.8934 57.7377 78.8934H74.1627L73.7127 83.1684H69.5502C68.2002 83.1684 67.1314 84.2371 67.1314 85.5871V86.4309C67.1314 87.7809 68.2002 88.8496 69.5502 88.8496H88.5627C89.9127 88.8496 90.9814 87.7809 90.9814 86.4309V85.5871C90.9814 84.2371 89.9127 83.1684 88.5627 83.1684H84.4002L83.9502 78.8934H100.375C103.131 78.8934 105.381 76.6434 105.381 73.8871C105.269 65.7871 105.269 53.8621 105.325 45.7059V45.7059ZM54.7002 45.7059C54.7002 44.2434 56.1064 43.0059 57.7939 43.0059H100.206C101.894 43.0059 103.3 44.1871 103.3 45.7059V71.1871H54.7002V45.7059ZM88.9564 85.6434V86.4871C88.9564 86.7121 88.7314 86.9371 88.5064 86.9371H69.4939C69.2689 86.9371 69.0439 86.7121 69.0439 86.4871V85.6434C69.0439 85.4184 69.2689 85.1934 69.4939 85.1934H88.5064C88.7314 85.1934 88.9564 85.4184 88.9564 85.6434ZM82.3752 83.2246H75.6252L76.0752 78.9496H81.8689L82.3752 83.2246ZM103.3 73.9434C103.3 75.6309 101.95 76.9809 100.263 76.9809H57.6814C55.9939 76.9809 54.6439 75.6309 54.6439 73.9434V73.2121H103.3V73.9434Z" fill="white"/>
<path d="M93.6256 54.0871L79.2256 50.7121C79.0568 50.6559 78.9443 50.6559 78.7756 50.7121L64.3756 54.0871C63.3631 54.3121 63.3631 55.7746 64.3756 55.9996L70.2818 57.3496V63.1996C70.2818 63.6496 70.5631 64.0434 71.0131 64.1559L73.7131 64.9434C77.2006 65.9559 80.9131 65.9559 84.3443 64.9434L87.0443 64.1559C87.4381 64.0434 87.7756 63.6496 87.7756 63.1996V57.4059L92.4443 56.3371V60.7246C92.4443 61.2871 92.8943 61.7371 93.4568 61.7371C94.0193 61.7371 94.4693 61.2871 94.4693 60.7246V55.0996C94.3568 54.5371 93.9631 54.1434 93.6256 54.0871V54.0871ZM85.7506 62.5246L83.7818 63.0871C80.6881 63.9871 77.3693 63.9871 74.2193 63.0871L72.2506 62.5246V57.8559L78.7756 59.3746C78.9443 59.4309 79.0568 59.4309 79.2256 59.3746L85.7506 57.8559V62.5246ZM79.0006 57.4059L68.9881 55.0434L79.0006 52.7371L89.0131 55.0996L79.0006 57.4059Z" fill="white"/>
</g>
<defs>
<clipPath id="clip0_153_8621">
<rect width="160" height="160" fill="white"/>
</clipPath>
</defs>
</svg>
