<svg width="160" height="160" viewBox="0 0 160 160" fill="none" xmlns="http://www.w3.org/2000/svg">
<g clip-path="url(#clip0_153_8654)">
<circle cx="80" cy="80" r="80" fill="#373737"/>
<path d="M49.0488 92.49V94.164H43.7388V97.854H47.8788V99.528H43.7388V105H41.6868V92.49H49.0488ZM50.4465 99.996C50.4465 99 50.6505 98.118 51.0585 97.35C51.4785 96.582 52.0425 95.988 52.7505 95.568C53.4705 95.136 54.2625 94.92 55.1265 94.92C55.9065 94.92 56.5845 95.076 57.1605 95.388C57.7485 95.688 58.2165 96.066 58.5645 96.522V95.082H60.6345V105H58.5645V103.524C58.2165 103.992 57.7425 104.382 57.1425 104.694C56.5425 105.006 55.8585 105.162 55.0905 105.162C54.2385 105.162 53.4585 104.946 52.7505 104.514C52.0425 104.07 51.4785 103.458 51.0585 102.678C50.6505 101.886 50.4465 100.992 50.4465 99.996ZM58.5645 100.032C58.5645 99.348 58.4205 98.754 58.1325 98.25C57.8565 97.746 57.4905 97.362 57.0345 97.098C56.5785 96.834 56.0865 96.702 55.5585 96.702C55.0305 96.702 54.5385 96.834 54.0825 97.098C53.6265 97.35 53.2545 97.728 52.9665 98.232C52.6905 98.724 52.5525 99.312 52.5525 99.996C52.5525 100.68 52.6905 101.28 52.9665 101.796C53.2545 102.312 53.6265 102.708 54.0825 102.984C54.5505 103.248 55.0425 103.38 55.5585 103.38C56.0865 103.38 56.5785 103.248 57.0345 102.984C57.4905 102.72 57.8565 102.336 58.1325 101.832C58.4205 101.316 58.5645 100.716 58.5645 100.032ZM65.5617 96.522C65.8617 96.018 66.2577 95.628 66.7497 95.352C67.2537 95.064 67.8477 94.92 68.5317 94.92V97.044H68.0097C67.2057 97.044 66.5937 97.248 66.1737 97.656C65.7657 98.064 65.5617 98.772 65.5617 99.78V105H63.5097V95.082H65.5617V96.522ZM82.6039 94.92C83.3839 94.92 84.0799 95.082 84.6919 95.406C85.3159 95.73 85.8019 96.21 86.1499 96.846C86.5099 97.482 86.6899 98.25 86.6899 99.15V105H84.6559V99.456C84.6559 98.568 84.4339 97.89 83.9899 97.422C83.5459 96.942 82.9399 96.702 82.1719 96.702C81.4039 96.702 80.7919 96.942 80.3359 97.422C79.8919 97.89 79.6699 98.568 79.6699 99.456V105H77.6359V99.456C77.6359 98.568 77.4139 97.89 76.9699 97.422C76.5259 96.942 75.9199 96.702 75.1519 96.702C74.3839 96.702 73.7719 96.942 73.3159 97.422C72.8719 97.89 72.6499 98.568 72.6499 99.456V105H70.5979V95.082H72.6499V96.216C72.9859 95.808 73.4119 95.49 73.9279 95.262C74.4439 95.034 74.9959 94.92 75.5839 94.92C76.3759 94.92 77.0839 95.088 77.7079 95.424C78.3319 95.76 78.8119 96.246 79.1479 96.882C79.4479 96.282 79.9159 95.808 80.5519 95.46C81.1879 95.1 81.8719 94.92 82.6039 94.92ZM98.571 99.798C98.571 100.17 98.547 100.506 98.499 100.806H90.921C90.981 101.598 91.275 102.234 91.803 102.714C92.331 103.194 92.979 103.434 93.747 103.434C94.851 103.434 95.631 102.972 96.087 102.048H98.301C98.001 102.96 97.455 103.71 96.663 104.298C95.883 104.874 94.911 105.162 93.747 105.162C92.799 105.162 91.947 104.952 91.191 104.532C90.447 104.1 89.859 103.5 89.427 102.732C89.007 101.952 88.797 101.052 88.797 100.032C88.797 99.012 89.001 98.118 89.409 97.35C89.829 96.57 90.411 95.97 91.155 95.55C91.911 95.13 92.775 94.92 93.747 94.92C94.683 94.92 95.517 95.124 96.249 95.532C96.981 95.94 97.551 96.516 97.959 97.26C98.367 97.992 98.571 98.838 98.571 99.798ZM96.429 99.15C96.417 98.394 96.147 97.788 95.619 97.332C95.091 96.876 94.437 96.648 93.657 96.648C92.949 96.648 92.343 96.876 91.839 97.332C91.335 97.776 91.035 98.382 90.939 99.15H96.429ZM102.822 96.522C103.122 96.018 103.518 95.628 104.01 95.352C104.514 95.064 105.108 94.92 105.792 94.92V97.044H105.27C104.466 97.044 103.854 97.248 103.434 97.656C103.026 98.064 102.822 98.772 102.822 99.78V105H100.77V95.082H102.822V96.522ZM108.183 92.49H110.415L108.525 96.774H107.085L108.183 92.49ZM115.998 105.162C115.218 105.162 114.516 105.024 113.892 104.748C113.28 104.46 112.794 104.076 112.434 103.596C112.074 103.104 111.882 102.558 111.858 101.958H113.982C114.018 102.378 114.216 102.732 114.576 103.02C114.948 103.296 115.41 103.434 115.962 103.434C116.538 103.434 116.982 103.326 117.294 103.11C117.618 102.882 117.78 102.594 117.78 102.246C117.78 101.874 117.6 101.598 117.24 101.418C116.892 101.238 116.334 101.04 115.566 100.824C114.822 100.62 114.216 100.422 113.748 100.23C113.28 100.038 112.872 99.744 112.524 99.348C112.188 98.952 112.02 98.43 112.02 97.782C112.02 97.254 112.176 96.774 112.488 96.342C112.8 95.898 113.244 95.55 113.82 95.298C114.408 95.046 115.08 94.92 115.836 94.92C116.964 94.92 117.87 95.208 118.554 95.784C119.25 96.348 119.622 97.122 119.67 98.106H117.618C117.582 97.662 117.402 97.308 117.078 97.044C116.754 96.78 116.316 96.648 115.764 96.648C115.224 96.648 114.81 96.75 114.522 96.954C114.234 97.158 114.09 97.428 114.09 97.764C114.09 98.028 114.186 98.25 114.378 98.43C114.57 98.61 114.804 98.754 115.08 98.862C115.356 98.958 115.764 99.084 116.304 99.24C117.024 99.432 117.612 99.63 118.068 99.834C118.536 100.026 118.938 100.314 119.274 100.698C119.61 101.082 119.784 101.592 119.796 102.228C119.796 102.792 119.64 103.296 119.328 103.74C119.016 104.184 118.572 104.532 117.996 104.784C117.432 105.036 116.766 105.162 115.998 105.162ZM62.223 123.216C62.223 123.852 62.073 124.452 61.773 125.016C61.473 125.58 60.993 126.042 60.333 126.402C59.673 126.75 58.827 126.924 57.795 126.924H55.527V132H53.475V119.49H57.795C58.755 119.49 59.565 119.658 60.225 119.994C60.897 120.318 61.395 120.762 61.719 121.326C62.055 121.89 62.223 122.52 62.223 123.216ZM57.795 125.25C58.575 125.25 59.157 125.076 59.541 124.728C59.925 124.368 60.117 123.864 60.117 123.216C60.117 121.848 59.343 121.164 57.795 121.164H55.527V125.25H57.795ZM66.4121 123.522C66.7121 123.018 67.1081 122.628 67.6001 122.352C68.1041 122.064 68.6981 121.92 69.3821 121.92V124.044H68.8601C68.0561 124.044 67.4441 124.248 67.0241 124.656C66.6161 125.064 66.4121 125.772 66.4121 126.78V132H64.3601V122.082H66.4121V123.522ZM75.7503 132.162C74.8143 132.162 73.9683 131.952 73.2123 131.532C72.4563 131.1 71.8623 130.5 71.4303 129.732C70.9983 128.952 70.7823 128.052 70.7823 127.032C70.7823 126.024 71.0043 125.13 71.4483 124.35C71.8923 123.57 72.4983 122.97 73.2663 122.55C74.0343 122.13 74.8923 121.92 75.8403 121.92C76.7883 121.92 77.6463 122.13 78.4143 122.55C79.1823 122.97 79.7883 123.57 80.2323 124.35C80.6763 125.13 80.8983 126.024 80.8983 127.032C80.8983 128.04 80.6703 128.934 80.2143 129.714C79.7583 130.494 79.1343 131.1 78.3423 131.532C77.5623 131.952 76.6983 132.162 75.7503 132.162ZM75.7503 130.38C76.2783 130.38 76.7703 130.254 77.2263 130.002C77.6943 129.75 78.0723 129.372 78.3603 128.868C78.6483 128.364 78.7923 127.752 78.7923 127.032C78.7923 126.312 78.6543 125.706 78.3783 125.214C78.1023 124.71 77.7363 124.332 77.2803 124.08C76.8243 123.828 76.3323 123.702 75.8043 123.702C75.2763 123.702 74.7843 123.828 74.3283 124.08C73.8843 124.332 73.5303 124.71 73.2663 125.214C73.0023 125.706 72.8703 126.312 72.8703 127.032C72.8703 128.1 73.1403 128.928 73.6803 129.516C74.2323 130.092 74.9223 130.38 75.7503 130.38ZM87.2648 123.756H85.4288V132H83.3588V123.756H82.1888V122.082H83.3588V121.38C83.3588 120.24 83.6588 119.412 84.2588 118.896C84.8708 118.368 85.8248 118.104 87.1208 118.104V119.814C86.4968 119.814 86.0588 119.934 85.8068 120.174C85.5548 120.402 85.4288 120.804 85.4288 121.38V122.082H87.2648V123.756ZM90.3074 120.768C89.9354 120.768 89.6234 120.642 89.3714 120.39C89.1194 120.138 88.9934 119.826 88.9934 119.454C88.9934 119.082 89.1194 118.77 89.3714 118.518C89.6234 118.266 89.9354 118.14 90.3074 118.14C90.6674 118.14 90.9734 118.266 91.2254 118.518C91.4774 118.77 91.6034 119.082 91.6034 119.454C91.6034 119.826 91.4774 120.138 91.2254 120.39C90.9734 120.642 90.6674 120.768 90.3074 120.768ZM91.3154 122.082V132H89.2634V122.082H91.3154ZM96.2415 118.68V132H94.1895V118.68H96.2415ZM108.206 126.798C108.206 127.17 108.182 127.506 108.134 127.806H100.556C100.616 128.598 100.91 129.234 101.438 129.714C101.966 130.194 102.614 130.434 103.382 130.434C104.486 130.434 105.266 129.972 105.722 129.048H107.936C107.636 129.96 107.09 130.71 106.298 131.298C105.518 131.874 104.546 132.162 103.382 132.162C102.434 132.162 101.582 131.952 100.826 131.532C100.082 131.1 99.4936 130.5 99.0616 129.732C98.6416 128.952 98.4316 128.052 98.4316 127.032C98.4316 126.012 98.6356 125.118 99.0436 124.35C99.4636 123.57 100.046 122.97 100.79 122.55C101.546 122.13 102.41 121.92 103.382 121.92C104.318 121.92 105.152 122.124 105.884 122.532C106.616 122.94 107.186 123.516 107.594 124.26C108.002 124.992 108.206 125.838 108.206 126.798ZM106.064 126.15C106.052 125.394 105.782 124.788 105.254 124.332C104.726 123.876 104.072 123.648 103.292 123.648C102.584 123.648 101.978 123.876 101.474 124.332C100.97 124.776 100.67 125.382 100.574 126.15H106.064Z" fill="white"/>
<g clip-path="url(#clip1_153_8654)">
<path d="M111.634 77.9913L103.607 69.9644C102.665 69.0215 101.5 68.4317 100.28 68.1949V52.0039C100.543 52.0259 100.804 52.0366 101.064 52.0366C103.543 52.0366 105.934 51.064 107.733 49.2652C110.04 46.958 110.988 43.6773 110.269 40.4883C110.163 40.0176 109.795 39.6504 109.324 39.544C106.136 38.8252 102.855 39.773 100.548 42.0801C100.456 42.1714 100.368 42.2652 100.28 42.3594V35.8174C102.2 34.3491 103.327 32.0908 103.327 29.6455C103.327 26.9629 101.97 24.5039 99.6983 23.0684C99.2901 22.8105 98.7705 22.8105 98.3623 23.0684C96.0904 24.5039 94.7339 26.9629 94.7339 29.6455C94.7339 32.0908 95.8609 34.3491 97.7803 35.8174V37.458C95.7246 35.4224 92.8135 34.5879 89.9839 35.2261C89.5132 35.3325 89.1455 35.7002 89.0396 36.1704C88.3985 39.0142 89.2437 41.94 91.3008 43.9976C92.9053 45.6021 95.0381 46.4693 97.2481 46.4693C97.4253 46.4693 97.6026 46.4619 97.7803 46.4512V51.4717C97.6177 51.2837 97.4483 51.1001 97.2705 50.9224C94.7876 48.44 91.2671 47.4058 87.8335 48.1436C87.5557 46.2046 85.8848 44.7095 83.8711 44.7095H75.8384L72.0957 39.5654C71.5664 38.8374 70.9072 38.228 70.1646 37.7549C72.3457 36.8438 73.8828 34.689 73.8828 32.1816V29.1934H75.8101C76.5005 29.1934 77.0601 28.6338 77.0601 27.9434C77.0601 27.2529 76.5005 26.6934 75.8101 26.6934H74.2266V24.6909C74.2266 22.7246 72.627 21.125 70.6607 21.125H64.751C62.7847 21.125 61.1851 22.7246 61.1851 24.6909V26.6934H59.6016C58.9111 26.6934 58.3516 27.2529 58.3516 27.9434C58.3516 28.6338 58.9111 29.1934 59.6016 29.1934H61.8086V32.1816C61.8086 34.1279 62.7354 35.8613 64.1699 36.9663C61.2925 37.8838 59.2022 40.5816 59.2022 43.7593V57.3697C59.2022 60.2949 60.8003 62.8526 63.1685 64.2193V72.25H51.9375C49.7666 72.25 48 74.0166 48 76.1875C48 78.3584 49.7666 80.125 51.9375 80.125H53.5469C54.2373 80.125 54.7969 79.5655 54.7969 78.875C54.7969 78.1846 54.2373 77.625 53.5469 77.625H51.9375C51.145 77.625 50.5 76.98 50.5 76.1875C50.5 75.3951 51.145 74.75 51.9375 74.75H64.4185C65.1089 74.75 65.6685 74.1905 65.6685 73.5V65.1411C66.1353 65.2276 66.6157 65.2749 67.1074 65.2749H69.5835V73.3599C69.5835 75.712 67.6699 77.625 65.3184 77.625H63.5469C62.8565 77.625 62.2969 78.1846 62.2969 78.875C62.2969 79.5655 62.8565 80.125 63.5469 80.125H65.3184C69.0488 80.125 72.0835 77.0904 72.0835 73.3599V65.2749H76.6553V76.1875C76.6553 78.3584 78.4219 80.125 80.5928 80.125C82.7642 80.125 84.5303 78.3584 84.5303 76.1875V62.625C84.5303 58.8946 81.4961 55.8599 77.7656 55.8599H71.7442V52.6577C71.8662 52.6968 71.9946 52.7178 72.126 52.7178H83.8711C84.8916 52.7178 85.8238 52.3335 86.5318 51.7027C86.6074 54.2891 87.6577 56.7691 89.5406 58.6524C91.4966 60.6084 94.0967 61.6656 96.7906 61.6656C97.1197 61.6656 97.4497 61.649 97.7803 61.6172V68.1993C96.5674 68.4385 95.4107 69.0264 94.4732 69.9644L86.4834 77.9541C85.9951 78.4419 85.9951 79.2334 86.4834 79.7217C86.9712 80.21 87.7632 80.21 88.251 79.7217L96.2408 71.7325C97.7842 70.1885 100.295 70.1885 101.839 71.7325L109.866 79.7588C110.11 80.003 110.43 80.125 110.75 80.125C111.07 80.125 111.39 80.003 111.634 79.7588C112.122 79.2705 112.122 78.479 111.634 77.9913V77.9913ZM97.7603 43.9468C96.0279 44.0938 94.3199 43.4805 93.0689 42.23C91.8184 40.979 91.2041 39.2715 91.3521 37.5386C93.0845 37.3911 94.7925 38.0049 96.0435 39.2554C97.294 40.5064 97.9078 42.2144 97.7603 43.9468ZM102.315 43.8477C103.818 42.3457 105.881 41.6265 107.964 41.8486C108.186 43.9307 107.467 45.9951 105.965 47.4971C104.463 48.9995 102.399 49.7183 100.316 49.4961C100.294 49.2842 100.284 49.0728 100.28 48.8618V48.6187C100.315 46.8433 101.025 45.1382 102.315 43.8477V43.8477ZM99.0303 25.6797C100.168 26.6743 100.827 28.106 100.827 29.646C100.827 31.1856 100.168 32.6172 99.0303 33.6118C97.8931 32.6172 97.2339 31.186 97.2339 29.646C97.2339 28.106 97.8931 26.6743 99.0303 25.6797ZM71.3828 32.1816C71.3828 34.1318 69.7959 35.7188 67.8457 35.7188C65.895 35.7188 64.3086 34.1318 64.3086 32.1816V29.1934H71.3828V32.1816ZM63.6851 24.6909C63.6851 24.103 64.1631 23.625 64.751 23.625H70.6607C71.2486 23.625 71.7266 24.103 71.7266 24.6909V26.6934H63.6851V24.6909ZM77.7656 58.3599C80.1172 58.3599 82.0303 60.2735 82.0303 62.625V76.1875C82.0303 76.98 81.3858 77.625 80.5928 77.625C79.8003 77.625 79.1553 76.98 79.1553 76.1875V64.0249C79.1553 63.335 78.5957 62.7749 77.9053 62.7749H67.1069C64.4653 62.7749 62.2612 60.8692 61.7944 58.3599H77.7656ZM83.8711 50.2178H72.6865L70.2583 47.4878C69.7993 46.9717 69.0093 46.9258 68.4932 47.3843C67.9776 47.8433 67.9312 48.6333 68.3902 49.1494L69.2442 50.1089V55.8599H61.7022V43.7593C61.7022 41.207 63.7788 39.1304 66.3311 39.1304C67.8067 39.1304 69.2061 39.8428 70.0742 41.0361L74.1914 46.6948C74.4268 47.0186 74.8023 47.2095 75.2022 47.2095H83.8711C84.7007 47.2095 85.3755 47.8843 85.3755 48.7139C85.3755 49.543 84.7002 50.2178 83.8711 50.2178V50.2178ZM97.7276 59.1094C95.3643 59.3911 93.0132 58.5894 91.3086 56.8848C89.604 55.1802 88.8013 52.8286 89.0835 50.4654C91.4463 50.1821 93.7984 50.9859 95.503 52.6905C96.9683 54.1558 97.7647 56.0996 97.7803 58.1177V58.2945C97.7764 58.5655 97.7598 58.8374 97.7276 59.1094Z" fill="white"/>
<path d="M58.5469 77.625C58.2178 77.625 57.897 77.7588 57.6631 77.9912C57.4307 78.2236 57.2979 78.5464 57.2979 78.875C57.2979 79.2036 57.4307 79.5264 57.6631 79.7588C57.897 79.9912 58.2178 80.125 58.5469 80.125C58.8755 80.125 59.1978 79.9912 59.4316 79.7588C59.6641 79.5264 59.7979 79.2036 59.7979 78.875C59.7979 78.5464 59.6641 78.2236 59.4316 77.9912C59.1978 77.7588 58.8755 77.625 58.5469 77.625Z" fill="white"/>
</g>
</g>
<defs>
<clipPath id="clip0_153_8654">
<rect width="160" height="160" fill="white"/>
</clipPath>
<clipPath id="clip1_153_8654">
<rect width="64" height="64" fill="white" transform="translate(48 21)"/>
</clipPath>
</defs>
</svg>
