<svg width="160" height="160" viewBox="0 0 160 160" fill="none" xmlns="http://www.w3.org/2000/svg">
<g clip-path="url(#clip0_153_8685)">
<circle cx="80" cy="80" r="80" fill="#373737"/>
<path d="M45.6758 95.49V108H43.6238V102.528H37.7378V108H35.6858V95.49H37.7378V100.854H43.6238V95.49H45.6758ZM47.8732 102.996C47.8732 102 48.0772 101.118 48.4852 100.35C48.9052 99.582 49.4692 98.988 50.1772 98.568C50.8972 98.136 51.6892 97.92 52.5532 97.92C53.3332 97.92 54.0112 98.076 54.5872 98.388C55.1752 98.688 55.6432 99.066 55.9912 99.522V98.082H58.0612V108H55.9912V106.524C55.6432 106.992 55.1692 107.382 54.5692 107.694C53.9692 108.006 53.2852 108.162 52.5172 108.162C51.6652 108.162 50.8852 107.946 50.1772 107.514C49.4692 107.07 48.9052 106.458 48.4852 105.678C48.0772 104.886 47.8732 103.992 47.8732 102.996ZM55.9912 103.032C55.9912 102.348 55.8472 101.754 55.5592 101.25C55.2832 100.746 54.9172 100.362 54.4612 100.098C54.0052 99.834 53.5132 99.702 52.9852 99.702C52.4572 99.702 51.9652 99.834 51.5092 100.098C51.0532 100.35 50.6812 100.728 50.3932 101.232C50.1172 101.724 49.9792 102.312 49.9792 102.996C49.9792 103.68 50.1172 104.28 50.3932 104.796C50.6812 105.312 51.0532 105.708 51.5092 105.984C51.9772 106.248 52.4692 106.38 52.9852 106.38C53.5132 106.38 54.0052 106.248 54.4612 105.984C54.9172 105.72 55.2832 105.336 55.5592 104.832C55.8472 104.316 55.9912 103.716 55.9912 103.032ZM62.9884 99.522C63.2884 99.018 63.6844 98.628 64.1764 98.352C64.6804 98.064 65.2744 97.92 65.9584 97.92V100.044H65.4364C64.6324 100.044 64.0204 100.248 63.6004 100.656C63.1924 101.064 62.9884 101.772 62.9884 102.78V108H60.9364V98.082H62.9884V99.522ZM67.3406 102.996C67.3406 102 67.5446 101.118 67.9526 100.35C68.3726 99.582 68.9366 98.988 69.6446 98.568C70.3646 98.136 71.1626 97.92 72.0386 97.92C72.6866 97.92 73.3226 98.064 73.9466 98.352C74.5826 98.628 75.0866 99 75.4586 99.468V94.68H77.5286V108H75.4586V106.506C75.1226 106.986 74.6546 107.382 74.0546 107.694C73.4666 108.006 72.7886 108.162 72.0206 108.162C71.1566 108.162 70.3646 107.946 69.6446 107.514C68.9366 107.07 68.3726 106.458 67.9526 105.678C67.5446 104.886 67.3406 103.992 67.3406 102.996ZM75.4586 103.032C75.4586 102.348 75.3146 101.754 75.0266 101.25C74.7506 100.746 74.3846 100.362 73.9286 100.098C73.4726 99.834 72.9806 99.702 72.4526 99.702C71.9246 99.702 71.4326 99.834 70.9766 100.098C70.5206 100.35 70.1486 100.728 69.8606 101.232C69.5846 101.724 69.4466 102.312 69.4466 102.996C69.4466 103.68 69.5846 104.28 69.8606 104.796C70.1486 105.312 70.5206 105.708 70.9766 105.984C71.4446 106.248 71.9366 106.38 72.4526 106.38C72.9806 106.38 73.4726 106.248 73.9286 105.984C74.3846 105.72 74.7506 105.336 75.0266 104.832C75.3146 104.316 75.4586 103.716 75.4586 103.032ZM93.7239 98.082L90.6459 108H88.4859L86.4879 100.674L84.4899 108H82.3299L79.2339 98.082H81.3219L83.3919 106.056L85.4979 98.082H87.6399L89.6559 106.02L91.7079 98.082H93.7239ZM94.7534 102.996C94.7534 102 94.9574 101.118 95.3654 100.35C95.7854 99.582 96.3494 98.988 97.0574 98.568C97.7774 98.136 98.5694 97.92 99.4334 97.92C100.213 97.92 100.891 98.076 101.467 98.388C102.055 98.688 102.523 99.066 102.871 99.522V98.082H104.941V108H102.871V106.524C102.523 106.992 102.049 107.382 101.449 107.694C100.849 108.006 100.165 108.162 99.3974 108.162C98.5454 108.162 97.7654 107.946 97.0574 107.514C96.3494 107.07 95.7854 106.458 95.3654 105.678C94.9574 104.886 94.7534 103.992 94.7534 102.996ZM102.871 103.032C102.871 102.348 102.727 101.754 102.439 101.25C102.163 100.746 101.797 100.362 101.341 100.098C100.885 99.834 100.393 99.702 99.8654 99.702C99.3374 99.702 98.8454 99.834 98.3894 100.098C97.9334 100.35 97.5614 100.728 97.2734 101.232C96.9974 101.724 96.8594 102.312 96.8594 102.996C96.8594 103.68 96.9974 104.28 97.2734 104.796C97.5614 105.312 97.9334 105.708 98.3894 105.984C98.8574 106.248 99.3494 106.38 99.8654 106.38C100.393 106.38 100.885 106.248 101.341 105.984C101.797 105.72 102.163 105.336 102.439 104.832C102.727 104.316 102.871 103.716 102.871 103.032ZM109.869 99.522C110.169 99.018 110.565 98.628 111.057 98.352C111.561 98.064 112.155 97.92 112.839 97.92V100.044H112.317C111.513 100.044 110.901 100.248 110.481 100.656C110.073 101.064 109.869 101.772 109.869 102.78V108H107.817V98.082H109.869V99.522ZM123.995 102.798C123.995 103.17 123.971 103.506 123.923 103.806H116.345C116.405 104.598 116.699 105.234 117.227 105.714C117.755 106.194 118.403 106.434 119.171 106.434C120.275 106.434 121.055 105.972 121.511 105.048H123.725C123.425 105.96 122.879 106.71 122.087 107.298C121.307 107.874 120.335 108.162 119.171 108.162C118.223 108.162 117.371 107.952 116.615 107.532C115.871 107.1 115.283 106.5 114.851 105.732C114.431 104.952 114.221 104.052 114.221 103.032C114.221 102.012 114.425 101.118 114.833 100.35C115.253 99.57 115.835 98.97 116.579 98.55C117.335 98.13 118.199 97.92 119.171 97.92C120.107 97.92 120.941 98.124 121.673 98.532C122.405 98.94 122.975 99.516 123.383 100.26C123.791 100.992 123.995 101.838 123.995 102.798ZM121.853 102.15C121.841 101.394 121.571 100.788 121.043 100.332C120.515 99.876 119.861 99.648 119.081 99.648C118.373 99.648 117.767 99.876 117.263 100.332C116.759 100.776 116.459 101.382 116.363 102.15H121.853ZM56.1861 133.126C55.3461 133.126 54.5901 132.982 53.9181 132.694C53.2461 132.394 52.7181 131.974 52.3341 131.434C51.9501 130.894 51.7581 130.264 51.7581 129.544H53.9541C54.0021 130.084 54.2121 130.528 54.5841 130.876C54.9681 131.224 55.5021 131.398 56.1861 131.398C56.8941 131.398 57.4461 131.23 57.8421 130.894C58.2381 130.546 58.4361 130.102 58.4361 129.562C58.4361 129.142 58.3101 128.8 58.0581 128.536C57.8181 128.272 57.5121 128.068 57.1401 127.924C56.7801 127.78 56.2761 127.624 55.6281 127.456C54.8121 127.24 54.1461 127.024 53.6301 126.808C53.1261 126.58 52.6941 126.232 52.3341 125.764C51.9741 125.296 51.7941 124.672 51.7941 123.892C51.7941 123.172 51.9741 122.542 52.3341 122.002C52.6941 121.462 53.1981 121.048 53.8461 120.76C54.4941 120.472 55.2441 120.328 56.0961 120.328C57.3081 120.328 58.2981 120.634 59.0661 121.246C59.8461 121.846 60.2781 122.674 60.3621 123.73H58.0941C58.0581 123.274 57.8421 122.884 57.4461 122.56C57.0501 122.236 56.5281 122.074 55.8801 122.074C55.2921 122.074 54.8121 122.224 54.4401 122.524C54.0681 122.824 53.8821 123.256 53.8821 123.82C53.8821 124.204 53.9961 124.522 54.2241 124.774C54.4641 125.014 54.7641 125.206 55.1241 125.35C55.4841 125.494 55.9761 125.65 56.6001 125.818C57.4281 126.046 58.1001 126.274 58.6161 126.502C59.1441 126.73 59.5881 127.084 59.9481 127.564C60.3201 128.032 60.5061 128.662 60.5061 129.454C60.5061 130.09 60.3321 130.69 59.9841 131.254C59.6481 131.818 59.1501 132.274 58.4901 132.622C57.8421 132.958 57.0741 133.126 56.1861 133.126ZM65.5013 124.756V130.246C65.5013 130.618 65.5853 130.888 65.7533 131.056C65.9333 131.212 66.2333 131.29 66.6533 131.29H67.9133V133H66.2933C65.3693 133 64.6613 132.784 64.1693 132.352C63.6773 131.92 63.4313 131.218 63.4313 130.246V124.756H62.2613V123.082H63.4313V120.616H65.5013V123.082H67.9133V124.756H65.5013ZM74.2866 133.162C73.3506 133.162 72.5046 132.952 71.7486 132.532C70.9926 132.1 70.3986 131.5 69.9666 130.732C69.5346 129.952 69.3186 129.052 69.3186 128.032C69.3186 127.024 69.5406 126.13 69.9846 125.35C70.4286 124.57 71.0346 123.97 71.8026 123.55C72.5706 123.13 73.4286 122.92 74.3766 122.92C75.3246 122.92 76.1826 123.13 76.9506 123.55C77.7186 123.97 78.3246 124.57 78.7686 125.35C79.2126 126.13 79.4346 127.024 79.4346 128.032C79.4346 129.04 79.2066 129.934 78.7506 130.714C78.2946 131.494 77.6706 132.1 76.8786 132.532C76.0986 132.952 75.2346 133.162 74.2866 133.162ZM74.2866 131.38C74.8146 131.38 75.3066 131.254 75.7626 131.002C76.2306 130.75 76.6086 130.372 76.8966 129.868C77.1846 129.364 77.3286 128.752 77.3286 128.032C77.3286 127.312 77.1906 126.706 76.9146 126.214C76.6386 125.71 76.2726 125.332 75.8166 125.08C75.3606 124.828 74.8686 124.702 74.3406 124.702C73.8126 124.702 73.3206 124.828 72.8646 125.08C72.4206 125.332 72.0666 125.71 71.8026 126.214C71.5386 126.706 71.4066 127.312 71.4066 128.032C71.4066 129.1 71.6766 129.928 72.2166 130.516C72.7686 131.092 73.4586 131.38 74.2866 131.38ZM83.6951 124.522C83.9951 124.018 84.3911 123.628 84.8831 123.352C85.3871 123.064 85.9811 122.92 86.6651 122.92V125.044H86.1431C85.3391 125.044 84.7271 125.248 84.3071 125.656C83.8991 126.064 83.6951 126.772 83.6951 127.78V133H81.6431V123.082H83.6951V124.522ZM97.8213 127.798C97.8213 128.17 97.7973 128.506 97.7493 128.806H90.1713C90.2313 129.598 90.5253 130.234 91.0533 130.714C91.5813 131.194 92.2293 131.434 92.9973 131.434C94.1013 131.434 94.8813 130.972 95.3373 130.048H97.5513C97.2513 130.96 96.7053 131.71 95.9133 132.298C95.1333 132.874 94.1613 133.162 92.9973 133.162C92.0493 133.162 91.1973 132.952 90.4413 132.532C89.6973 132.1 89.1093 131.5 88.6773 130.732C88.2573 129.952 88.0473 129.052 88.0473 128.032C88.0473 127.012 88.2513 126.118 88.6593 125.35C89.0793 124.57 89.6613 123.97 90.4053 123.55C91.1613 123.13 92.0253 122.92 92.9973 122.92C93.9333 122.92 94.7673 123.124 95.4993 123.532C96.2313 123.94 96.8013 124.516 97.2093 125.26C97.6173 125.992 97.8213 126.838 97.8213 127.798ZM95.6793 127.15C95.6673 126.394 95.3973 125.788 94.8693 125.332C94.3413 124.876 93.6873 124.648 92.9073 124.648C92.1993 124.648 91.5933 124.876 91.0893 125.332C90.5853 125.776 90.2853 126.382 90.1893 127.15H95.6793ZM103.621 133.162C102.841 133.162 102.139 133.024 101.515 132.748C100.903 132.46 100.417 132.076 100.057 131.596C99.6967 131.104 99.5047 130.558 99.4807 129.958H101.605C101.641 130.378 101.839 130.732 102.199 131.02C102.571 131.296 103.033 131.434 103.585 131.434C104.161 131.434 104.605 131.326 104.917 131.11C105.241 130.882 105.403 130.594 105.403 130.246C105.403 129.874 105.223 129.598 104.863 129.418C104.515 129.238 103.957 129.04 103.189 128.824C102.445 128.62 101.839 128.422 101.371 128.23C100.903 128.038 100.495 127.744 100.147 127.348C99.8107 126.952 99.6427 126.43 99.6427 125.782C99.6427 125.254 99.7987 124.774 100.111 124.342C100.423 123.898 100.867 123.55 101.443 123.298C102.031 123.046 102.703 122.92 103.459 122.92C104.587 122.92 105.493 123.208 106.177 123.784C106.873 124.348 107.245 125.122 107.293 126.106H105.241C105.205 125.662 105.025 125.308 104.701 125.044C104.377 124.78 103.939 124.648 103.387 124.648C102.847 124.648 102.433 124.75 102.145 124.954C101.857 125.158 101.713 125.428 101.713 125.764C101.713 126.028 101.809 126.25 102.001 126.43C102.193 126.61 102.427 126.754 102.703 126.862C102.979 126.958 103.387 127.084 103.927 127.24C104.647 127.432 105.235 127.63 105.691 127.834C106.159 128.026 106.561 128.314 106.897 128.698C107.233 129.082 107.407 129.592 107.419 130.228C107.419 130.792 107.263 131.296 106.951 131.74C106.639 132.184 106.195 132.532 105.619 132.784C105.055 133.036 104.389 133.162 103.621 133.162Z" fill="white"/>
<g clip-path="url(#clip1_153_8685)">
<path d="M72.4566 25.2578C72.4566 24.7401 72.0368 24.3203 71.5191 24.3203H65.5176C64.9998 24.3203 64.5801 24.7401 64.5801 25.2578C64.5801 25.7756 64.9998 26.1953 65.5176 26.1953H71.5191C72.037 26.1953 72.4566 25.7756 72.4566 25.2578Z" fill="white"/>
<path d="M101.432 25.2578C101.432 24.7401 101.012 24.3203 100.495 24.3203H94.4932C93.9754 24.3203 93.5557 24.7401 93.5557 25.2578C93.5557 25.7756 93.9754 26.1953 94.4932 26.1953H100.495C101.012 26.1953 101.432 25.7756 101.432 25.2578Z" fill="white"/>
<path d="M105.007 58.0076L101.169 57.416C101.038 57.3959 100.942 57.2808 100.944 57.1484C100.945 57.131 100.945 57.1138 100.944 57.0965L100.833 53.9173V43.1141C100.833 42.5964 100.413 42.1766 99.895 42.1766C99.3773 42.1766 98.9575 42.5964 98.9575 43.1141V52.9969H96.0303V34.9532H98.9575V38.7302C98.9575 39.248 99.3773 39.6677 99.895 39.6677C100.413 39.6677 100.833 39.248 100.833 38.7302V34.3876L104.889 29.6248C105.59 28.8009 105.977 27.7513 105.977 26.6693V23.0634C105.977 21.3743 104.602 20 102.913 20H92.0748C90.3856 20 89.0114 21.3743 89.0114 23.0634V26.6694C89.0114 27.7515 89.3978 28.8011 90.0994 29.6249L94.1554 34.3877V53.9175L94.0441 57.0966C94.0435 57.1139 94.0434 57.1311 94.0438 57.1484C94.0464 57.2809 93.9498 57.3959 93.8188 57.4161L89.9809 58.0078C87.5469 58.3829 85.7803 60.4427 85.7803 62.9055V75.0069C85.7803 79.3185 86.9445 82.3553 87.022 82.6719C87.2876 83.476 88.0065 83.997 88.8534 83.9994H88.8589C89.7034 83.9994 90.4225 83.4826 90.6919 82.6818C91.5323 80.1831 91.9583 77.5795 91.9583 74.9432V64.6948C91.9583 64.2655 92.2661 63.9066 92.6903 63.8413L94.1746 63.6125L94.4048 74.9582C94.4058 77.5864 94.8278 80.1833 95.6589 82.6768V82.6769C95.9268 83.4803 96.647 83.9994 97.4939 83.9994C98.3408 83.9994 99.061 83.4803 99.3289 82.6768C100.16 80.1834 100.582 77.5883 100.583 74.9634L100.813 63.6125L102.298 63.8413C102.722 63.9066 103.03 64.2655 103.03 64.6948V74.975C103.03 79.2976 104.188 82.2871 104.284 82.6766C104.551 83.4801 105.272 83.9992 106.119 83.9992C107.578 83.9992 107.953 82.6642 107.962 82.6517C108.788 80.1717 109.208 77.5889 109.208 74.9746V62.9053C109.208 60.4425 107.441 58.3828 105.007 58.0076V58.0076ZM90.8864 26.6693V23.0634C90.8864 22.4081 91.4195 21.875 92.0748 21.875H102.913C103.568 21.875 104.102 22.4081 104.102 23.0634V26.6694C104.102 27.3064 103.874 27.9243 103.461 28.4093L99.4848 33.0785H95.5029L91.5266 28.4093C91.1138 27.9243 90.8864 27.3063 90.8864 26.6693V26.6693ZM107.333 74.9746C107.333 77.3869 106.946 79.7704 106.183 82.0594L106.175 82.0836C106.166 82.1098 106.161 82.1241 106.119 82.1241C106.076 82.1241 106.071 82.1097 106.063 82.0849L106.054 82.0584C105.291 79.7703 104.905 77.387 104.905 74.9749V64.6944C104.905 63.3334 103.928 62.1951 102.583 61.9878C100.985 61.748 100.968 61.7234 100.73 61.7234C99.758 61.7234 98.9601 62.501 98.9404 63.4771L98.708 74.9345C98.7079 74.9408 98.7079 74.9471 98.7079 74.9535C98.7079 77.3797 98.3184 79.7786 97.55 82.0835C97.5314 82.1397 97.4564 82.1396 97.4376 82.0835C96.6694 79.7785 96.2798 77.3779 96.2798 74.9484C96.2798 74.942 96.2798 74.9356 96.2796 74.9294L96.0474 63.4771C96.0255 62.397 95.0561 61.579 93.985 61.7443L92.4048 61.9878C91.0596 62.1951 90.0834 63.3334 90.0834 64.6944V74.9429C90.0834 77.3755 89.6903 79.7781 88.9148 82.0836C88.8964 82.1384 88.8203 82.1375 88.8026 82.0839C88.6871 81.6124 87.6553 78.9455 87.6553 75.0065V62.9051C87.6553 61.3742 88.7535 60.0938 90.2665 59.8605L94.1044 59.2689C95.1504 59.1076 95.9255 58.1951 95.9186 57.1398L95.998 54.8717H98.9898L99.0693 57.1396C99.0624 58.1951 99.8375 59.1076 100.884 59.2689L104.721 59.8605C106.235 60.0938 107.333 61.3741 107.333 62.9051V74.9746H107.333Z" fill="white"/>
<path d="M78.0261 57.0279L71.7385 56.0588C71.7698 55.4478 71.8767 53.4012 71.8788 53.3172C71.8791 53.3092 71.8801 53.3014 71.8801 53.2933V34.3608L75.9133 29.6248C76.615 28.801 77.0013 27.7514 77.0013 26.6693V23.0634C77.0012 21.3743 75.627 20 73.9378 20H63.0995C61.4103 20 60.0361 21.3743 60.0361 23.0634V26.6694C60.0361 27.7515 60.4225 28.8011 61.1241 29.6249L65.1573 34.361C65.1576 38.0381 65.1567 53.2445 65.1586 53.3174C65.1588 53.3255 65.1582 53.3336 65.1586 53.3418L65.299 56.0589L59.0113 57.028C57.726 57.2261 56.793 58.3139 56.793 59.6145V62.6291C56.793 63.1469 57.2127 63.5666 57.7305 63.5666C58.2482 63.5666 58.668 63.1469 58.668 62.6291V59.6145C58.668 59.2457 58.9325 58.9373 59.297 58.8811L65.3962 57.941L65.6612 63.0716C65.6617 63.082 65.6625 63.0924 65.6633 63.1027C65.8668 65.4966 66.3195 67.8774 67.0086 70.1791C67.4568 71.676 69.5812 71.6751 70.029 70.1791C70.7181 67.8775 71.1706 65.4966 71.3742 63.1027C71.3751 63.0924 71.3758 63.082 71.3763 63.0716L71.6413 57.941L77.7406 58.8811C78.1051 58.9373 78.3696 59.2457 78.3696 59.6145V68.1409C78.3696 72.6129 76.2032 76.8433 72.5746 79.457L69.1576 81.9181C68.7756 82.1934 68.2622 82.1935 67.8798 81.9181L64.463 79.457C60.8343 76.8433 58.668 72.6129 58.668 68.1409V67.013C58.668 66.4953 58.2482 66.0755 57.7305 66.0755C57.2127 66.0755 56.793 66.4953 56.793 67.013V68.1409C56.793 73.2141 59.2506 78.0132 63.3672 80.9784L66.784 83.4395C67.8213 84.1867 69.2157 84.1872 70.2535 83.4395L73.6705 80.9784C77.787 78.0132 80.2446 73.2141 80.2446 68.1409V59.6145C80.2445 58.3137 79.3115 57.226 78.0261 57.0279V57.0279ZM67.0322 34.9532H70.005V52.3558H67.0322V34.9532ZM61.9111 26.6693V23.0634C61.9111 22.4081 62.4442 21.875 63.0995 21.875H73.9378C74.5931 21.875 75.1262 22.4081 75.1262 23.0634V26.6694C75.1262 27.3064 74.8988 27.9243 74.4858 28.4093L70.5096 33.0785H66.5277L62.5515 28.4093C62.1386 27.9241 61.9111 27.3063 61.9111 26.6693ZM69.5046 62.959C69.3412 64.8697 69.0102 66.7716 68.5187 68.6271C68.0272 66.7715 67.6962 64.8697 67.5328 62.959L67.2152 56.8112C67.2151 56.8097 67.2151 56.8081 67.215 56.8066L67.082 54.2309H69.9555L69.8225 56.8066C69.8223 56.8083 69.8223 56.8097 69.8222 56.8112L69.5046 62.959Z" fill="white"/>
</g>
</g>
<defs>
<clipPath id="clip0_153_8685">
<rect width="160" height="160" fill="white"/>
</clipPath>
<clipPath id="clip1_153_8685">
<rect width="64" height="64" fill="white" transform="translate(51 20)"/>
</clipPath>
</defs>
</svg>
