<svg width="160" height="160" viewBox="0 0 160 160" fill="none" xmlns="http://www.w3.org/2000/svg">
<g clip-path="url(#clip0_153_8622)">
<circle cx="80" cy="80" r="80" fill="#373737"/>
<path d="M43.402 122.344H47.632V124H41.35V111.49H43.402V122.344ZM53.83 124.162C52.894 124.162 52.048 123.952 51.292 123.532C50.536 123.1 49.942 122.5 49.51 121.732C49.078 120.952 48.862 120.052 48.862 119.032C48.862 118.024 49.084 117.13 49.528 116.35C49.972 115.57 50.578 114.97 51.346 114.55C52.114 114.13 52.972 113.92 53.92 113.92C54.868 113.92 55.726 114.13 56.494 114.55C57.262 114.97 57.868 115.57 58.312 116.35C58.756 117.13 58.978 118.024 58.978 119.032C58.978 120.04 58.75 120.934 58.294 121.714C57.838 122.494 57.214 123.1 56.422 123.532C55.642 123.952 54.778 124.162 53.83 124.162ZM53.83 122.38C54.358 122.38 54.85 122.254 55.306 122.002C55.774 121.75 56.152 121.372 56.44 120.868C56.728 120.364 56.872 119.752 56.872 119.032C56.872 118.312 56.734 117.706 56.458 117.214C56.182 116.71 55.816 116.332 55.36 116.08C54.904 115.828 54.412 115.702 53.884 115.702C53.356 115.702 52.864 115.828 52.408 116.08C51.964 116.332 51.61 116.71 51.346 117.214C51.082 117.706 50.95 118.312 50.95 119.032C50.95 120.1 51.22 120.928 51.76 121.516C52.312 122.092 53.002 122.38 53.83 122.38ZM65.1826 113.92C65.9506 113.92 66.6286 114.076 67.2166 114.388C67.8166 114.688 68.2846 115.066 68.6206 115.522V114.082H70.6906V124.162C70.6906 125.074 70.4986 125.884 70.1146 126.592C69.7306 127.312 69.1726 127.876 68.4406 128.284C67.7206 128.692 66.8566 128.896 65.8486 128.896C64.5046 128.896 63.3886 128.578 62.5006 127.942C61.6126 127.318 61.1086 126.466 60.9886 125.386H63.0226C63.1786 125.902 63.5086 126.316 64.0126 126.628C64.5286 126.952 65.1406 127.114 65.8486 127.114C66.6766 127.114 67.3426 126.862 67.8466 126.358C68.3626 125.854 68.6206 125.122 68.6206 124.162V122.506C68.2726 122.974 67.7986 123.37 67.1986 123.694C66.6106 124.006 65.9386 124.162 65.1826 124.162C64.3186 124.162 63.5266 123.946 62.8066 123.514C62.0986 123.07 61.5346 122.458 61.1146 121.678C60.7066 120.886 60.5026 119.992 60.5026 118.996C60.5026 118 60.7066 117.118 61.1146 116.35C61.5346 115.582 62.0986 114.988 62.8066 114.568C63.5266 114.136 64.3186 113.92 65.1826 113.92ZM68.6206 119.032C68.6206 118.348 68.4766 117.754 68.1886 117.25C67.9126 116.746 67.5466 116.362 67.0906 116.098C66.6346 115.834 66.1426 115.702 65.6146 115.702C65.0866 115.702 64.5946 115.834 64.1386 116.098C63.6826 116.35 63.3106 116.728 63.0226 117.232C62.7466 117.724 62.6086 118.312 62.6086 118.996C62.6086 119.68 62.7466 120.28 63.0226 120.796C63.3106 121.312 63.6826 121.708 64.1386 121.984C64.6066 122.248 65.0986 122.38 65.6146 122.38C66.1426 122.38 66.6346 122.248 67.0906 121.984C67.5466 121.72 67.9126 121.336 68.1886 120.832C68.4766 120.316 68.6206 119.716 68.6206 119.032ZM74.6098 112.768C74.2378 112.768 73.9258 112.642 73.6738 112.39C73.4218 112.138 73.2958 111.826 73.2958 111.454C73.2958 111.082 73.4218 110.77 73.6738 110.518C73.9258 110.266 74.2378 110.14 74.6098 110.14C74.9698 110.14 75.2758 110.266 75.5278 110.518C75.7798 110.77 75.9058 111.082 75.9058 111.454C75.9058 111.826 75.7798 112.138 75.5278 112.39C75.2758 112.642 74.9698 112.768 74.6098 112.768ZM75.6178 114.082V124H73.5658V114.082H75.6178ZM82.0919 124.162C81.3119 124.162 80.6099 124.024 79.9859 123.748C79.3739 123.46 78.8879 123.076 78.5279 122.596C78.1679 122.104 77.9759 121.558 77.9519 120.958H80.0759C80.1119 121.378 80.3099 121.732 80.6699 122.02C81.0419 122.296 81.5039 122.434 82.0559 122.434C82.6319 122.434 83.0759 122.326 83.3879 122.11C83.7119 121.882 83.8739 121.594 83.8739 121.246C83.8739 120.874 83.6939 120.598 83.3339 120.418C82.9859 120.238 82.4279 120.04 81.6599 119.824C80.9159 119.62 80.3099 119.422 79.8419 119.23C79.3739 119.038 78.9659 118.744 78.6179 118.348C78.2819 117.952 78.1139 117.43 78.1139 116.782C78.1139 116.254 78.2699 115.774 78.5819 115.342C78.8939 114.898 79.3379 114.55 79.9139 114.298C80.5019 114.046 81.1739 113.92 81.9299 113.92C83.0579 113.92 83.9639 114.208 84.6479 114.784C85.3439 115.348 85.7159 116.122 85.7639 117.106H83.7119C83.6759 116.662 83.4959 116.308 83.1719 116.044C82.8479 115.78 82.4099 115.648 81.8579 115.648C81.3179 115.648 80.9039 115.75 80.6159 115.954C80.3279 116.158 80.1839 116.428 80.1839 116.764C80.1839 117.028 80.2799 117.25 80.4719 117.43C80.6639 117.61 80.8979 117.754 81.1739 117.862C81.4499 117.958 81.8579 118.084 82.3979 118.24C83.1179 118.432 83.7059 118.63 84.1619 118.834C84.6299 119.026 85.0319 119.314 85.3679 119.698C85.7039 120.082 85.8779 120.592 85.8899 121.228C85.8899 121.792 85.7339 122.296 85.4219 122.74C85.1099 123.184 84.6659 123.532 84.0899 123.784C83.5259 124.036 82.8599 124.162 82.0919 124.162ZM90.6811 115.756V121.246C90.6811 121.618 90.7651 121.888 90.9331 122.056C91.1131 122.212 91.4131 122.29 91.8331 122.29H93.0931V124H91.4731C90.5491 124 89.8411 123.784 89.3491 123.352C88.8571 122.92 88.6111 122.218 88.6111 121.246V115.756H87.4411V114.082H88.6111V111.616H90.6811V114.082H93.0931V115.756H90.6811ZM96.2084 112.768C95.8364 112.768 95.5244 112.642 95.2724 112.39C95.0204 112.138 94.8944 111.826 94.8944 111.454C94.8944 111.082 95.0204 110.77 95.2724 110.518C95.5244 110.266 95.8364 110.14 96.2084 110.14C96.5684 110.14 96.8744 110.266 97.1264 110.518C97.3784 110.77 97.5044 111.082 97.5044 111.454C97.5044 111.826 97.3784 112.138 97.1264 112.39C96.8744 112.642 96.5684 112.768 96.2084 112.768ZM97.2164 114.082V124H95.1644V114.082H97.2164ZM99.4065 119.032C99.4065 118.012 99.6105 117.118 100.018 116.35C100.438 115.57 101.014 114.97 101.746 114.55C102.478 114.13 103.318 113.92 104.266 113.92C105.466 113.92 106.456 114.208 107.236 114.784C108.028 115.348 108.562 116.158 108.838 117.214H106.624C106.444 116.722 106.156 116.338 105.76 116.062C105.364 115.786 104.866 115.648 104.266 115.648C103.426 115.648 102.754 115.948 102.25 116.548C101.758 117.136 101.512 117.964 101.512 119.032C101.512 120.1 101.758 120.934 102.25 121.534C102.754 122.134 103.426 122.434 104.266 122.434C105.454 122.434 106.24 121.912 106.624 120.868H108.838C108.55 121.876 108.01 122.68 107.218 123.28C106.426 123.868 105.442 124.162 104.266 124.162C103.318 124.162 102.478 123.952 101.746 123.532C101.014 123.1 100.438 122.5 100.018 121.732C99.6105 120.952 99.4065 120.052 99.4065 119.032ZM114.663 124.162C113.883 124.162 113.181 124.024 112.557 123.748C111.945 123.46 111.459 123.076 111.099 122.596C110.739 122.104 110.547 121.558 110.523 120.958H112.647C112.683 121.378 112.881 121.732 113.241 122.02C113.613 122.296 114.075 122.434 114.627 122.434C115.203 122.434 115.647 122.326 115.959 122.11C116.283 121.882 116.445 121.594 116.445 121.246C116.445 120.874 116.265 120.598 115.905 120.418C115.557 120.238 114.999 120.04 114.231 119.824C113.487 119.62 112.881 119.422 112.413 119.23C111.945 119.038 111.537 118.744 111.189 118.348C110.853 117.952 110.685 117.43 110.685 116.782C110.685 116.254 110.841 115.774 111.153 115.342C111.465 114.898 111.909 114.55 112.485 114.298C113.073 114.046 113.745 113.92 114.501 113.92C115.629 113.92 116.535 114.208 117.219 114.784C117.915 115.348 118.287 116.122 118.335 117.106H116.283C116.247 116.662 116.067 116.308 115.743 116.044C115.419 115.78 114.981 115.648 114.429 115.648C113.889 115.648 113.475 115.75 113.187 115.954C112.899 116.158 112.755 116.428 112.755 116.764C112.755 117.028 112.851 117.25 113.043 117.43C113.235 117.61 113.469 117.754 113.745 117.862C114.021 117.958 114.429 118.084 114.969 118.24C115.689 118.432 116.277 118.63 116.733 118.834C117.201 119.026 117.603 119.314 117.939 119.698C118.275 120.082 118.449 120.592 118.461 121.228C118.461 121.792 118.305 122.296 117.993 122.74C117.681 123.184 117.237 123.532 116.661 123.784C116.097 124.036 115.431 124.162 114.663 124.162Z" fill="white"/>
<path d="M108.96 63.5355L107.095 56.0774C107.605 55.9692 107.987 55.5169 107.987 54.9751V53.7726C107.987 51.1618 105.863 49.0378 103.253 49.0378H94.76V46.5574C94.76 45.2727 93.7148 44.2275 92.4301 44.2275H49.1398C47.8551 44.2275 46.8099 45.2727 46.8099 46.5574V67.0001C46.8099 67.6226 47.3146 68.1275 47.9373 68.1275C48.5599 68.1275 49.0647 67.6228 49.0647 67.0001V46.5574C49.0647 46.5159 49.0983 46.4823 49.1398 46.4823H92.43C92.4714 46.4823 92.505 46.5159 92.505 46.5574V67.0004C92.505 67.6229 93.0098 68.1277 93.6324 68.1277C94.255 68.1277 94.7598 67.623 94.7598 67.0004V65.7224H108.059C108.06 65.7224 108.061 65.7226 108.062 65.7226C108.063 65.7226 108.064 65.7225 108.065 65.7225C109.701 65.7236 111.091 66.7977 111.568 68.2778H108.062C107.44 68.2778 106.935 68.7825 106.935 69.4052V71.8101C106.935 73.7579 108.52 75.3425 110.467 75.3425H111.745V80.3028H108.797C107.829 77.5067 105.171 75.4927 102.05 75.4927C98.9287 75.4927 96.2706 77.5067 95.3024 80.3028H94.7595V71.81C94.7595 71.1875 94.2548 70.6826 93.6322 70.6826C93.0096 70.6826 92.5048 71.1873 92.5048 71.81V80.3025H69.1149C68.1465 77.5064 65.4886 75.4924 62.3674 75.4924C59.2463 75.4924 56.5882 77.5064 55.62 80.3025H49.1398C49.0983 80.3025 49.0647 80.2689 49.0647 80.2274V77.7472H53.9499C54.5724 77.7472 55.0773 77.2425 55.0773 76.6198C55.0773 75.9971 54.5726 75.4924 53.9499 75.4924H43.1274C42.5048 75.4924 42 75.9971 42 76.6198C42 77.2425 42.5047 77.7472 43.1274 77.7472H46.8101V80.2274C46.8101 81.5121 47.8552 82.5573 49.14 82.5573H55.2296C55.2293 82.5823 55.2276 82.6072 55.2276 82.6324C55.2276 86.5693 58.4306 89.7722 62.3674 89.7722C66.3042 89.7722 69.5072 86.5693 69.5072 82.6324C69.5072 82.6071 69.5055 82.5823 69.5053 82.5573H94.912C94.9117 82.5823 94.91 82.6072 94.91 82.6324C94.91 86.5693 98.113 89.7722 102.05 89.7722C105.987 89.7722 109.19 86.5693 109.19 82.6324C109.19 82.6071 109.188 82.5823 109.188 82.5573H112.872C113.495 82.5573 114 82.0526 114 81.4299V69.4049C114 66.436 111.809 63.9693 108.96 63.5355ZM94.76 51.2924H103.253C104.62 51.2924 105.733 52.405 105.733 53.7726V53.8477H94.76V51.2924ZM94.76 63.4677V56.1023H104.777L106.619 63.4677H94.76ZM62.3674 87.5178C59.6738 87.5178 57.4823 85.3265 57.4823 82.6327C57.4823 79.9388 59.6738 77.7475 62.3674 77.7475C65.0611 77.7475 67.2526 79.9388 67.2526 82.6327C67.2526 85.3265 65.0611 87.5178 62.3674 87.5178ZM102.05 87.5178C99.3564 87.5178 97.1649 85.3265 97.1649 82.6327C97.1649 79.9388 99.3564 77.7475 102.05 77.7475C104.744 77.7475 106.935 79.9388 106.935 82.6327C106.935 85.3265 104.744 87.5178 102.05 87.5178ZM111.745 73.0877H110.468C109.763 73.0877 109.19 72.5145 109.19 71.81V70.5323H111.745V73.0877H111.745Z" fill="white"/>
<path d="M62.367 80.3027C61.0822 80.3027 60.0371 81.3479 60.0371 82.6326C60.0371 83.9174 61.0822 84.9625 62.367 84.9625C63.6517 84.9625 64.6969 83.9174 64.6969 82.6326C64.6969 81.3479 63.6517 80.3027 62.367 80.3027Z" fill="white"/>
<path d="M102.051 80.3027C100.766 80.3027 99.7207 81.3479 99.7207 82.6326C99.7207 83.9174 100.766 84.9625 102.051 84.9625C103.335 84.9625 104.38 83.9174 104.38 82.6326C104.38 81.3479 103.335 80.3027 102.051 80.3027Z" fill="white"/>
<path d="M88.8228 75.4932H71.9877C71.3652 75.4932 70.8604 75.9979 70.8604 76.6206C70.8604 77.2432 71.3651 77.7479 71.9877 77.7479H88.8228C89.4453 77.7479 89.9502 77.2432 89.9502 76.6206C89.9502 75.9979 89.4455 75.4932 88.8228 75.4932Z" fill="white"/>
<path d="M59.9628 70.6826H45.5327C44.9101 70.6826 44.4053 71.1873 44.4053 71.81C44.4053 72.4327 44.91 72.9374 45.5327 72.9374H59.9628C60.5853 72.9374 61.0901 72.4327 61.0901 71.81C61.0901 71.1873 60.5853 70.6826 59.9628 70.6826Z" fill="white"/>
<path d="M81.2019 55.3799C80.7618 54.9397 80.0478 54.9397 79.6077 55.38L69.5822 65.4053L64.3669 60.19C63.9266 59.7497 63.2128 59.7497 62.7726 60.19C62.3323 60.6303 62.3323 61.344 62.7726 61.7842L68.7852 67.7968C69.0052 68.017 69.2938 68.127 69.5822 68.127C69.8707 68.127 70.1594 68.017 70.3793 67.7968L81.2018 56.9743C81.6421 56.5339 81.6421 55.8202 81.2019 55.3799Z" fill="white"/>
</g>
<defs>
<clipPath id="clip0_153_8622">
<rect width="160" height="160" fill="white"/>
</clipPath>
</defs>
</svg>
