<svg xmlns="http://www.w3.org/2000/svg" xmlns:xlink="http://www.w3.org/1999/xlink" viewBox="0 0 241.39 194.03"><defs><style>.cls-1{font-size:27.59px;fill:#2f7842;font-family:Montserrat-SemiBold, Montserrat;font-weight:600;}.cls-2{letter-spacing:-0.03em;}.cls-3{fill:#077839;}.cls-3,.cls-7{letter-spacing:0em;}.cls-4,.cls-5,.cls-6,.cls-7{fill:#8ec338;}.cls-4{letter-spacing:0em;}.cls-5{letter-spacing:0em;}.cls-6{letter-spacing:-0.02em;}.cls-8{fill:url(#linear-gradient);}.cls-9{fill:#0c7937;}.cls-10{fill:url(#linear-gradient-2);}.cls-11{fill:url(#linear-gradient-3);}.cls-12{fill:url(#linear-gradient-4);}.cls-13{fill:url(#linear-gradient-5);}.cls-14{fill:url(#linear-gradient-6);}.cls-15{fill:url(#linear-gradient-7);}.cls-16{fill:url(#linear-gradient-8);}</style><linearGradient id="linear-gradient" x1="11.95" y1="71.34" x2="178.3" y2="71.34" gradientUnits="userSpaceOnUse"><stop offset="0" stop-color="#8ec338"/><stop offset="1" stop-color="#2f7842"/></linearGradient><linearGradient id="linear-gradient-2" x1="33.11" y1="3" x2="183.28" y2="77.38" xlink:href="#linear-gradient"/><linearGradient id="linear-gradient-3" x1="123.28" y1="64.3" x2="124.47" y2="64.3" xlink:href="#linear-gradient"/><linearGradient id="linear-gradient-4" x1="134.35" y1="61.14" x2="135.54" y2="61.14" xlink:href="#linear-gradient"/><linearGradient id="linear-gradient-5" x1="145.43" y1="58.76" x2="146.61" y2="58.76" xlink:href="#linear-gradient"/><linearGradient id="linear-gradient-6" x1="133.37" y1="69.24" x2="133.37" y2="70.43" xlink:href="#linear-gradient"/><linearGradient id="linear-gradient-7" x1="133.37" y1="61.66" x2="133.37" y2="62.85" xlink:href="#linear-gradient"/><linearGradient id="linear-gradient-8" x1="138.58" y1="54.08" x2="138.58" y2="55.27" xlink:href="#linear-gradient"/></defs><g id="Layer_2" data-name="Layer 2"><g id="Layer_1-2" data-name="Layer 1"><text class="cls-1" transform="translate(0 186.89)"><tspan class="cls-2">F</tspan><tspan x="16.75" y="0">ARMING</tspan><tspan class="cls-3" x="136.37" y="0"> </tspan><tspan class="cls-4" x="143.98" y="0">DR</tspan><tspan class="cls-5" x="186.93" y="0">I</tspan><tspan class="cls-6" x="195.6" y="0">V</tspan><tspan class="cls-7" x="215.29" y="0">E </tspan></text><path class="cls-8" d="M12,29.06A5,5,0,0,1,17,24l16,0,10.52,0h4.62l.87,0a14.41,14.41,0,0,1,11.37,6.94,14.59,14.59,0,0,1,1.41,3.15,16.44,16.44,0,0,1,.41,1.68l.24,1.34,1.74,10.37L67.6,68.39l1.71,10.38.42,2.59c.14.85.3,1.83.42,2.33A7.71,7.71,0,0,0,71.86,87a8.08,8.08,0,0,0,3,2.12,8.63,8.63,0,0,0,1.82.44,9.42,9.42,0,0,0,1,.07H79l10.52.07,42.07.28,21,.2,10.52.1a13.33,13.33,0,0,1,11,5.53,16.2,16.2,0,0,1,2.41,5.65,17.38,17.38,0,0,1,.33,6,12.64,12.64,0,0,1-2.35,5.86,13.32,13.32,0,0,1-10.89,5.34,12.33,12.33,0,0,1-3.09-.44c-.55-.12-.92-.25-1.34-.37l-1.24-.38q-5-1.47-10.06-2.62a172.12,172.12,0,0,0-41.31-4.21,199.15,199.15,0,0,0-41.49,5.14,146.57,146.57,0,0,1,41.38-8.17A165.41,165.41,0,0,1,148.75,111q5.2,1.09,10.35,2.5l1.28.36c.42.12.88.26,1.2.32a8.27,8.27,0,0,0,2.1.25,9.05,9.05,0,0,0,4.08-1,8.38,8.38,0,0,0,4.6-6.53,13,13,0,0,0-.34-4.4,11.83,11.83,0,0,0-1.74-4,8.5,8.5,0,0,0-7.15-3.36l-10.52.1-21,.19-42.07.29L79,95.81H77.67A16,16,0,0,1,76,95.73,15,15,0,0,1,72.7,95a14.17,14.17,0,0,1-8.77-9.67c-.29-1.21-.39-2-.56-2.84l-.46-2.59L61.08,69.5,57.43,48.78l-1.8-10.36-.22-1.25a6.56,6.56,0,0,0-.23-.87,8.09,8.09,0,0,0-1-2,4.05,4.05,0,0,0-.43-.57,7.65,7.65,0,0,0-5.23-2.57l-.45,0H43.5L33,31.13l-18.91.05A2.12,2.12,0,0,1,12,29.06Z"/><circle class="cls-9" cx="93.33" cy="133.36" r="12.67"/><circle class="cls-9" cx="142.78" cy="133.36" r="12.67"/><path class="cls-10" d="M141.53,31.53a22.58,22.58,0,0,1-14.59-10c-.34-.52-.65-1.05-1-1.58,5.6,5.77,13.53,8.11,20.48,6.1a33.19,33.19,0,0,0-3.63-7.5c-2.83-4.36-6.18-8.12-10.31-9.56-3.6-1.32-6.53-.43-9.39-1.32a17.3,17.3,0,0,1-3.77-1.69,15.26,15.26,0,0,1-2.22-1.6,15.11,15.11,0,0,1-3-3.39c-.2-.31-.39-.62-.57-.94a28.88,28.88,0,0,0,.13,4.82,32.09,32.09,0,0,0,5,14c5,7.72,12.57,12.54,20.24,13.75l-1.91.75A25.73,25.73,0,0,1,124,28.79a25.69,25.69,0,0,1-9.13-11.38,71,71,0,0,1-24.31-2.76A71.18,71.18,0,0,1,66.79,2.41,76.81,76.81,0,0,0,79.2,30.51,76.63,76.63,0,0,0,97.81,49a29.79,29.79,0,0,0,22.07,4.66A29.48,29.48,0,0,0,137.11,43c-4.05,1-19,4.25-34.13-3.88A46.18,46.18,0,0,1,87,24.72a58.39,58.39,0,0,0,25,13.72,58.34,58.34,0,0,0,26.2.69L163,31.89q-4.77,21.59-9.52,43.16c-59.67,6-72.84,8-72.79,8.55s9.53,0,22.67-.34c25.33-.66,45.94-.2,60,.34a157.43,157.43,0,0,1,14.14-66.19Z"/><path class="cls-11" d="M123.87,54.21a75.9,75.9,0,0,1,.6,10.09,76,76,0,0,1-.6,10.09,77.71,77.71,0,0,1-.59-10.09A77.61,77.61,0,0,1,123.87,54.21Z"/><path class="cls-12" d="M135,47.88c.24,2.21.36,4.42.45,6.63s.13,4.42.14,6.63,0,4.41-.14,6.62-.21,4.42-.45,6.63c-.25-2.21-.36-4.42-.46-6.63s-.12-4.42-.14-6.62,0-4.42.14-6.63S134.7,50.09,135,47.88Z"/><path class="cls-13" d="M146,43.14c.24,2.6.36,5.21.45,7.81s.13,5.21.14,7.81,0,5.21-.13,7.81-.21,5.21-.46,7.82c-.25-2.61-.36-5.21-.46-7.82s-.12-5.2-.13-7.81,0-5.21.14-7.81S145.78,45.74,146,43.14Z"/><path class="cls-14" d="M150.57,69.84c-2.87.24-5.73.35-8.6.45s-5.74.12-8.6.14-5.74,0-8.61-.14-5.73-.21-8.6-.45c2.87-.25,5.74-.37,8.6-.46s5.74-.12,8.61-.14,5.73,0,8.6.14S147.7,69.59,150.57,69.84Z"/><path class="cls-15" d="M150.57,62.25c-2.87.25-5.73.36-8.6.46s-5.74.12-8.6.14-5.74,0-8.61-.14-5.73-.21-8.6-.46c2.87-.24,5.74-.36,8.6-.45s5.74-.12,8.61-.14,5.73,0,8.6.14S147.7,62,150.57,62.25Z"/><path class="cls-16" d="M156.77,54.67c-3,.25-6.06.36-9.09.46s-6.06.12-9.1.14-6.06,0-9.09-.14-6.07-.21-9.1-.46c3-.24,6.07-.36,9.1-.45s6.06-.13,9.09-.14,6.07,0,9.1.14S153.74,54.43,156.77,54.67Z"/></g></g></svg>