<svg width="242" height="195" viewBox="0 0 242 195" fill="none" xmlns="http://www.w3.org/2000/svg">
<path d="M5.87667 175.871H15.5056V178.906H5.87667V175.871ZM6.18016 186.3H2.59346V166.987H16.692V169.994H6.18016V186.3ZM16.5939 186.3L25.2847 166.987H28.8162L37.5347 186.3H33.7824L26.3056 168.891H27.7402L20.2909 186.3H16.5939ZM20.5944 181.83L21.5601 179.016H31.9891L32.9547 181.83H20.5944ZM39.9908 186.3V166.987H47.9368C49.6473 166.987 51.1096 167.263 52.3236 167.815C53.5559 168.367 54.5032 169.157 55.1653 170.187C55.8275 171.218 56.1586 172.441 56.1586 173.857C56.1586 175.273 55.8275 176.496 55.1653 177.526C54.5032 178.538 53.5559 179.32 52.3236 179.872C51.1096 180.405 49.6473 180.672 47.9368 180.672H41.9773L43.5775 179.044V186.3H39.9908ZM52.6271 186.3L47.7436 179.292H51.5786L56.4897 186.3H52.6271ZM43.5775 179.43L41.9773 177.72H47.7712C49.3531 177.72 50.5394 177.379 51.3303 176.699C52.1396 176.018 52.5443 175.071 52.5443 173.857C52.5443 172.625 52.1396 171.677 51.3303 171.015C50.5394 170.353 49.3531 170.022 47.7712 170.022H41.9773L43.5775 168.256V179.43ZM60.1714 186.3V166.987H63.1235L71.5661 181.086H70.021L78.3256 166.987H81.2778L81.3054 186.3H77.9118L77.8842 172.312H78.6015L71.5385 184.093H69.9383L62.7649 172.312H63.5926V186.3H60.1714ZM86.522 186.3V166.987H90.1087V186.3H86.522ZM95.3325 186.3V166.987H98.2846L110.397 181.858H108.934V166.987H112.493V186.3H109.541L97.4293 171.429H98.8916V186.3H95.3325ZM126.69 186.576C125.182 186.576 123.794 186.337 122.524 185.859C121.274 185.362 120.179 184.672 119.241 183.789C118.303 182.888 117.577 181.83 117.062 180.617C116.547 179.403 116.289 178.078 116.289 176.644C116.289 175.209 116.547 173.885 117.062 172.671C117.577 171.457 118.303 170.408 119.241 169.525C120.198 168.624 121.31 167.934 122.58 167.456C123.849 166.959 125.237 166.711 126.746 166.711C128.383 166.711 129.854 166.978 131.16 167.511C132.484 168.045 133.597 168.826 134.498 169.856L132.236 172.064C131.482 171.309 130.663 170.758 129.781 170.408C128.916 170.04 127.96 169.856 126.911 169.856C125.9 169.856 124.962 170.022 124.097 170.353C123.233 170.684 122.488 171.153 121.862 171.76C121.237 172.367 120.749 173.084 120.4 173.912C120.069 174.74 119.903 175.65 119.903 176.644C119.903 177.618 120.069 178.52 120.4 179.347C120.749 180.175 121.237 180.902 121.862 181.527C122.488 182.134 123.223 182.603 124.069 182.934C124.916 183.265 125.854 183.431 126.884 183.431C127.84 183.431 128.76 183.284 129.643 182.989C130.544 182.677 131.399 182.162 132.208 181.444L134.25 184.12C133.239 184.93 132.061 185.546 130.719 185.969C129.394 186.374 128.052 186.576 126.69 186.576ZM130.857 183.651V176.423H134.25V184.12L130.857 183.651ZM146.606 186.3V166.987H155.048C157.145 166.987 158.984 167.392 160.566 168.201C162.148 169.01 163.38 170.132 164.263 171.567C165.146 173.002 165.588 174.694 165.588 176.644C165.588 178.575 165.146 180.267 164.263 181.72C163.38 183.155 162.148 184.277 160.566 185.086C158.984 185.895 157.145 186.3 155.048 186.3H146.606ZM150.192 183.265H154.883C156.336 183.265 157.587 182.989 158.635 182.437C159.702 181.886 160.52 181.113 161.09 180.12C161.679 179.127 161.973 177.968 161.973 176.644C161.973 175.301 161.679 174.142 161.09 173.167C160.52 172.174 159.702 171.401 158.635 170.85C157.587 170.298 156.336 170.022 154.883 170.022H150.192V183.265ZM169.4 186.3V166.987H177.346C179.056 166.987 180.519 167.263 181.733 167.815C182.965 168.367 183.912 169.157 184.574 170.187C185.236 171.218 185.568 172.441 185.568 173.857C185.568 175.273 185.236 176.496 184.574 177.526C183.912 178.538 182.965 179.32 181.733 179.872C180.519 180.405 179.056 180.672 177.346 180.672H171.386L172.986 179.044V186.3H169.4ZM182.036 186.3L177.153 179.292H180.988L185.899 186.3H182.036ZM172.986 179.43L171.386 177.72H177.18C178.762 177.72 179.948 177.379 180.739 176.699C181.549 176.018 181.953 175.071 181.953 173.857C181.953 172.625 181.549 171.677 180.739 171.015C179.948 170.353 178.762 170.022 177.18 170.022H171.386L172.986 168.256V179.43ZM189.58 186.3V166.987H193.167V186.3H189.58ZM203.967 186.3L195.525 166.987H199.415L206.947 184.452H204.712L212.327 166.987H215.914L207.499 186.3H203.967ZM221.263 175.016H230.864V177.968H221.263V175.016ZM221.538 183.293H232.436V186.3H217.952V166.987H232.05V169.994H221.538V183.293Z" fill="white"/>
<path d="M12 29.06C11.9921 28.3984 12.1155 27.7417 12.3632 27.1282C12.611 26.5146 12.978 25.9563 13.4431 25.4856C13.9082 25.0149 14.462 24.6413 15.0726 24.3863C15.6832 24.1312 16.3383 24 17 24H33H43.52H48.14H49.01C51.3238 24.1565 53.5656 24.8691 55.545 26.0773C57.5245 27.2856 59.1831 28.9537 60.38 30.94C60.973 31.9305 61.4463 32.9879 61.79 34.09C61.956 34.6424 62.0929 35.2032 62.2 35.77L62.44 37.11L64.18 47.48L67.6 68.39L69.31 78.77L69.73 81.36C69.87 82.21 70.03 83.19 70.15 83.69C70.4408 84.9165 71.028 86.053 71.86 87C72.684 87.9276 73.7105 88.653 74.86 89.12C75.4489 89.3322 76.0592 89.4798 76.68 89.56C77.0118 89.6011 77.3457 89.6244 77.68 89.63H79L89.52 89.7L131.59 89.98L152.59 90.18L163.11 90.28C165.253 90.2496 167.372 90.7363 169.287 91.699C171.202 92.6616 172.856 94.0718 174.11 95.81C175.266 97.5224 176.084 99.4402 176.52 101.46C176.978 103.426 177.089 105.456 176.85 107.46C176.575 109.581 175.766 111.597 174.5 113.32C173.237 115.009 171.591 116.373 169.698 117.301C167.805 118.23 165.718 118.695 163.61 118.66C162.566 118.645 161.527 118.497 160.52 118.22C159.97 118.1 159.6 117.97 159.18 117.85L157.94 117.47C154.607 116.49 151.253 115.617 147.88 114.85C134.33 111.785 120.459 110.371 106.57 110.64C92.598 110.893 78.6914 112.616 65.08 115.78C78.4073 111.076 92.3449 108.324 106.46 107.61C120.644 106.92 134.857 108.059 148.75 111C152.217 111.727 155.667 112.56 159.1 113.5L160.38 113.86C160.8 113.98 161.26 114.12 161.58 114.18C162.266 114.353 162.972 114.437 163.68 114.43C165.1 114.421 166.497 114.079 167.76 113.43C169.01 112.81 170.085 111.889 170.888 110.748C171.691 109.608 172.197 108.285 172.36 106.9C172.498 105.425 172.383 103.937 172.02 102.5C171.693 101.07 171.103 99.714 170.28 98.5C169.449 97.403 168.365 96.5241 167.119 95.9389C165.874 95.3536 164.505 95.0795 163.13 95.14L152.61 95.24L131.61 95.43L89.54 95.72L79 95.81H77.67C77.1123 95.8125 76.5549 95.7858 76 95.73C74.876 95.6118 73.769 95.3669 72.7 95C70.57 94.2093 68.6614 92.9181 67.1351 91.2351C65.6088 89.5521 64.5095 87.5269 63.93 85.33C63.64 84.12 63.54 83.33 63.37 82.49L62.91 79.9L61.08 69.5L57.43 48.78L55.63 38.42L55.41 37.17C55.3533 36.8751 55.2765 36.5844 55.18 36.3C54.9408 35.5903 54.6043 34.9172 54.18 34.3C54.0537 34.0977 53.9098 33.907 53.75 33.73C52.414 32.2169 50.5341 31.2931 48.52 31.16H48.07H43.5L33 31.13L14.09 31.18C13.533 31.1721 13.0014 30.9453 12.6103 30.5486C12.2192 30.1518 11.9999 29.6171 12 29.06V29.06Z" fill="white"/>
<path d="M93.33 146.03C100.327 146.03 106 140.358 106 133.36C106 126.363 100.327 120.69 93.33 120.69C86.3326 120.69 80.66 126.363 80.66 133.36C80.66 140.358 86.3326 146.03 93.33 146.03Z" fill="white"/>
<path d="M142.78 146.03C149.777 146.03 155.45 140.358 155.45 133.36C155.45 126.363 149.777 120.69 142.78 120.69C135.783 120.69 130.11 126.363 130.11 133.36C130.11 140.358 135.783 146.03 142.78 146.03Z" fill="white"/>
<path d="M141.53 31.5301C138.55 30.931 135.722 29.7365 133.215 28.0181C130.708 26.2998 128.574 24.093 126.94 21.5301C126.6 21.0101 126.29 20.4801 125.94 19.9501C131.54 25.7201 139.47 28.06 146.42 26.05C145.53 23.4075 144.31 20.8876 142.79 18.55C139.96 14.19 136.61 10.43 132.48 8.99005C128.88 7.67005 125.95 8.56005 123.09 7.67005C121.77 7.25933 120.505 6.69195 119.32 5.98005C118.534 5.51428 117.791 4.97879 117.1 4.38005C115.935 3.40711 114.924 2.26428 114.1 0.990049C113.9 0.680049 113.71 0.370049 113.53 0.0500488C113.439 1.65753 113.482 3.26981 113.66 4.87005C114.208 9.86376 115.92 14.6591 118.66 18.8701C123.66 26.5901 131.23 31.41 138.9 32.62L136.99 33.37C132.324 33.0523 127.833 31.4689 124 28.7901C119.921 25.9588 116.75 22.006 114.87 17.41C106.668 17.9037 98.4426 16.9698 90.56 14.65C81.9347 12.1081 73.8691 7.95484 66.79 2.41005C68.9924 12.5168 73.2134 22.0746 79.2 30.51C84.2944 37.6973 90.59 43.9523 97.81 49C104.271 53.3862 112.197 55.0596 119.88 53.66C126.702 52.2539 132.806 48.4774 137.11 43C133.06 44 118.11 47.25 102.98 39.12C96.5941 35.6449 91.1189 30.711 87 24.72C94.0713 31.2893 102.661 36.0033 112 38.44C120.568 40.6542 129.527 40.8901 138.2 39.1301L163 31.89C159.82 46.2834 156.647 60.67 153.48 75.05C93.81 81.05 80.64 83.05 80.69 83.6C80.74 84.15 90.22 83.6 103.36 83.26C128.69 82.6 149.3 83.06 163.36 83.6C163.219 60.7725 168.044 38.1873 177.5 17.41L141.53 31.5301Z" fill="white"/>
<path d="M123.87 54.2101C124.294 57.5563 124.494 60.9272 124.47 64.3001C124.494 67.673 124.294 71.0438 123.87 74.3901C123.455 71.0431 123.258 67.6727 123.28 64.3001C123.257 60.9275 123.454 57.557 123.87 54.2101V54.2101Z" fill="white"/>
<path d="M135 47.88C135.24 50.09 135.36 52.3 135.45 54.51C135.54 56.72 135.58 58.93 135.59 61.14C135.6 63.35 135.59 65.55 135.45 67.76C135.31 69.97 135.24 72.18 135 74.39C134.75 72.18 134.64 69.97 134.54 67.76C134.44 65.55 134.42 63.34 134.4 61.14C134.38 58.94 134.4 56.72 134.54 54.51C134.68 52.3 134.7 50.09 135 47.88Z" fill="white"/>
<path d="M146 43.14C146.24 45.74 146.36 48.35 146.45 50.95C146.54 53.55 146.58 56.16 146.59 58.76C146.6 61.36 146.59 63.97 146.46 66.57C146.33 69.17 146.25 71.78 146 74.39C145.75 71.78 145.64 69.18 145.54 66.57C145.44 63.96 145.42 61.37 145.41 58.76C145.4 56.15 145.41 53.55 145.55 50.95C145.69 48.35 145.78 45.74 146 43.14Z" fill="white"/>
<path d="M150.57 69.8401C147.7 70.0801 144.84 70.1901 141.97 70.2901C139.1 70.3901 136.23 70.4101 133.37 70.4301C130.51 70.4501 127.63 70.4301 124.76 70.2901C121.89 70.1501 119.03 70.0801 116.16 69.8401C119.03 69.5901 121.9 69.4701 124.76 69.3801C127.62 69.2901 130.5 69.2601 133.37 69.2401C136.24 69.2201 139.1 69.2401 141.97 69.3801C144.84 69.5201 147.7 69.5901 150.57 69.8401Z" fill="white"/>
<path d="M150.57 62.25C147.7 62.5 144.84 62.61 141.97 62.71C139.1 62.81 136.23 62.83 133.37 62.85C130.51 62.87 127.63 62.85 124.76 62.71C121.89 62.57 119.03 62.5 116.16 62.25C119.03 62.01 121.9 61.89 124.76 61.8C127.62 61.71 130.5 61.68 133.37 61.66C136.24 61.64 139.1 61.66 141.97 61.8C144.84 61.94 147.7 62 150.57 62.25Z" fill="white"/>
<path d="M156.77 54.6701C153.77 54.9201 150.71 55.0301 147.68 55.1301C144.65 55.2301 141.62 55.2501 138.58 55.2701C135.54 55.2901 132.52 55.2701 129.49 55.1301C126.46 54.9901 123.42 54.9201 120.39 54.6701C123.39 54.4301 126.46 54.3101 129.49 54.2201C132.52 54.1301 135.55 54.0901 138.58 54.0801C141.61 54.0701 144.65 54.0801 147.68 54.2201C150.71 54.3601 153.74 54.4301 156.77 54.6701Z" fill="white"/>
</svg>
