<?xml version="1.0" standalone="no"?>
<!DOCTYPE svg PUBLIC "-//W3C//DTD SVG 20010904//EN"
 "http://www.w3.org/TR/2001/REC-SVG-20010904/DTD/svg10.dtd">
<svg version="1.0" xmlns="http://www.w3.org/2000/svg"
 width="964.000000pt" height="964.000000pt" viewBox="0 0 964.000000 964.000000"
 preserveAspectRatio="xMidYMid meet">
<metadata>
Created by potrace 1.14, written by Peter Selinger 2001-2017
</metadata>
<g transform="translate(0.000000,964.000000) scale(0.100000,-0.100000)"
fill="#000000" stroke="none">
<path d="M4534 8571 c6 -97 17 -168 36 -240 5 -20 11 -47 13 -61 8 -41 88
-220 130 -290 61 -102 139 -198 225 -281 116 -110 221 -178 407 -260 11 -5 60
-19 109 -32 l90 -24 -35 -13 c-18 -7 -38 -12 -44 -10 -5 1 -30 4 -55 5 -25 2
-47 4 -50 5 -3 1 -9 3 -15 4 -166 27 -384 139 -506 259 -62 61 -129 135 -129
143 0 3 -11 20 -24 37 -36 49 -96 163 -89 171 3 3 0 6 -8 6 -148 2 -441 10
-464 14 -16 3 -51 7 -78 10 -26 2 -61 8 -78 11 -17 4 -40 8 -52 10 -76 10
-360 82 -412 105 -11 4 -69 27 -130 50 -120 46 -238 101 -243 113 -2 4 -7 5
-12 2 -4 -3 -13 2 -20 10 -7 8 -17 15 -22 15 -16 0 -208 117 -303 185 -49 36
-94 65 -99 65 -4 0 -5 -10 -2 -22 4 -13 8 -30 10 -38 33 -134 78 -275 138
-425 33 -84 62 -145 172 -362 6 -13 14 -23 19 -23 4 0 7 -4 7 -9 0 -11 67
-120 125 -204 141 -205 367 -453 549 -601 21 -17 43 -35 50 -41 77 -68 267
-195 291 -195 7 0 16 -4 20 -9 13 -23 218 -90 320 -106 22 -4 51 -8 65 -10 39
-7 221 -7 260 -1 19 3 51 8 70 11 19 2 50 9 68 14 18 5 33 10 35 10 21 0 185
67 241 98 125 71 285 202 338 276 l21 29 -22 -7 c-13 -4 -33 -8 -44 -9 -12 -2
-36 -6 -52 -10 -117 -26 -402 -38 -565 -23 -36 3 -65 6 -65 7 0 1 -18 4 -39 6
-21 3 -75 14 -120 25 -45 10 -90 21 -100 24 -38 9 -151 48 -161 55 -5 4 -21
11 -35 15 -85 25 -307 156 -427 252 -86 69 -237 220 -285 286 -24 31 -45 57
-49 57 -4 0 -9 10 -12 21 -6 21 -5 21 12 3 26 -27 70 -65 116 -99 22 -17 42
-33 45 -36 9 -10 157 -108 212 -140 45 -25 255 -129 323 -159 25 -11 175 -61
195 -65 8 -2 15 -4 15 -5 0 -1 7 -3 15 -5 8 -1 33 -8 55 -13 55 -15 180 -39
240 -47 28 -4 66 -8 85 -11 19 -3 73 -7 119 -9 46 -2 85 -6 88 -8 2 -3 20 -1
39 3 19 5 37 4 40 -1 3 -5 10 -7 15 -3 5 3 44 7 87 9 81 5 167 13 192 20 8 2
33 7 55 10 63 8 85 13 134 30 25 8 55 16 66 18 11 2 27 7 35 10 14 6 395 118
465 137 17 5 62 18 100 29 39 12 77 23 85 25 8 2 50 14 93 27 42 12 79 20 81
18 3 -2 -2 -31 -10 -64 -20 -82 -21 -84 -30 -135 -9 -51 -11 -59 -14 -62 -2
-3 -1 -2 -25 -113 -10 -44 -19 -89 -21 -100 -2 -11 -13 -60 -24 -110 -12 -49
-23 -101 -26 -115 -3 -14 -10 -43 -16 -65 -5 -22 -12 -49 -13 -60 -2 -11 -6
-31 -9 -45 -14 -62 -37 -167 -42 -190 -5 -23 -22 -99 -50 -226 -7 -34 -15 -72
-18 -85 -3 -13 -8 -35 -11 -49 -9 -36 -19 -85 -35 -160 -5 -25 -12 -56 -16
-70 -3 -14 -7 -33 -7 -43 -1 -20 -14 -25 -77 -31 -25 -3 -72 -7 -105 -11 -33
-3 -76 -8 -95 -10 -19 -3 -62 -7 -95 -10 -64 -5 -108 -10 -195 -20 -30 -4 -75
-8 -100 -10 -48 -4 -146 -14 -195 -20 -16 -2 -61 -7 -100 -10 -38 -3 -77 -8
-85 -10 -17 -4 -160 -18 -202 -19 -16 -1 -28 -3 -28 -6 0 -3 -17 -5 -37 -5
-21 1 -63 -3 -93 -7 -30 -4 -84 -10 -120 -14 -155 -16 -229 -24 -270 -29 -64
-8 -134 -15 -179 -20 -24 -2 -62 -7 -85 -10 -42 -6 -69 -9 -166 -20 -90 -10
-404 -50 -470 -59 -46 -7 -146 -25 -170 -31 -8 -2 -24 -4 -35 -4 -16 -1 -17
-3 -5 -11 13 -8 256 -6 590 5 772 25 1898 25 2573 0 70 -3 127 -2 128 3 0 4 2
77 5 162 2 85 6 189 8 230 11 174 16 237 20 265 3 17 8 57 11 90 11 103 13
121 31 233 3 20 7 48 9 62 1 14 7 50 13 80 11 51 19 95 28 145 2 11 17 81 34
155 17 74 33 142 34 150 11 46 28 108 37 130 5 14 11 34 13 45 2 11 10 40 17
65 7 25 13 50 15 55 16 66 159 463 194 540 32 72 90 211 90 217 0 7 -26 -1
-70 -19 -8 -3 -17 -7 -20 -7 -3 -1 -30 -11 -60 -23 -96 -39 -115 -46 -122 -48
-5 -2 -10 -4 -13 -5 -3 -1 -8 -3 -12 -5 -5 -1 -21 -7 -38 -14 -16 -7 -70 -28
-120 -47 -49 -19 -99 -39 -110 -44 -11 -6 -74 -30 -140 -55 -66 -25 -129 -50
-140 -55 -11 -5 -83 -33 -160 -63 -77 -31 -198 -78 -270 -107 -71 -28 -139
-53 -149 -55 -27 -6 -178 46 -251 85 -73 40 -155 98 -155 111 0 5 -4 8 -8 6
-18 -5 -162 165 -194 228 -8 16 -6 16 15 -5 55 -54 197 -150 222 -150 8 0 15
-4 15 -10 0 -5 8 -10 18 -10 10 0 22 -3 26 -7 11 -11 117 -42 171 -50 129 -20
347 0 328 30 -4 7 -8 14 -8 17 -1 15 -53 132 -77 173 -15 26 -28 50 -28 52 0
5 -81 126 -90 135 -3 3 -17 22 -33 42 -66 89 -214 214 -277 233 -14 4 -29 11
-35 15 -21 16 -104 28 -235 34 -55 3 -118 13 -150 24 -30 10 -62 21 -70 23 -8
2 -17 6 -20 9 -3 3 -23 15 -45 27 -64 35 -150 111 -192 169 -21 29 -42 54 -47
54 -4 0 -5 -45 -2 -99z"/>
<path d="M652 7728 c-56 -9 -97 -32 -125 -70 -25 -34 -58 -103 -52 -110 2 -2
6 -17 9 -33 3 -17 17 -39 30 -50 25 -20 40 -20 733 -19 763 0 757 0 838 -53
50 -33 95 -83 95 -105 0 -10 4 -18 10 -18 5 0 9 -3 8 -7 -1 -5 3 -24 9 -43 7
-19 14 -57 18 -85 3 -27 10 -66 14 -85 5 -19 9 -42 10 -50 0 -8 13 -89 30
-180 16 -91 32 -181 36 -200 3 -19 8 -48 11 -65 3 -16 7 -42 8 -56 2 -14 5
-30 8 -35 3 -5 8 -31 12 -59 3 -27 8 -61 11 -75 4 -14 8 -34 9 -45 2 -11 6
-36 10 -55 3 -19 8 -48 11 -65 5 -29 32 -188 40 -230 1 -11 6 -31 9 -45 4 -14
9 -41 11 -60 9 -70 15 -106 21 -130 3 -14 8 -36 10 -50 2 -14 7 -41 10 -60 11
-61 13 -74 20 -115 5 -32 32 -165 47 -232 11 -46 81 -155 133 -207 69 -70 72
-73 136 -108 108 -60 126 -62 563 -61 804 2 2077 12 2082 17 3 3 14 1 24 -5
12 -6 19 -6 19 0 0 6 11 6 29 1 16 -4 32 -6 34 -3 3 3 227 7 497 9 419 3 500
2 543 -11 57 -17 119 -54 156 -94 27 -29 74 -121 86 -166 15 -65 17 -83 18
-156 0 -64 -5 -85 -32 -142 -76 -159 -246 -228 -439 -177 -40 11 -76 21 -81
24 -4 3 -18 7 -32 9 -13 3 -51 12 -84 20 -33 9 -71 18 -85 21 -14 3 -45 11
-70 16 -25 6 -65 15 -90 20 -25 4 -65 13 -90 19 -25 5 -58 12 -75 15 -16 3
-55 10 -85 16 -30 6 -71 13 -90 15 -19 3 -48 7 -65 9 -381 56 -589 71 -995 70
-263 0 -444 -6 -565 -19 -22 -3 -60 -7 -85 -9 -57 -5 -186 -22 -225 -30 -11
-2 -42 -7 -68 -10 -27 -4 -57 -9 -67 -11 -9 -2 -34 -6 -55 -9 -94 -15 -323
-67 -485 -110 -137 -37 -178 -48 -195 -56 -11 -5 -47 -16 -80 -26 -33 -9 -64
-21 -70 -27 -6 -6 -3 -7 10 -3 24 7 198 43 240 49 17 3 41 8 55 11 23 5 49 10
125 21 17 3 41 7 55 10 28 6 66 11 215 30 28 3 66 8 85 11 19 4 51 7 70 9 33
2 107 9 225 21 28 2 89 6 137 8 48 3 91 7 95 9 11 7 782 1 878 -6 81 -7 156
-14 230 -22 22 -3 63 -7 90 -10 28 -3 64 -7 80 -10 17 -2 50 -7 75 -10 25 -3
56 -7 69 -10 12 -2 42 -7 65 -9 39 -5 66 -10 121 -21 14 -3 37 -7 53 -10 175
-33 305 -63 447 -101 94 -25 186 -49 205 -54 19 -5 67 -18 105 -29 69 -20 180
-23 260 -7 44 9 155 57 155 67 0 5 6 9 13 9 20 0 113 91 151 148 47 70 77 168
81 267 3 70 0 103 -19 200 -16 78 -73 188 -130 252 -69 76 -184 145 -266 159
-14 3 -32 7 -40 11 -20 8 -716 15 -2735 28 -883 6 -871 5 -952 64 -70 51 -116
128 -128 216 -3 17 -7 41 -10 55 -3 14 -8 45 -10 70 -3 25 -8 52 -11 61 -2 9
-7 34 -9 55 -3 22 -9 62 -15 89 -5 28 -12 66 -14 85 -3 19 -8 46 -10 60 -2 14
-10 59 -16 100 -6 41 -14 86 -16 100 -5 25 -28 165 -38 230 -3 19 -8 46 -10
60 -12 68 -38 229 -42 255 -2 17 -6 41 -9 55 -3 14 -7 43 -11 65 -3 22 -8 54
-11 70 -9 52 -12 69 -17 105 -8 50 -15 91 -21 120 -3 14 -7 41 -10 60 -3 19
-7 46 -10 60 -3 14 -8 45 -11 70 -4 25 -11 56 -16 70 -5 14 -8 25 -7 25 6 0
-25 84 -45 120 -97 184 -282 299 -491 304 -207 6 -1249 5 -1283 -1z"/>
<path d="M5821 6827 c-2 -45 -5 -100 -6 -122 -1 -22 -3 -70 -4 -107 l-1 -68
-200 0 c-110 0 -200 3 -201 8 -1 7 -7 120 -8 160 -1 12 -5 22 -9 22 -8 0 -11
-27 -16 -137 -1 -23 -5 -45 -8 -49 -4 -4 -81 -8 -170 -9 -181 -4 -339 -13
-346 -20 -5 -5 51 -9 76 -6 11 2 12 -18 6 -96 -3 -54 -7 -115 -8 -135 -1 -20
-4 -40 -8 -43 -6 -6 -90 -12 -191 -14 -16 -1 -26 -4 -23 -9 2 -4 50 -9 107
-10 57 -2 105 -5 108 -7 4 -2 6 -63 6 -136 l0 -134 -50 -1 c-139 -5 -165 -7
-165 -14 0 -6 98 -13 188 -12 20 0 32 -5 33 -14 4 -46 7 -78 8 -106 0 -17 3
-29 6 -26 5 5 9 36 17 126 1 13 13 15 73 13 22 -1 108 -3 190 -4 l150 -2 6
-50 c3 -27 5 -58 3 -68 -2 -10 1 -15 5 -13 4 3 9 31 10 63 1 32 5 60 7 63 3 3
27 6 52 7 26 0 49 2 52 3 13 6 37 5 56 -2 12 -4 24 -4 27 -1 3 3 55 6 116 8
l111 3 1 -27 c2 -70 4 -90 9 -95 3 -3 6 7 6 22 1 15 3 44 5 65 l3 37 48 0 c26
0 48 4 48 9 0 4 -10 8 -22 8 -79 1 -75 -2 -72 56 1 28 3 91 4 140 1 57 6 87
14 88 6 1 30 3 54 4 59 4 65 15 9 16 -26 1 -53 2 -59 3 -10 1 -13 35 -13 136
l0 135 25 2 c14 0 94 4 179 7 85 4 157 8 159 11 3 3 -6 5 -19 6 -13 0 -64 3
-114 5 -49 2 -120 5 -157 7 -37 2 -69 5 -72 8 -3 3 -13 221 -15 342 -2 70 -16
37 -20 -46z m-566 -342 c50 -2 96 -3 102 -4 10 -1 12 -32 10 -127 l-2 -126
-197 -3 c-196 -2 -198 -2 -199 19 -3 75 -8 149 -14 197 l-6 57 108 -5 c59 -3
149 -6 198 -8z m552 -132 c1 -95 -2 -133 -10 -134 -7 0 -39 0 -72 1 -33 2
-109 4 -170 5 -60 2 -117 4 -125 4 -12 1 -15 23 -17 123 -1 67 2 125 6 128 5
3 94 5 198 5 l188 0 2 -132z m-445 -181 c7 -8 16 -242 8 -243 -3 -1 -95 -3
-205 -5 l-200 -4 3 122 c2 68 4 128 6 133 4 11 377 8 388 -3z m131 4 c3 4 76
8 161 10 l156 3 1 -97 c1 -53 3 -110 4 -127 3 -53 1 -54 -103 -48 -53 2 -140
6 -192 8 -124 4 -120 3 -115 18 3 6 6 61 8 122 3 106 4 110 28 116 13 3 29 2
35 -3 6 -4 14 -5 17 -2z"/>
<path d="M5385 6751 c-3 -5 -2 -12 3 -15 5 -3 9 1 9 9 0 17 -3 19 -12 6z"/>
<path d="M3660 3867 c-3 -3 -23 -8 -45 -11 -69 -10 -179 -72 -242 -135 -207
-206 -198 -545 19 -735 54 -47 146 -97 208 -113 171 -44 363 9 486 135 41 41
94 121 112 167 55 146 40 319 -39 451 -52 86 -172 187 -249 209 -3 1 -12 4
-20 8 -50 20 -216 37 -230 24z"/>
<path d="M5549 3845 c-331 -111 -460 -509 -253 -781 51 -66 87 -99 153 -138
49 -28 73 -38 126 -52 35 -8 125 -20 141 -18 11 2 37 5 59 8 22 2 51 9 65 14
14 5 29 10 33 10 30 1 130 65 183 117 102 103 153 226 148 365 -3 104 -10 134
-51 217 -57 118 -155 205 -286 255 -79 31 -231 32 -318 3z"/>
<path d="M5247 2044 c-1 -1 -20 -4 -43 -7 -131 -18 -249 -98 -304 -207 -39
-76 -53 -205 -35 -310 19 -107 108 -220 211 -267 72 -33 84 -35 204 -38 116
-4 211 12 293 49 l52 23 0 186 c0 102 -3 188 -6 192 -4 3 -76 6 -160 7 l-154
0 0 -68 0 -69 30 -2 c17 0 44 -2 61 -2 l32 -1 -3 -72 c-1 -40 -3 -76 -3 -80
-2 -6 -81 -23 -94 -20 -4 1 -27 4 -50 6 -137 14 -209 110 -205 274 1 44 5 84
10 88 4 4 7 15 7 25 0 29 90 113 136 127 94 28 231 10 336 -44 15 -8 28 -11
30 -6 3 6 2 90 -1 144 -2 31 -155 68 -294 72 -27 1 -49 1 -50 0z"/>
<path d="M106 2022 c-3 -4 -5 -62 -5 -128 0 -66 0 -124 -1 -129 -1 -6 -2 -14
-1 -20 1 -5 2 -50 1 -100 -1 -112 -1 -89 0 -230 1 -66 1 -125 0 -130 -1 -6 -1
-14 0 -20 1 -5 3 -17 4 -25 1 -12 19 -15 91 -16 50 0 96 2 103 4 9 3 12 39 12
141 -1 75 -1 150 -1 166 l1 31 153 -1 c192 -1 187 -2 177 41 -4 19 -4 36 1 39
4 3 5 16 0 28 -4 12 -6 28 -4 35 5 14 9 14 -179 14 l-148 1 0 73 0 74 33 0
c17 1 96 1 175 1 l142 0 0 79 0 80 -274 0 c-151 0 -277 -4 -280 -8z"/>
<path d="M940 1943 c-18 -48 -45 -122 -60 -163 -15 -41 -40 -106 -55 -145 -15
-38 -28 -74 -29 -80 -1 -5 -10 -27 -19 -49 -9 -21 -17 -43 -17 -48 0 -5 -9
-30 -19 -56 -25 -62 -33 -84 -37 -99 -1 -7 -9 -26 -17 -43 -11 -21 -12 -30 -4
-31 45 -4 189 -4 196 1 4 3 18 35 31 73 l24 67 162 0 163 0 22 -69 c14 -42 29
-71 38 -73 14 -4 152 -3 189 1 7 0 10 6 6 13 -7 11 -181 470 -189 498 -4 16
-38 109 -81 222 l-25 66 -123 1 -124 2 -32 -88z m189 -203 c1 -9 6 -21 13 -28
7 -7 9 -12 6 -12 -4 0 7 -37 23 -82 16 -46 29 -86 29 -89 0 -4 -47 -7 -105 -7
-58 -1 -105 2 -105 6 0 4 23 72 50 151 28 79 50 146 51 150 1 11 37 -73 38
-89z"/>
<path d="M1623 1630 c0 -220 2 -401 6 -401 19 -4 178 -5 189 -1 9 3 12 43 12
154 l0 149 51 -2 c82 -4 105 -26 181 -174 l66 -130 106 0 c58 0 106 4 106 9 0
12 -129 266 -151 298 -11 14 -35 37 -55 49 l-36 22 28 12 c98 43 143 162 105
278 -15 46 -38 71 -86 96 -65 33 -115 39 -324 40 l-198 0 0 -399z m370 235
c39 -16 55 -86 33 -140 -17 -39 -56 -54 -143 -54 l-53 0 0 105 0 105 73 -4
c39 -3 80 -8 90 -12z"/>
<path d="M2472 1628 l3 -403 85 -1 c47 0 90 1 96 3 8 3 11 89 10 283 -1 154 1
280 5 280 3 0 44 -91 91 -202 l86 -203 68 0 c49 0 69 4 75 15 9 16 16 34 104
240 31 74 61 141 65 149 4 8 8 -100 8 -240 0 -140 1 -270 1 -290 l1 -35 93 2
c50 1 94 2 97 3 3 0 5 180 5 399 l0 397 -125 3 c-69 1 -130 -1 -136 -5 -6 -5
-25 -44 -44 -88 -18 -44 -40 -98 -50 -120 -28 -65 -56 -127 -75 -173 l-19 -42
-24 57 c-27 67 -35 86 -106 248 l-52 120 -132 3 -132 2 2 -402z"/>
<path d="M3569 2003 c-1 -33 -1 -729 0 -758 1 -20 7 -21 99 -19 53 1 99 2 102
3 4 1 5 769 1 794 0 4 -46 7 -101 7 l-100 0 -1 -27z"/>
<path d="M3980 1965 c-1 -36 -1 -211 -1 -390 0 -179 0 -331 1 -338 0 -9 23
-12 93 -11 50 1 94 2 97 3 3 0 5 116 5 257 0 140 2 259 5 264 3 5 22 -23 43
-63 20 -40 66 -126 101 -192 34 -66 80 -151 100 -189 20 -39 39 -72 42 -75 3
-3 57 -6 120 -6 l114 0 -2 400 -3 400 -96 2 -97 2 0 -242 c0 -133 -1 -257 -1
-275 -1 -30 -8 -21 -56 74 -30 59 -60 113 -66 121 -6 7 -8 13 -4 13 4 0 1 7
-6 16 -8 10 -46 78 -86 153 l-71 136 -116 2 -116 2 0 -64z"/>
<path d="M5857 2024 c-4 -4 -7 -184 -7 -400 0 -304 3 -393 13 -396 15 -6 326
-1 387 6 141 16 254 86 308 191 37 72 41 88 46 191 7 162 -66 295 -202 361
-31 15 -63 29 -72 30 -8 2 -31 5 -50 9 -57 9 -414 16 -423 8z m420 -182 c57
-30 92 -77 111 -152 10 -41 1 -134 -16 -173 -27 -58 -51 -83 -108 -108 -58
-26 -204 -38 -204 -17 -1 19 -1 451 -1 467 1 23 166 10 218 -17z"/>
<path d="M6769 2028 c-1 -2 -2 -180 -3 -396 -1 -255 2 -396 9 -400 5 -4 52 -7
103 -7 86 -1 92 1 93 20 1 11 2 79 3 150 l1 130 50 1 c28 1 61 -5 75 -13 23
-13 75 -77 75 -92 1 -10 90 -186 97 -191 6 -5 205 -5 216 -1 1 1 -5 16 -15 34
-9 17 -18 34 -18 37 -1 3 -24 51 -53 107 -54 106 -100 168 -133 178 -28 9 -24
18 26 44 25 13 45 30 45 37 0 8 4 14 9 14 17 0 36 66 36 130 0 102 -53 179
-134 196 -14 3 -33 9 -41 13 -14 7 -439 16 -441 9z m369 -167 c47 -25 57 -111
18 -156 -22 -25 -31 -28 -100 -31 -71 -3 -76 -2 -80 19 -4 18 -2 178 3 184 6
7 141 -6 159 -16z"/>
<path d="M7569 2008 c-7 -154 -2 -778 6 -779 6 -1 52 -2 103 -3 76 -1 92 1 93
14 3 49 4 767 1 778 -3 8 -33 12 -103 12 -96 0 -99 -1 -100 -22z"/>
<path d="M7820 2021 c0 -4 12 -36 26 -72 14 -35 27 -68 28 -74 2 -5 6 -17 9
-25 4 -8 22 -58 41 -110 45 -124 135 -371 143 -390 3 -8 7 -17 8 -20 1 -3 5
-14 10 -25 21 -55 30 -75 35 -76 3 -1 57 -2 121 -3 l116 -1 16 35 c9 19 59
154 112 300 53 146 100 274 105 285 4 11 15 40 25 65 10 25 21 54 25 65 23 58
28 55 -84 55 l-104 0 -11 -27 c-15 -38 -66 -181 -97 -273 -14 -41 -30 -84 -35
-95 -6 -12 -11 -27 -13 -35 -2 -8 -8 -27 -13 -41 -6 -14 -17 -44 -24 -67 -15
-50 -25 -53 -38 -9 -5 17 -24 70 -41 117 -50 133 -131 362 -141 397 l-10 32
-104 -1 c-58 0 -105 -3 -105 -7z"/>
<path d="M8700 1920 c-1 -142 -1 -506 0 -612 l0 -83 277 1 c153 1 281 2 286 3
4 0 7 35 7 76 0 64 -2 75 -17 76 -10 0 -91 1 -180 1 -143 0 -163 2 -164 17 -5
59 -4 129 2 146 6 19 16 20 155 21 82 1 154 2 160 3 15 1 14 151 -1 152 -5 0
-79 1 -162 1 -84 1 -153 4 -154 7 -4 27 -3 125 2 133 4 6 73 10 176 9 l170 0
0 80 0 79 -279 0 -278 0 0 -110z"/>
</g>
</svg>
