<svg width="286" height="328" viewBox="0 0 286 328" fill="none" xmlns="http://www.w3.org/2000/svg">
<rect width="286" height="328" rx="60" fill="#373737"/>
<path d="M67.648 199.71V201.756H61.158V206.266H66.218V208.312H61.158V215H58.65V199.71H67.648ZM69.3563 208.884C69.3563 207.667 69.6056 206.589 70.1043 205.65C70.6176 204.711 71.3069 203.985 72.1723 203.472C73.0523 202.944 74.0203 202.68 75.0763 202.68C76.0296 202.68 76.8583 202.871 77.5623 203.252C78.2809 203.619 78.8529 204.081 79.2783 204.638V202.878H81.8083V215H79.2783V213.196C78.8529 213.768 78.2736 214.245 77.5403 214.626C76.8069 215.007 75.9709 215.198 75.0323 215.198C73.9909 215.198 73.0376 214.934 72.1723 214.406C71.3069 213.863 70.6176 213.115 70.1043 212.162C69.6056 211.194 69.3563 210.101 69.3563 208.884ZM79.2783 208.928C79.2783 208.092 79.1023 207.366 78.7503 206.75C78.4129 206.134 77.9656 205.665 77.4083 205.342C76.8509 205.019 76.2496 204.858 75.6043 204.858C74.9589 204.858 74.3576 205.019 73.8003 205.342C73.2429 205.65 72.7883 206.112 72.4363 206.728C72.0989 207.329 71.9303 208.048 71.9303 208.884C71.9303 209.72 72.0989 210.453 72.4363 211.084C72.7883 211.715 73.2429 212.199 73.8003 212.536C74.3723 212.859 74.9736 213.02 75.6043 213.02C76.2496 213.02 76.8509 212.859 77.4083 212.536C77.9656 212.213 78.4129 211.744 78.7503 211.128C79.1023 210.497 79.2783 209.764 79.2783 208.928ZM87.8304 204.638C88.1971 204.022 88.6811 203.545 89.2824 203.208C89.8984 202.856 90.6244 202.68 91.4604 202.68V205.276H90.8224C89.8398 205.276 89.0918 205.525 88.5784 206.024C88.0798 206.523 87.8304 207.388 87.8304 208.62V215H85.3224V202.878H87.8304V204.638ZM108.66 202.68C109.613 202.68 110.464 202.878 111.212 203.274C111.974 203.67 112.568 204.257 112.994 205.034C113.434 205.811 113.654 206.75 113.654 207.85V215H111.168V208.224C111.168 207.139 110.896 206.31 110.354 205.738C109.811 205.151 109.07 204.858 108.132 204.858C107.193 204.858 106.445 205.151 105.888 205.738C105.345 206.31 105.074 207.139 105.074 208.224V215H102.588V208.224C102.588 207.139 102.316 206.31 101.774 205.738C101.231 205.151 100.49 204.858 99.5518 204.858C98.6131 204.858 97.8651 205.151 97.3078 205.738C96.7651 206.31 96.4938 207.139 96.4938 208.224V215H93.9858V202.878H96.4938V204.264C96.9044 203.765 97.4251 203.377 98.0558 203.098C98.6864 202.819 99.3611 202.68 100.08 202.68C101.048 202.68 101.913 202.885 102.676 203.296C103.438 203.707 104.025 204.301 104.436 205.078C104.802 204.345 105.374 203.765 106.152 203.34C106.929 202.9 107.765 202.68 108.66 202.68ZM128.175 208.642C128.175 209.097 128.146 209.507 128.087 209.874H118.825C118.898 210.842 119.258 211.619 119.903 212.206C120.548 212.793 121.34 213.086 122.279 213.086C123.628 213.086 124.582 212.521 125.139 211.392H127.845C127.478 212.507 126.811 213.423 125.843 214.142C124.89 214.846 123.702 215.198 122.279 215.198C121.12 215.198 120.079 214.941 119.155 214.428C118.246 213.9 117.527 213.167 116.999 212.228C116.486 211.275 116.229 210.175 116.229 208.928C116.229 207.681 116.478 206.589 116.977 205.65C117.49 204.697 118.202 203.963 119.111 203.45C120.035 202.937 121.091 202.68 122.279 202.68C123.423 202.68 124.442 202.929 125.337 203.428C126.232 203.927 126.928 204.631 127.427 205.54C127.926 206.435 128.175 207.469 128.175 208.642ZM125.557 207.85C125.542 206.926 125.212 206.185 124.567 205.628C123.922 205.071 123.122 204.792 122.169 204.792C121.304 204.792 120.563 205.071 119.947 205.628C119.331 206.171 118.964 206.911 118.847 207.85H125.557ZM133.371 204.638C133.738 204.022 134.222 203.545 134.823 203.208C135.439 202.856 136.165 202.68 137.001 202.68V205.276H136.363C135.381 205.276 134.633 205.525 134.119 206.024C133.621 206.523 133.371 207.388 133.371 208.62V215H130.863V202.878H133.371V204.638ZM139.923 199.71H142.651L140.341 204.946H138.581L139.923 199.71ZM149.475 215.198C148.521 215.198 147.663 215.029 146.901 214.692C146.153 214.34 145.559 213.871 145.119 213.284C144.679 212.683 144.444 212.015 144.415 211.282H147.011C147.055 211.795 147.297 212.228 147.737 212.58C148.191 212.917 148.756 213.086 149.431 213.086C150.135 213.086 150.677 212.954 151.059 212.69C151.455 212.411 151.653 212.059 151.653 211.634C151.653 211.179 151.433 210.842 150.993 210.622C150.567 210.402 149.885 210.16 148.947 209.896C148.037 209.647 147.297 209.405 146.725 209.17C146.153 208.935 145.654 208.576 145.229 208.092C144.818 207.608 144.613 206.97 144.613 206.178C144.613 205.533 144.803 204.946 145.185 204.418C145.566 203.875 146.109 203.45 146.813 203.142C147.531 202.834 148.353 202.68 149.277 202.68C150.655 202.68 151.763 203.032 152.599 203.736C153.449 204.425 153.904 205.371 153.963 206.574H151.455C151.411 206.031 151.191 205.599 150.795 205.276C150.399 204.953 149.863 204.792 149.189 204.792C148.529 204.792 148.023 204.917 147.671 205.166C147.319 205.415 147.143 205.745 147.143 206.156C147.143 206.479 147.26 206.75 147.495 206.97C147.729 207.19 148.015 207.366 148.353 207.498C148.69 207.615 149.189 207.769 149.849 207.96C150.729 208.195 151.447 208.437 152.005 208.686C152.577 208.921 153.068 209.273 153.479 209.742C153.889 210.211 154.102 210.835 154.117 211.612C154.117 212.301 153.926 212.917 153.545 213.46C153.163 214.003 152.621 214.428 151.917 214.736C151.227 215.044 150.413 215.198 149.475 215.198ZM173.674 204.264C173.674 205.041 173.49 205.775 173.124 206.464C172.757 207.153 172.17 207.718 171.364 208.158C170.557 208.583 169.523 208.796 168.262 208.796H165.49V215H162.982V199.71H168.262C169.435 199.71 170.425 199.915 171.232 200.326C172.053 200.722 172.662 201.265 173.058 201.954C173.468 202.643 173.674 203.413 173.674 204.264ZM168.262 206.75C169.215 206.75 169.926 206.537 170.396 206.112C170.865 205.672 171.1 205.056 171.1 204.264C171.1 202.592 170.154 201.756 168.262 201.756H165.49V206.75H168.262ZM178.794 204.638C179.16 204.022 179.644 203.545 180.246 203.208C180.862 202.856 181.588 202.68 182.424 202.68V205.276H181.786C180.803 205.276 180.055 205.525 179.542 206.024C179.043 206.523 178.794 207.388 178.794 208.62V215H176.286V202.878H178.794V204.638ZM190.207 215.198C189.063 215.198 188.029 214.941 187.105 214.428C186.181 213.9 185.455 213.167 184.927 212.228C184.399 211.275 184.135 210.175 184.135 208.928C184.135 207.696 184.406 206.603 184.949 205.65C185.492 204.697 186.232 203.963 187.171 203.45C188.11 202.937 189.158 202.68 190.317 202.68C191.476 202.68 192.524 202.937 193.463 203.45C194.402 203.963 195.142 204.697 195.685 205.65C196.228 206.603 196.499 207.696 196.499 208.928C196.499 210.16 196.22 211.253 195.663 212.206C195.106 213.159 194.343 213.9 193.375 214.428C192.422 214.941 191.366 215.198 190.207 215.198ZM190.207 213.02C190.852 213.02 191.454 212.866 192.011 212.558C192.583 212.25 193.045 211.788 193.397 211.172C193.749 210.556 193.925 209.808 193.925 208.928C193.925 208.048 193.756 207.307 193.419 206.706C193.082 206.09 192.634 205.628 192.077 205.32C191.52 205.012 190.918 204.858 190.273 204.858C189.628 204.858 189.026 205.012 188.469 205.32C187.926 205.628 187.494 206.09 187.171 206.706C186.848 207.307 186.687 208.048 186.687 208.928C186.687 210.233 187.017 211.245 187.677 211.964C188.352 212.668 189.195 213.02 190.207 213.02ZM204.28 204.924H202.036V215H199.506V204.924H198.076V202.878H199.506V202.02C199.506 200.627 199.873 199.615 200.606 198.984C201.354 198.339 202.52 198.016 204.104 198.016V200.106C203.342 200.106 202.806 200.253 202.498 200.546C202.19 200.825 202.036 201.316 202.036 202.02V202.878H204.28V204.924ZM207.999 201.272C207.544 201.272 207.163 201.118 206.855 200.81C206.547 200.502 206.393 200.121 206.393 199.666C206.393 199.211 206.547 198.83 206.855 198.522C207.163 198.214 207.544 198.06 207.999 198.06C208.439 198.06 208.813 198.214 209.121 198.522C209.429 198.83 209.583 199.211 209.583 199.666C209.583 200.121 209.429 200.502 209.121 200.81C208.813 201.118 208.439 201.272 207.999 201.272ZM209.231 202.878V215H206.723V202.878H209.231ZM215.252 198.72V215H212.744V198.72H215.252ZM229.874 208.642C229.874 209.097 229.845 209.507 229.786 209.874H220.524C220.598 210.842 220.957 211.619 221.602 212.206C222.248 212.793 223.04 213.086 223.978 213.086C225.328 213.086 226.281 212.521 226.838 211.392H229.544C229.178 212.507 228.51 213.423 227.542 214.142C226.589 214.846 225.401 215.198 223.978 215.198C222.82 215.198 221.778 214.941 220.854 214.428C219.945 213.9 219.226 213.167 218.698 212.228C218.185 211.275 217.928 210.175 217.928 208.928C217.928 207.681 218.178 206.589 218.676 205.65C219.19 204.697 219.901 203.963 220.81 203.45C221.734 202.937 222.79 202.68 223.978 202.68C225.122 202.68 226.142 202.929 227.036 203.428C227.931 203.927 228.628 204.631 229.126 205.54C229.625 206.435 229.874 207.469 229.874 208.642ZM227.256 207.85C227.242 206.926 226.912 206.185 226.266 205.628C225.621 205.071 224.822 204.792 223.868 204.792C223.003 204.792 222.262 205.071 221.646 205.628C221.03 206.171 220.664 206.911 220.546 207.85H227.256Z" fill="white"/>
<g clip-path="url(#clip0_149_8512)">
<path d="M178.588 168.115L169.558 159.085C168.498 158.024 167.188 157.361 165.815 157.094V138.879C166.11 138.904 166.404 138.916 166.698 138.916C169.485 138.916 172.176 137.822 174.2 135.798C176.795 133.203 177.861 129.512 177.052 125.924C176.933 125.395 176.519 124.982 175.99 124.862C172.403 124.053 168.711 125.12 166.116 127.715C166.013 127.818 165.914 127.923 165.815 128.029V120.67C167.975 119.018 169.243 116.477 169.243 113.726C169.243 110.708 167.717 107.942 165.161 106.327C164.701 106.037 164.117 106.037 163.658 106.327C161.102 107.942 159.576 110.708 159.576 113.726C159.576 116.477 160.843 119.018 163.003 120.67V122.515C160.69 120.225 157.415 119.286 154.232 120.004C153.702 120.124 153.289 120.538 153.17 121.067C152.448 124.266 153.399 127.557 155.713 129.872C157.518 131.677 159.918 132.653 162.404 132.653C162.603 132.653 162.803 132.645 163.003 132.633V138.281C162.82 138.069 162.629 137.863 162.429 137.663C159.636 134.87 155.676 133.707 151.813 134.537C151.5 132.355 149.62 130.673 147.355 130.673H138.318L134.108 124.886C133.512 124.067 132.771 123.382 131.935 122.849C134.389 121.824 136.118 119.4 136.118 116.579V113.218H138.286C139.063 113.218 139.693 112.588 139.693 111.811C139.693 111.035 139.063 110.405 138.286 110.405H136.505V108.152C136.505 105.94 134.705 104.141 132.493 104.141H125.845C123.633 104.141 121.833 105.94 121.833 108.152V110.405H120.052C119.275 110.405 118.646 111.035 118.646 111.811C118.646 112.588 119.275 113.218 120.052 113.218H122.535V116.579C122.535 118.769 123.577 120.719 125.191 121.962C121.954 122.994 119.602 126.029 119.602 129.604V144.916C119.602 148.207 121.4 151.084 124.065 152.622V161.656H111.43C108.987 161.656 107 163.644 107 166.086C107 168.528 108.987 170.516 111.43 170.516H113.24C114.017 170.516 114.646 169.886 114.646 169.109C114.646 168.333 114.017 167.703 113.24 167.703H111.43C110.538 167.703 109.813 166.978 109.813 166.086C109.813 165.194 110.538 164.469 111.43 164.469H125.471C126.248 164.469 126.877 163.839 126.877 163.063V153.659C127.402 153.756 127.943 153.809 128.496 153.809H131.281V162.905C131.281 165.551 129.129 167.703 126.483 167.703H124.49C123.714 167.703 123.084 168.333 123.084 169.109C123.084 169.886 123.714 170.516 124.49 170.516H126.483C130.68 170.516 134.094 167.102 134.094 162.905V153.809H139.237V166.086C139.237 168.528 141.225 170.516 143.667 170.516C146.11 170.516 148.097 168.528 148.097 166.086V150.828C148.097 146.631 144.683 143.217 140.486 143.217H133.712V139.615C133.85 139.659 133.994 139.683 134.142 139.683H147.355C148.503 139.683 149.552 139.25 150.348 138.54C150.433 141.45 151.615 144.24 153.733 146.359C155.934 148.559 158.859 149.749 161.889 149.749C162.26 149.749 162.631 149.73 163.003 149.694V157.099C161.638 157.368 160.337 158.03 159.282 159.085L150.294 168.073C149.745 168.622 149.745 169.513 150.294 170.062C150.843 170.611 151.734 170.611 152.282 170.062L161.271 161.074C163.007 159.337 165.832 159.337 167.569 161.074L176.6 170.104C176.874 170.378 177.234 170.516 177.594 170.516C177.954 170.516 178.313 170.378 178.588 170.104C179.137 169.554 179.137 168.664 178.588 168.115V168.115ZM162.98 129.815C161.031 129.98 159.11 129.291 157.702 127.884C156.296 126.476 155.605 124.555 155.771 122.606C157.72 122.44 159.642 123.131 161.049 124.537C162.456 125.945 163.146 127.866 162.98 129.815ZM168.105 129.704C169.795 128.014 172.117 127.205 174.46 127.455C174.709 129.797 173.901 132.12 172.211 133.809C170.521 135.499 168.199 136.308 165.856 136.058C165.831 135.82 165.819 135.582 165.815 135.345V135.071C165.854 133.074 166.653 131.155 168.105 129.704V129.704ZM164.409 109.265C165.688 110.384 166.43 111.994 166.43 113.727C166.43 115.459 165.688 117.069 164.409 118.188C163.13 117.069 162.388 115.459 162.388 113.727C162.388 111.994 163.13 110.384 164.409 109.265ZM133.306 116.579C133.306 118.773 131.52 120.559 129.326 120.559C127.132 120.559 125.347 118.773 125.347 116.579V113.218H133.306V116.579ZM124.646 108.152C124.646 107.491 125.183 106.953 125.845 106.953H132.493C133.155 106.953 133.692 107.491 133.692 108.152V110.405H124.646V108.152ZM140.486 146.03C143.132 146.03 145.284 148.183 145.284 150.828V166.086C145.284 166.978 144.559 167.703 143.667 167.703C142.775 167.703 142.05 166.978 142.05 166.086V152.403C142.05 151.627 141.42 150.997 140.643 150.997H128.495C125.524 150.997 123.044 148.853 122.519 146.03H140.486ZM147.355 136.87H134.772L132.041 133.799C131.524 133.218 130.635 133.167 130.055 133.682C129.475 134.199 129.423 135.087 129.939 135.668L130.9 136.748V143.217H122.415V129.604C122.415 126.733 124.751 124.397 127.622 124.397C129.282 124.397 130.857 125.198 131.834 126.541L136.465 132.907C136.73 133.271 137.153 133.486 137.602 133.486H147.355C148.288 133.486 149.047 134.245 149.047 135.178C149.047 136.111 148.288 136.87 147.355 136.87V136.87ZM162.944 146.873C160.285 147.19 157.64 146.288 155.722 144.37C153.805 142.453 152.901 139.807 153.219 137.149C155.877 136.83 158.523 137.734 160.441 139.652C162.089 141.3 162.985 143.487 163.003 145.757V145.956C162.998 146.261 162.98 146.567 162.944 146.873Z" fill="white"/>
<path d="M118.865 167.703C118.495 167.703 118.134 167.854 117.871 168.115C117.609 168.377 117.46 168.74 117.46 169.109C117.46 169.479 117.609 169.842 117.871 170.104C118.134 170.365 118.495 170.516 118.865 170.516C119.235 170.516 119.597 170.365 119.86 170.104C120.122 169.842 120.272 169.479 120.272 169.109C120.272 168.74 120.122 168.377 119.86 168.115C119.597 167.854 119.235 167.703 118.865 167.703Z" fill="white"/>
</g>
<defs>
<clipPath id="clip0_149_8512">
<rect width="72" height="72" fill="white" transform="translate(107 104)"/>
</clipPath>
</defs>
</svg>
