<svg width="174" height="173" viewBox="0 0 174 173" fill="none" xmlns="http://www.w3.org/2000/svg">
<rect width="174" height="173" rx="60" fill="#6944FF"/>
<path d="M42.158 126.976H47.328V129H39.65V113.71H42.158V126.976ZM54.9034 129.198C53.7594 129.198 52.7254 128.941 51.8014 128.428C50.8774 127.9 50.1514 127.167 49.6234 126.228C49.0954 125.275 48.8314 124.175 48.8314 122.928C48.8314 121.696 49.1027 120.603 49.6454 119.65C50.1881 118.697 50.9287 117.963 51.8674 117.45C52.8061 116.937 53.8547 116.68 55.0134 116.68C56.1721 116.68 57.2207 116.937 58.1594 117.45C59.0981 117.963 59.8387 118.697 60.3814 119.65C60.9241 120.603 61.1954 121.696 61.1954 122.928C61.1954 124.16 60.9167 125.253 60.3594 126.206C59.8021 127.159 59.0394 127.9 58.0714 128.428C57.1181 128.941 56.0621 129.198 54.9034 129.198ZM54.9034 127.02C55.5487 127.02 56.1501 126.866 56.7074 126.558C57.2794 126.25 57.7414 125.788 58.0934 125.172C58.4454 124.556 58.6214 123.808 58.6214 122.928C58.6214 122.048 58.4527 121.307 58.1154 120.706C57.7781 120.09 57.3307 119.628 56.7734 119.32C56.2161 119.012 55.6147 118.858 54.9694 118.858C54.3241 118.858 53.7227 119.012 53.1654 119.32C52.6227 119.628 52.1901 120.09 51.8674 120.706C51.5447 121.307 51.3834 122.048 51.3834 122.928C51.3834 124.233 51.7134 125.245 52.3734 125.964C53.0481 126.668 53.8914 127.02 54.9034 127.02ZM68.7787 116.68C69.7174 116.68 70.546 116.871 71.2647 117.252C71.998 117.619 72.57 118.081 72.9807 118.638V116.878H75.5107V129.198C75.5107 130.313 75.276 131.303 74.8067 132.168C74.3374 133.048 73.6554 133.737 72.7607 134.236C71.8807 134.735 70.8247 134.984 69.5927 134.984C67.95 134.984 66.586 134.595 65.5007 133.818C64.4154 133.055 63.7994 132.014 63.6527 130.694H66.1387C66.3294 131.325 66.7327 131.831 67.3487 132.212C67.9794 132.608 68.7274 132.806 69.5927 132.806C70.6047 132.806 71.4187 132.498 72.0347 131.882C72.6654 131.266 72.9807 130.371 72.9807 129.198V127.174C72.5554 127.746 71.976 128.23 71.2427 128.626C70.524 129.007 69.7027 129.198 68.7787 129.198C67.7227 129.198 66.7547 128.934 65.8747 128.406C65.0094 127.863 64.32 127.115 63.8067 126.162C63.308 125.194 63.0587 124.101 63.0587 122.884C63.0587 121.667 63.308 120.589 63.8067 119.65C64.32 118.711 65.0094 117.985 65.8747 117.472C66.7547 116.944 67.7227 116.68 68.7787 116.68ZM72.9807 122.928C72.9807 122.092 72.8047 121.366 72.4527 120.75C72.1154 120.134 71.668 119.665 71.1107 119.342C70.5534 119.019 69.952 118.858 69.3067 118.858C68.6614 118.858 68.06 119.019 67.5027 119.342C66.9454 119.65 66.4907 120.112 66.1387 120.728C65.8014 121.329 65.6327 122.048 65.6327 122.884C65.6327 123.72 65.8014 124.453 66.1387 125.084C66.4907 125.715 66.9454 126.199 67.5027 126.536C68.0747 126.859 68.676 127.02 69.3067 127.02C69.952 127.02 70.5534 126.859 71.1107 126.536C71.668 126.213 72.1154 125.744 72.4527 125.128C72.8047 124.497 72.9807 123.764 72.9807 122.928ZM80.3008 115.272C79.8462 115.272 79.4648 115.118 79.1568 114.81C78.8488 114.502 78.6948 114.121 78.6948 113.666C78.6948 113.211 78.8488 112.83 79.1568 112.522C79.4648 112.214 79.8462 112.06 80.3008 112.06C80.7408 112.06 81.1148 112.214 81.4228 112.522C81.7308 112.83 81.8848 113.211 81.8848 113.666C81.8848 114.121 81.7308 114.502 81.4228 114.81C81.1148 115.118 80.7408 115.272 80.3008 115.272ZM81.5328 116.878V129H79.0248V116.878H81.5328ZM89.4456 129.198C88.4923 129.198 87.6343 129.029 86.8716 128.692C86.1236 128.34 85.5296 127.871 85.0896 127.284C84.6496 126.683 84.415 126.015 84.3856 125.282H86.9816C87.0256 125.795 87.2676 126.228 87.7076 126.58C88.1623 126.917 88.727 127.086 89.4016 127.086C90.1056 127.086 90.6483 126.954 91.0296 126.69C91.4256 126.411 91.6236 126.059 91.6236 125.634C91.6236 125.179 91.4036 124.842 90.9636 124.622C90.5383 124.402 89.8563 124.16 88.9176 123.896C88.0083 123.647 87.2676 123.405 86.6956 123.17C86.1236 122.935 85.625 122.576 85.1996 122.092C84.789 121.608 84.5836 120.97 84.5836 120.178C84.5836 119.533 84.7743 118.946 85.1556 118.418C85.537 117.875 86.0796 117.45 86.7836 117.142C87.5023 116.834 88.3236 116.68 89.2476 116.68C90.6263 116.68 91.7336 117.032 92.5696 117.736C93.4203 118.425 93.875 119.371 93.9336 120.574H91.4256C91.3816 120.031 91.1616 119.599 90.7656 119.276C90.3696 118.953 89.8343 118.792 89.1596 118.792C88.4996 118.792 87.9936 118.917 87.6416 119.166C87.2896 119.415 87.1136 119.745 87.1136 120.156C87.1136 120.479 87.231 120.75 87.4656 120.97C87.7003 121.19 87.9863 121.366 88.3236 121.498C88.661 121.615 89.1596 121.769 89.8196 121.96C90.6996 122.195 91.4183 122.437 91.9756 122.686C92.5476 122.921 93.039 123.273 93.4496 123.742C93.8603 124.211 94.073 124.835 94.0876 125.612C94.0876 126.301 93.897 126.917 93.5156 127.46C93.1343 128.003 92.5916 128.428 91.8876 128.736C91.1983 129.044 90.3843 129.198 89.4456 129.198ZM99.9436 118.924V125.634C99.9436 126.089 100.046 126.419 100.252 126.624C100.472 126.815 100.838 126.91 101.352 126.91H102.892V129H100.912C99.7822 129 98.9169 128.736 98.3156 128.208C97.7142 127.68 97.4136 126.822 97.4136 125.634V118.924H95.9836V116.878H97.4136V113.864H99.9436V116.878H102.892V118.924H99.9436ZM106.699 115.272C106.244 115.272 105.863 115.118 105.555 114.81C105.247 114.502 105.093 114.121 105.093 113.666C105.093 113.211 105.247 112.83 105.555 112.522C105.863 112.214 106.244 112.06 106.699 112.06C107.139 112.06 107.513 112.214 107.821 112.522C108.129 112.83 108.283 113.211 108.283 113.666C108.283 114.121 108.129 114.502 107.821 114.81C107.513 115.118 107.139 115.272 106.699 115.272ZM107.931 116.878V129H105.423V116.878H107.931ZM110.608 122.928C110.608 121.681 110.857 120.589 111.356 119.65C111.869 118.697 112.573 117.963 113.468 117.45C114.363 116.937 115.389 116.68 116.548 116.68C118.015 116.68 119.225 117.032 120.178 117.736C121.146 118.425 121.799 119.415 122.136 120.706H119.43C119.21 120.105 118.858 119.635 118.374 119.298C117.89 118.961 117.281 118.792 116.548 118.792C115.521 118.792 114.7 119.159 114.084 119.892C113.483 120.611 113.182 121.623 113.182 122.928C113.182 124.233 113.483 125.253 114.084 125.986C114.7 126.719 115.521 127.086 116.548 127.086C118 127.086 118.961 126.448 119.43 125.172H122.136C121.784 126.404 121.124 127.387 120.156 128.12C119.188 128.839 117.985 129.198 116.548 129.198C115.389 129.198 114.363 128.941 113.468 128.428C112.573 127.9 111.869 127.167 111.356 126.228C110.857 125.275 110.608 124.175 110.608 122.928ZM129.255 129.198C128.302 129.198 127.444 129.029 126.681 128.692C125.933 128.34 125.339 127.871 124.899 127.284C124.459 126.683 124.225 126.015 124.195 125.282H126.791C126.835 125.795 127.077 126.228 127.517 126.58C127.972 126.917 128.537 127.086 129.211 127.086C129.915 127.086 130.458 126.954 130.839 126.69C131.235 126.411 131.433 126.059 131.433 125.634C131.433 125.179 131.213 124.842 130.773 124.622C130.348 124.402 129.666 124.16 128.727 123.896C127.818 123.647 127.077 123.405 126.505 123.17C125.933 122.935 125.435 122.576 125.009 122.092C124.599 121.608 124.393 120.97 124.393 120.178C124.393 119.533 124.584 118.946 124.965 118.418C125.347 117.875 125.889 117.45 126.593 117.142C127.312 116.834 128.133 116.68 129.057 116.68C130.436 116.68 131.543 117.032 132.379 117.736C133.23 118.425 133.685 119.371 133.743 120.574H131.235C131.191 120.031 130.971 119.599 130.575 119.276C130.179 118.953 129.644 118.792 128.969 118.792C128.309 118.792 127.803 118.917 127.451 119.166C127.099 119.415 126.923 119.745 126.923 120.156C126.923 120.479 127.041 120.75 127.275 120.97C127.51 121.19 127.796 121.366 128.133 121.498C128.471 121.615 128.969 121.769 129.629 121.96C130.509 122.195 131.228 122.437 131.785 122.686C132.357 122.921 132.849 123.273 133.259 123.742C133.67 124.211 133.883 124.835 133.897 125.612C133.897 126.301 133.707 126.917 133.325 127.46C132.944 128.003 132.401 128.428 131.697 128.736C131.008 129.044 130.194 129.198 129.255 129.198Z" fill="white"/>
<path d="M112.96 64.5355L111.095 57.0774C111.605 56.9692 111.987 56.5169 111.987 55.9751V54.7726C111.987 52.1618 109.863 50.0378 107.253 50.0378H98.76V47.5574C98.76 46.2727 97.7148 45.2275 96.4301 45.2275H53.1398C51.8551 45.2275 50.8099 46.2727 50.8099 47.5574V68.0001C50.8099 68.6226 51.3146 69.1275 51.9373 69.1275C52.5599 69.1275 53.0647 68.6228 53.0647 68.0001V47.5574C53.0647 47.5159 53.0983 47.4823 53.1398 47.4823H96.43C96.4714 47.4823 96.505 47.5159 96.505 47.5574V68.0004C96.505 68.6229 97.0098 69.1277 97.6324 69.1277C98.255 69.1277 98.7598 68.623 98.7598 68.0004V66.7224H112.059C112.06 66.7224 112.061 66.7226 112.062 66.7226C112.063 66.7226 112.064 66.7225 112.065 66.7225C113.701 66.7236 115.091 67.7977 115.568 69.2778H112.062C111.44 69.2778 110.935 69.7825 110.935 70.4052V72.8101C110.935 74.7579 112.52 76.3425 114.467 76.3425H115.745V81.3028H112.797C111.829 78.5067 109.171 76.4927 106.05 76.4927C102.929 76.4927 100.271 78.5067 99.3024 81.3028H98.7595V72.81C98.7595 72.1875 98.2548 71.6826 97.6322 71.6826C97.0096 71.6826 96.5048 72.1873 96.5048 72.81V81.3025H73.1149C72.1465 78.5064 69.4886 76.4924 66.3674 76.4924C63.2463 76.4924 60.5882 78.5064 59.62 81.3025H53.1398C53.0983 81.3025 53.0647 81.2689 53.0647 81.2274V78.7472H57.9499C58.5724 78.7472 59.0773 78.2425 59.0773 77.6198C59.0773 76.9971 58.5726 76.4924 57.9499 76.4924H47.1274C46.5048 76.4924 46 76.9971 46 77.6198C46 78.2425 46.5047 78.7472 47.1274 78.7472H50.8101V81.2274C50.8101 82.5121 51.8552 83.5573 53.14 83.5573H59.2296C59.2293 83.5823 59.2276 83.6072 59.2276 83.6324C59.2276 87.5693 62.4306 90.7722 66.3674 90.7722C70.3042 90.7722 73.5072 87.5693 73.5072 83.6324C73.5072 83.6071 73.5055 83.5823 73.5053 83.5573H98.912C98.9117 83.5823 98.91 83.6072 98.91 83.6324C98.91 87.5693 102.113 90.7722 106.05 90.7722C109.987 90.7722 113.19 87.5693 113.19 83.6324C113.19 83.6071 113.188 83.5823 113.188 83.5573H116.872C117.495 83.5573 118 83.0526 118 82.4299V70.4049C118 67.436 115.809 64.9693 112.96 64.5355ZM98.76 52.2924H107.253C108.62 52.2924 109.733 53.405 109.733 54.7726V54.8477H98.76V52.2924ZM98.76 64.4677V57.1023H108.777L110.619 64.4677H98.76ZM66.3674 88.5178C63.6738 88.5178 61.4823 86.3265 61.4823 83.6327C61.4823 80.9388 63.6738 78.7475 66.3674 78.7475C69.0611 78.7475 71.2526 80.9388 71.2526 83.6327C71.2526 86.3265 69.0611 88.5178 66.3674 88.5178ZM106.05 88.5178C103.356 88.5178 101.165 86.3265 101.165 83.6327C101.165 80.9388 103.356 78.7475 106.05 78.7475C108.744 78.7475 110.935 80.9388 110.935 83.6327C110.935 86.3265 108.744 88.5178 106.05 88.5178ZM115.745 74.0877H114.468C113.763 74.0877 113.19 73.5145 113.19 72.81V71.5323H115.745V74.0877H115.745Z" fill="white"/>
<path d="M66.367 81.3027C65.0822 81.3027 64.0371 82.3479 64.0371 83.6326C64.0371 84.9174 65.0822 85.9625 66.367 85.9625C67.6517 85.9625 68.6969 84.9174 68.6969 83.6326C68.6969 82.3479 67.6517 81.3027 66.367 81.3027Z" fill="white"/>
<path d="M106.051 81.3027C104.766 81.3027 103.721 82.3479 103.721 83.6326C103.721 84.9174 104.766 85.9625 106.051 85.9625C107.335 85.9625 108.38 84.9174 108.38 83.6326C108.38 82.3479 107.335 81.3027 106.051 81.3027Z" fill="white"/>
<path d="M92.8228 76.4932H75.9877C75.3652 76.4932 74.8604 76.9979 74.8604 77.6206C74.8604 78.2432 75.3651 78.7479 75.9877 78.7479H92.8228C93.4453 78.7479 93.9502 78.2432 93.9502 77.6206C93.9502 76.9979 93.4455 76.4932 92.8228 76.4932Z" fill="white"/>
<path d="M63.9628 71.6826H49.5327C48.9101 71.6826 48.4053 72.1873 48.4053 72.81C48.4053 73.4327 48.91 73.9374 49.5327 73.9374H63.9628C64.5853 73.9374 65.0901 73.4327 65.0901 72.81C65.0901 72.1873 64.5853 71.6826 63.9628 71.6826Z" fill="white"/>
<path d="M85.2019 56.3799C84.7618 55.9397 84.0478 55.9397 83.6077 56.38L73.5822 66.4053L68.3669 61.19C67.9266 60.7497 67.2128 60.7497 66.7726 61.19C66.3323 61.6303 66.3323 62.344 66.7726 62.7842L72.7852 68.7968C73.0052 69.017 73.2938 69.127 73.5822 69.127C73.8707 69.127 74.1594 69.017 74.3793 68.7968L85.2018 57.9743C85.6421 57.5339 85.6421 56.8202 85.2019 56.3799Z" fill="white"/>
</svg>
