<svg width="292" height="173" viewBox="0 0 292 173" fill="none" xmlns="http://www.w3.org/2000/svg">
<rect width="292" height="173" rx="40" fill="#53735E"/>
<path d="M81.342 122.264C81.342 123.041 81.1587 123.775 80.792 124.464C80.4253 125.153 79.8387 125.718 79.032 126.158C78.2253 126.583 77.1913 126.796 75.93 126.796H73.158V133H70.65V117.71H75.93C77.1033 117.71 78.0933 117.915 78.9 118.326C79.7213 118.722 80.33 119.265 80.726 119.954C81.1367 120.643 81.342 121.413 81.342 122.264ZM75.93 124.75C76.8833 124.75 77.5947 124.537 78.064 124.112C78.5333 123.672 78.768 123.056 78.768 122.264C78.768 120.592 77.822 119.756 75.93 119.756H73.158V124.75H75.93ZM83.118 126.884C83.118 125.667 83.3673 124.589 83.866 123.65C84.3793 122.711 85.0687 121.985 85.934 121.472C86.814 120.944 87.782 120.68 88.838 120.68C89.7913 120.68 90.62 120.871 91.324 121.252C92.0427 121.619 92.6147 122.081 93.04 122.638V120.878H95.57V133H93.04V131.196C92.6147 131.768 92.0353 132.245 91.302 132.626C90.5687 133.007 89.7327 133.198 88.794 133.198C87.7527 133.198 86.7993 132.934 85.934 132.406C85.0687 131.863 84.3793 131.115 83.866 130.162C83.3673 129.194 83.118 128.101 83.118 126.884ZM93.04 126.928C93.04 126.092 92.864 125.366 92.512 124.75C92.1747 124.134 91.7273 123.665 91.17 123.342C90.6127 123.019 90.0113 122.858 89.366 122.858C88.7207 122.858 88.1193 123.019 87.562 123.342C87.0047 123.65 86.55 124.112 86.198 124.728C85.8607 125.329 85.692 126.048 85.692 126.884C85.692 127.72 85.8607 128.453 86.198 129.084C86.55 129.715 87.0047 130.199 87.562 130.536C88.134 130.859 88.7353 131.02 89.366 131.02C90.0113 131.02 90.6127 130.859 91.17 130.536C91.7273 130.213 92.1747 129.744 92.512 129.128C92.864 128.497 93.04 127.764 93.04 126.928ZM101.592 122.638C101.959 122.022 102.443 121.545 103.044 121.208C103.66 120.856 104.386 120.68 105.222 120.68V123.276H104.584C103.601 123.276 102.853 123.525 102.34 124.024C101.841 124.523 101.592 125.388 101.592 126.62V133H99.0841V120.878H101.592V122.638ZM110.673 122.924V129.634C110.673 130.089 110.776 130.419 110.982 130.624C111.202 130.815 111.568 130.91 112.082 130.91H113.622V133H111.641C110.512 133 109.647 132.736 109.045 132.208C108.444 131.68 108.143 130.822 108.143 129.634V122.924H106.713V120.878H108.143V117.864H110.673V120.878H113.622V122.924H110.673ZM131.966 117.71V119.756H127.896V133H125.388V119.756H121.296V117.71H131.966ZM136.002 119.272C135.547 119.272 135.166 119.118 134.858 118.81C134.55 118.502 134.396 118.121 134.396 117.666C134.396 117.211 134.55 116.83 134.858 116.522C135.166 116.214 135.547 116.06 136.002 116.06C136.442 116.06 136.816 116.214 137.124 116.522C137.432 116.83 137.586 117.211 137.586 117.666C137.586 118.121 137.432 118.502 137.124 118.81C136.816 119.118 136.442 119.272 136.002 119.272ZM137.234 120.878V133H134.726V120.878H137.234ZM155.421 120.68C156.374 120.68 157.225 120.878 157.973 121.274C158.735 121.67 159.329 122.257 159.755 123.034C160.195 123.811 160.415 124.75 160.415 125.85V133H157.929V126.224C157.929 125.139 157.657 124.31 157.115 123.738C156.572 123.151 155.831 122.858 154.893 122.858C153.954 122.858 153.206 123.151 152.649 123.738C152.106 124.31 151.835 125.139 151.835 126.224V133H149.349V126.224C149.349 125.139 149.077 124.31 148.535 123.738C147.992 123.151 147.251 122.858 146.313 122.858C145.374 122.858 144.626 123.151 144.069 123.738C143.526 124.31 143.255 125.139 143.255 126.224V133H140.747V120.878H143.255V122.264C143.665 121.765 144.186 121.377 144.817 121.098C145.447 120.819 146.122 120.68 146.841 120.68C147.809 120.68 148.674 120.885 149.437 121.296C150.199 121.707 150.786 122.301 151.197 123.078C151.563 122.345 152.135 121.765 152.913 121.34C153.69 120.9 154.526 120.68 155.421 120.68ZM174.936 126.642C174.936 127.097 174.907 127.507 174.848 127.874H165.586C165.659 128.842 166.019 129.619 166.664 130.206C167.309 130.793 168.101 131.086 169.04 131.086C170.389 131.086 171.343 130.521 171.9 129.392H174.606C174.239 130.507 173.572 131.423 172.604 132.142C171.651 132.846 170.463 133.198 169.04 133.198C167.881 133.198 166.84 132.941 165.916 132.428C165.007 131.9 164.288 131.167 163.76 130.228C163.247 129.275 162.99 128.175 162.99 126.928C162.99 125.681 163.239 124.589 163.738 123.65C164.251 122.697 164.963 121.963 165.872 121.45C166.796 120.937 167.852 120.68 169.04 120.68C170.184 120.68 171.203 120.929 172.098 121.428C172.993 121.927 173.689 122.631 174.188 123.54C174.687 124.435 174.936 125.469 174.936 126.642ZM172.318 125.85C172.303 124.926 171.973 124.185 171.328 123.628C170.683 123.071 169.883 122.792 168.93 122.792C168.065 122.792 167.324 123.071 166.708 123.628C166.092 124.171 165.725 124.911 165.608 125.85H172.318ZM191.897 117.71V128.732C191.897 130.096 191.479 131.174 190.643 131.966C189.822 132.758 188.736 133.154 187.387 133.154C186.038 133.154 184.945 132.758 184.109 131.966C183.288 131.174 182.877 130.096 182.877 128.732H185.407C185.422 129.407 185.59 129.942 185.913 130.338C186.25 130.734 186.742 130.932 187.387 130.932C188.032 130.932 188.524 130.734 188.861 130.338C189.198 129.927 189.367 129.392 189.367 128.732V117.71H191.897ZM201.455 133.198C200.311 133.198 199.277 132.941 198.353 132.428C197.429 131.9 196.703 131.167 196.175 130.228C195.647 129.275 195.383 128.175 195.383 126.928C195.383 125.696 195.654 124.603 196.197 123.65C196.74 122.697 197.48 121.963 198.419 121.45C199.358 120.937 200.406 120.68 201.565 120.68C202.724 120.68 203.772 120.937 204.711 121.45C205.65 121.963 206.39 122.697 206.933 123.65C207.476 124.603 207.747 125.696 207.747 126.928C207.747 128.16 207.468 129.253 206.911 130.206C206.354 131.159 205.591 131.9 204.623 132.428C203.67 132.941 202.614 133.198 201.455 133.198ZM201.455 131.02C202.1 131.02 202.702 130.866 203.259 130.558C203.831 130.25 204.293 129.788 204.645 129.172C204.997 128.556 205.173 127.808 205.173 126.928C205.173 126.048 205.004 125.307 204.667 124.706C204.33 124.09 203.882 123.628 203.325 123.32C202.768 123.012 202.166 122.858 201.521 122.858C200.876 122.858 200.274 123.012 199.717 123.32C199.174 123.628 198.742 124.09 198.419 124.706C198.096 125.307 197.935 126.048 197.935 126.928C197.935 128.233 198.265 129.245 198.925 129.964C199.6 130.668 200.443 131.02 201.455 131.02ZM212.954 122.682C213.38 122.095 213.959 121.619 214.692 121.252C215.44 120.871 216.269 120.68 217.178 120.68C218.249 120.68 219.217 120.937 220.082 121.45C220.948 121.963 221.63 122.697 222.128 123.65C222.627 124.589 222.876 125.667 222.876 126.884C222.876 128.101 222.627 129.194 222.128 130.162C221.63 131.115 220.94 131.863 220.06 132.406C219.195 132.934 218.234 133.198 217.178 133.198C216.24 133.198 215.404 133.015 214.67 132.648C213.952 132.281 213.38 131.812 212.954 131.24V133H210.446V116.72H212.954V122.682ZM220.324 126.884C220.324 126.048 220.148 125.329 219.796 124.728C219.459 124.112 219.004 123.65 218.432 123.342C217.875 123.019 217.274 122.858 216.628 122.858C215.998 122.858 215.396 123.019 214.824 123.342C214.267 123.665 213.812 124.134 213.46 124.75C213.123 125.366 212.954 126.092 212.954 126.928C212.954 127.764 213.123 128.497 213.46 129.128C213.812 129.744 214.267 130.213 214.824 130.536C215.396 130.859 215.998 131.02 216.628 131.02C217.274 131.02 217.875 130.859 218.432 130.536C219.004 130.199 219.459 129.715 219.796 129.084C220.148 128.453 220.324 127.72 220.324 126.884Z" fill="white"/>
<path d="M177.904 41.438C177.899 41.438 177.895 41.4375 177.891 41.4375H158.766V39.3281C158.766 35.8389 155.927 33 152.438 33H135.562C132.073 33 129.234 35.8389 129.234 39.3281V41.4375H110.109C108.935 41.4375 108 42.3999 108 43.5469V89.9531C108 93.4424 110.839 96.2812 114.328 96.2812H173.672C177.161 96.2812 180 93.4424 180 89.9531V43.5914C180 43.5886 180 43.5859 180 43.5831C179.919 42.1978 179.067 41.4457 177.904 41.438V41.438ZM133.453 39.3281C133.453 38.1652 134.4 37.2188 135.562 37.2188H152.438C153.6 37.2188 154.547 38.1652 154.547 39.3281V41.4375H133.453V39.3281ZM174.964 45.6562L168.413 65.3075C168.126 66.1705 167.322 66.75 166.413 66.75H154.547V64.6406C154.547 63.4755 153.603 62.5312 152.438 62.5312H135.562C134.397 62.5312 133.453 63.4755 133.453 64.6406V66.75H121.587C120.678 66.75 119.874 66.1705 119.587 65.3075L113.036 45.6562H174.964ZM150.328 66.75V70.9688H137.672V66.75H150.328ZM175.781 89.9531C175.781 91.116 174.835 92.0625 173.672 92.0625H114.328C113.165 92.0625 112.219 91.116 112.219 89.9531V56.5453L115.584 66.6418C116.447 69.2302 118.859 70.9688 121.587 70.9688H133.453V73.0781C133.453 74.2432 134.397 75.1875 135.562 75.1875H152.438C153.603 75.1875 154.547 74.2432 154.547 73.0781V70.9688H166.413C169.141 70.9688 171.553 69.2302 172.416 66.6418L175.781 56.5453V89.9531Z" fill="white"/>
</svg>
