<svg width="174" height="173" viewBox="0 0 174 173" fill="none" xmlns="http://www.w3.org/2000/svg">
<rect width="174" height="173" rx="60" fill="#A5B2B5"/>
<path d="M31.158 119.734V124.222H36.438V126.268H31.158V130.954H37.098V133H28.65V117.688H37.098V119.734H31.158ZM49.7131 123.98V126.092H40.6711V123.98H49.7131ZM56.0043 130.976H61.1743V133H53.4963V117.71H56.0043V130.976ZM74.6016 126.642C74.6016 127.097 74.5723 127.507 74.5136 127.874H65.2516C65.325 128.842 65.6843 129.619 66.3296 130.206C66.975 130.793 67.767 131.086 68.7056 131.086C70.055 131.086 71.0083 130.521 71.5656 129.392H74.2716C73.905 130.507 73.2376 131.423 72.2696 132.142C71.3163 132.846 70.1283 133.198 68.7056 133.198C67.547 133.198 66.5056 132.941 65.5816 132.428C64.6723 131.9 63.9536 131.167 63.4256 130.228C62.9123 129.275 62.6556 128.175 62.6556 126.928C62.6556 125.681 62.905 124.589 63.4036 123.65C63.917 122.697 64.6283 121.963 65.5376 121.45C66.4616 120.937 67.5176 120.68 68.7056 120.68C69.8496 120.68 70.869 120.929 71.7636 121.428C72.6583 121.927 73.355 122.631 73.8536 123.54C74.3523 124.435 74.6016 125.469 74.6016 126.642ZM71.9836 125.85C71.969 124.926 71.639 124.185 70.9936 123.628C70.3483 123.071 69.549 122.792 68.5956 122.792C67.7303 122.792 66.9896 123.071 66.3736 123.628C65.7576 124.171 65.391 124.911 65.2736 125.85H71.9836ZM76.4538 126.884C76.4538 125.667 76.7031 124.589 77.2018 123.65C77.7151 122.711 78.4044 121.985 79.2698 121.472C80.1498 120.944 81.1178 120.68 82.1738 120.68C83.1271 120.68 83.9558 120.871 84.6598 121.252C85.3784 121.619 85.9504 122.081 86.3758 122.638V120.878H88.9058V133H86.3758V131.196C85.9504 131.768 85.3711 132.245 84.6378 132.626C83.9044 133.007 83.0684 133.198 82.1298 133.198C81.0884 133.198 80.1351 132.934 79.2698 132.406C78.4044 131.863 77.7151 131.115 77.2018 130.162C76.7031 129.194 76.4538 128.101 76.4538 126.884ZM86.3758 126.928C86.3758 126.092 86.1998 125.366 85.8478 124.75C85.5104 124.134 85.0631 123.665 84.5058 123.342C83.9484 123.019 83.3471 122.858 82.7018 122.858C82.0564 122.858 81.4551 123.019 80.8978 123.342C80.3404 123.65 79.8858 124.112 79.5338 124.728C79.1964 125.329 79.0278 126.048 79.0278 126.884C79.0278 127.72 79.1964 128.453 79.5338 129.084C79.8858 129.715 80.3404 130.199 80.8978 130.536C81.4698 130.859 82.0711 131.02 82.7018 131.02C83.3471 131.02 83.9484 130.859 84.5058 130.536C85.0631 130.213 85.5104 129.744 85.8478 129.128C86.1998 128.497 86.3758 127.764 86.3758 126.928ZM94.9279 122.638C95.2946 122.022 95.7786 121.545 96.3799 121.208C96.9959 120.856 97.7219 120.68 98.5579 120.68V123.276H97.9199C96.9373 123.276 96.1893 123.525 95.6759 124.024C95.1773 124.523 94.9279 125.388 94.9279 126.62V133H92.4199V120.878H94.9279V122.638ZM107.199 120.68C108.153 120.68 109.003 120.878 109.751 121.274C110.514 121.67 111.108 122.257 111.533 123.034C111.959 123.811 112.171 124.75 112.171 125.85V133H109.685V126.224C109.685 125.139 109.414 124.31 108.871 123.738C108.329 123.151 107.588 122.858 106.649 122.858C105.711 122.858 104.963 123.151 104.405 123.738C103.863 124.31 103.591 125.139 103.591 126.224V133H101.083V120.878H103.591V122.264C104.002 121.765 104.523 121.377 105.153 121.098C105.799 120.819 106.481 120.68 107.199 120.68ZM116.866 119.272C116.412 119.272 116.03 119.118 115.722 118.81C115.414 118.502 115.26 118.121 115.26 117.666C115.26 117.211 115.414 116.83 115.722 116.522C116.03 116.214 116.412 116.06 116.866 116.06C117.306 116.06 117.68 116.214 117.988 116.522C118.296 116.83 118.45 117.211 118.45 117.666C118.45 118.121 118.296 118.502 117.988 118.81C117.68 119.118 117.306 119.272 116.866 119.272ZM118.098 120.878V133H115.59V120.878H118.098ZM127.727 120.68C128.681 120.68 129.531 120.878 130.279 121.274C131.042 121.67 131.636 122.257 132.061 123.034C132.487 123.811 132.699 124.75 132.699 125.85V133H130.213V126.224C130.213 125.139 129.942 124.31 129.399 123.738C128.857 123.151 128.116 122.858 127.177 122.858C126.239 122.858 125.491 123.151 124.933 123.738C124.391 124.31 124.119 125.139 124.119 126.224V133H121.611V120.878H124.119V122.264C124.53 121.765 125.051 121.377 125.681 121.098C126.327 120.819 127.009 120.68 127.727 120.68ZM141.002 120.68C141.941 120.68 142.77 120.871 143.488 121.252C144.222 121.619 144.794 122.081 145.204 122.638V120.878H147.734V133.198C147.734 134.313 147.5 135.303 147.03 136.168C146.561 137.048 145.879 137.737 144.984 138.236C144.104 138.735 143.048 138.984 141.816 138.984C140.174 138.984 138.81 138.595 137.724 137.818C136.639 137.055 136.023 136.014 135.876 134.694H138.362C138.553 135.325 138.956 135.831 139.572 136.212C140.203 136.608 140.951 136.806 141.816 136.806C142.828 136.806 143.642 136.498 144.258 135.882C144.889 135.266 145.204 134.371 145.204 133.198V131.174C144.779 131.746 144.2 132.23 143.466 132.626C142.748 133.007 141.926 133.198 141.002 133.198C139.946 133.198 138.978 132.934 138.098 132.406C137.233 131.863 136.544 131.115 136.03 130.162C135.532 129.194 135.282 128.101 135.282 126.884C135.282 125.667 135.532 124.589 136.03 123.65C136.544 122.711 137.233 121.985 138.098 121.472C138.978 120.944 139.946 120.68 141.002 120.68ZM145.204 126.928C145.204 126.092 145.028 125.366 144.676 124.75C144.339 124.134 143.892 123.665 143.334 123.342C142.777 123.019 142.176 122.858 141.53 122.858C140.885 122.858 140.284 123.019 139.726 123.342C139.169 123.65 138.714 124.112 138.362 124.728C138.025 125.329 137.856 126.048 137.856 126.884C137.856 127.72 138.025 128.453 138.362 129.084C138.714 129.715 139.169 130.199 139.726 130.536C140.298 130.859 140.9 131.02 141.53 131.02C142.176 131.02 142.777 130.859 143.334 130.536C143.892 130.213 144.339 129.744 144.676 129.128C145.028 128.497 145.204 127.764 145.204 126.928Z" fill="white"/>
<path d="M113.325 49.7059C113.325 47.1184 111.075 45.0371 108.263 45.0371H65.7939C62.9814 45.0371 60.7314 47.1184 60.7314 49.7059V77.8871C60.7314 80.6434 62.9814 82.8934 65.7377 82.8934H82.1627L81.7127 87.1684H77.5502C76.2002 87.1684 75.1314 88.2371 75.1314 89.5871V90.4309C75.1314 91.7809 76.2002 92.8496 77.5502 92.8496H96.5627C97.9127 92.8496 98.9814 91.7809 98.9814 90.4309V89.5871C98.9814 88.2371 97.9127 87.1684 96.5627 87.1684H92.4002L91.9502 82.8934H108.375C111.131 82.8934 113.381 80.6434 113.381 77.8871C113.269 69.7871 113.269 57.8621 113.325 49.7059V49.7059ZM62.7002 49.7059C62.7002 48.2434 64.1064 47.0059 65.7939 47.0059H108.206C109.894 47.0059 111.3 48.1871 111.3 49.7059V75.1871H62.7002V49.7059ZM96.9564 89.6434V90.4871C96.9564 90.7121 96.7314 90.9371 96.5064 90.9371H77.4939C77.2689 90.9371 77.0439 90.7121 77.0439 90.4871V89.6434C77.0439 89.4184 77.2689 89.1934 77.4939 89.1934H96.5064C96.7314 89.1934 96.9564 89.4184 96.9564 89.6434ZM90.3752 87.2246H83.6252L84.0752 82.9496H89.8689L90.3752 87.2246ZM111.3 77.9434C111.3 79.6309 109.95 80.9809 108.263 80.9809H65.6814C63.9939 80.9809 62.6439 79.6309 62.6439 77.9434V77.2121H111.3V77.9434Z" fill="white"/>
<path d="M101.626 58.0871L87.2256 54.7121C87.0568 54.6559 86.9443 54.6559 86.7756 54.7121L72.3756 58.0871C71.3631 58.3121 71.3631 59.7746 72.3756 59.9996L78.2818 61.3496V67.1996C78.2818 67.6496 78.5631 68.0434 79.0131 68.1559L81.7131 68.9434C85.2006 69.9559 88.9131 69.9559 92.3443 68.9434L95.0443 68.1559C95.4381 68.0434 95.7756 67.6496 95.7756 67.1996V61.4059L100.444 60.3371V64.7246C100.444 65.2871 100.894 65.7371 101.457 65.7371C102.019 65.7371 102.469 65.2871 102.469 64.7246V59.0996C102.357 58.5371 101.963 58.1434 101.626 58.0871V58.0871ZM93.7506 66.5246L91.7818 67.0871C88.6881 67.9871 85.3693 67.9871 82.2193 67.0871L80.2506 66.5246V61.8559L86.7756 63.3746C86.9443 63.4309 87.0568 63.4309 87.2256 63.3746L93.7506 61.8559V66.5246ZM87.0006 61.4059L76.9881 59.0434L87.0006 56.7371L97.0131 59.0996L87.0006 61.4059Z" fill="white"/>
</svg>
