<svg width="249" height="274" viewBox="0 0 249 274" fill="none" xmlns="http://www.w3.org/2000/svg">
<rect width="249" height="274" rx="60" fill="#339D44"/>
<path d="M36.1428 174.154C35.1162 174.154 34.1922 173.978 33.3708 173.626C32.5495 173.259 31.9042 172.746 31.4348 172.086C30.9655 171.426 30.7308 170.656 30.7308 169.776H33.4148C33.4735 170.436 33.7302 170.979 34.1848 171.404C34.6542 171.829 35.3068 172.042 36.1428 172.042C37.0082 172.042 37.6828 171.837 38.1668 171.426C38.6508 171.001 38.8928 170.458 38.8928 169.798C38.8928 169.285 38.7388 168.867 38.4308 168.544C38.1375 168.221 37.7635 167.972 37.3088 167.796C36.8688 167.62 36.2528 167.429 35.4608 167.224C34.4635 166.96 33.6495 166.696 33.0188 166.432C32.4028 166.153 31.8748 165.728 31.4348 165.156C30.9948 164.584 30.7748 163.821 30.7748 162.868C30.7748 161.988 30.9948 161.218 31.4348 160.558C31.8748 159.898 32.4908 159.392 33.2828 159.04C34.0748 158.688 34.9915 158.512 36.0328 158.512C37.5142 158.512 38.7242 158.886 39.6628 159.634C40.6162 160.367 41.1442 161.379 41.2468 162.67H38.4748C38.4308 162.113 38.1668 161.636 37.6828 161.24C37.1988 160.844 36.5608 160.646 35.7688 160.646C35.0502 160.646 34.4635 160.829 34.0088 161.196C33.5542 161.563 33.3268 162.091 33.3268 162.78C33.3268 163.249 33.4662 163.638 33.7448 163.946C34.0382 164.239 34.4048 164.474 34.8448 164.65C35.2848 164.826 35.8862 165.017 36.6488 165.222C37.6608 165.501 38.4822 165.779 39.1128 166.058C39.7582 166.337 40.3008 166.769 40.7408 167.356C41.1955 167.928 41.4228 168.698 41.4228 169.666C41.4228 170.443 41.2102 171.177 40.7848 171.866C40.3742 172.555 39.7655 173.113 38.9588 173.538C38.1668 173.949 37.2282 174.154 36.1428 174.154ZM55.7122 167.642C55.7122 168.097 55.6829 168.507 55.6242 168.874H46.3622C46.4355 169.842 46.7949 170.619 47.4402 171.206C48.0855 171.793 48.8775 172.086 49.8162 172.086C51.1655 172.086 52.1189 171.521 52.6762 170.392H55.3822C55.0155 171.507 54.3482 172.423 53.3802 173.142C52.4269 173.846 51.2389 174.198 49.8162 174.198C48.6575 174.198 47.6162 173.941 46.6922 173.428C45.7829 172.9 45.0642 172.167 44.5362 171.228C44.0229 170.275 43.7662 169.175 43.7662 167.928C43.7662 166.681 44.0155 165.589 44.5142 164.65C45.0275 163.697 45.7389 162.963 46.6482 162.45C47.5722 161.937 48.6282 161.68 49.8162 161.68C50.9602 161.68 51.9795 161.929 52.8742 162.428C53.7689 162.927 54.4655 163.631 54.9642 164.54C55.4629 165.435 55.7122 166.469 55.7122 167.642ZM53.0942 166.85C53.0795 165.926 52.7495 165.185 52.1042 164.628C51.4589 164.071 50.6595 163.792 49.7062 163.792C48.8409 163.792 48.1002 164.071 47.4842 164.628C46.8682 165.171 46.5015 165.911 46.3842 166.85H53.0942ZM60.9083 157.72V174H58.4003V157.72H60.9083ZM66.9291 157.72V174H64.4211V157.72H66.9291ZM71.7179 160.272C71.2632 160.272 70.8819 160.118 70.5739 159.81C70.2659 159.502 70.1119 159.121 70.1119 158.666C70.1119 158.211 70.2659 157.83 70.5739 157.522C70.8819 157.214 71.2632 157.06 71.7179 157.06C72.1579 157.06 72.5319 157.214 72.8399 157.522C73.1479 157.83 73.3019 158.211 73.3019 158.666C73.3019 159.121 73.1479 159.502 72.8399 159.81C72.5319 160.118 72.1579 160.272 71.7179 160.272ZM72.9499 161.878V174H70.4419V161.878H72.9499ZM82.5787 161.68C83.532 161.68 84.3827 161.878 85.1307 162.274C85.8933 162.67 86.4873 163.257 86.9127 164.034C87.338 164.811 87.5507 165.75 87.5507 166.85V174H85.0647V167.224C85.0647 166.139 84.7933 165.31 84.2507 164.738C83.708 164.151 82.9673 163.858 82.0287 163.858C81.09 163.858 80.342 164.151 79.7847 164.738C79.242 165.31 78.9707 166.139 78.9707 167.224V174H76.4627V161.878H78.9707V163.264C79.3813 162.765 79.902 162.377 80.5327 162.098C81.178 161.819 81.86 161.68 82.5787 161.68ZM95.8538 161.68C96.7924 161.68 97.6211 161.871 98.3398 162.252C99.0731 162.619 99.6451 163.081 100.056 163.638V161.878H102.586V174.198C102.586 175.313 102.351 176.303 101.882 177.168C101.412 178.048 100.73 178.737 99.8358 179.236C98.9558 179.735 97.8998 179.984 96.6678 179.984C95.0251 179.984 93.6611 179.595 92.5758 178.818C91.4904 178.055 90.8744 177.014 90.7278 175.694H93.2138C93.4044 176.325 93.8078 176.831 94.4238 177.212C95.0544 177.608 95.8024 177.806 96.6678 177.806C97.6798 177.806 98.4938 177.498 99.1098 176.882C99.7404 176.266 100.056 175.371 100.056 174.198V172.174C99.6304 172.746 99.0511 173.23 98.3178 173.626C97.5991 174.007 96.7778 174.198 95.8538 174.198C94.7978 174.198 93.8298 173.934 92.9498 173.406C92.0844 172.863 91.3951 172.115 90.8818 171.162C90.3831 170.194 90.1338 169.101 90.1338 167.884C90.1338 166.667 90.3831 165.589 90.8818 164.65C91.3951 163.711 92.0844 162.985 92.9498 162.472C93.8298 161.944 94.7978 161.68 95.8538 161.68ZM100.056 167.928C100.056 167.092 99.8798 166.366 99.5278 165.75C99.1904 165.134 98.7431 164.665 98.1858 164.342C97.6284 164.019 97.0271 163.858 96.3818 163.858C95.7364 163.858 95.1351 164.019 94.5778 164.342C94.0204 164.65 93.5658 165.112 93.2138 165.728C92.8764 166.329 92.7078 167.048 92.7078 167.884C92.7078 168.72 92.8764 169.453 93.2138 170.084C93.5658 170.715 94.0204 171.199 94.5778 171.536C95.1498 171.859 95.7511 172.02 96.3818 172.02C97.0271 172.02 97.6284 171.859 98.1858 171.536C98.7431 171.213 99.1904 170.744 99.5278 170.128C99.8798 169.497 100.056 168.764 100.056 167.928ZM123.849 174L121.957 172.108C121.223 172.841 120.424 173.391 119.559 173.758C118.693 174.11 117.725 174.286 116.655 174.286C115.569 174.286 114.609 174.095 113.773 173.714C112.937 173.333 112.291 172.79 111.837 172.086C111.382 171.367 111.155 170.539 111.155 169.6C111.155 168.544 111.455 167.605 112.057 166.784C112.658 165.948 113.553 165.288 114.741 164.804C114.315 164.291 114.015 163.814 113.839 163.374C113.663 162.919 113.575 162.421 113.575 161.878C113.575 161.203 113.743 160.602 114.081 160.074C114.433 159.546 114.931 159.128 115.577 158.82C116.222 158.512 116.97 158.358 117.821 158.358C118.686 158.358 119.419 158.527 120.021 158.864C120.637 159.187 121.091 159.634 121.385 160.206C121.693 160.778 121.817 161.416 121.759 162.12H119.251C119.265 161.577 119.133 161.159 118.855 160.866C118.576 160.558 118.195 160.404 117.711 160.404C117.227 160.404 116.831 160.551 116.523 160.844C116.229 161.123 116.083 161.467 116.083 161.878C116.083 162.274 116.193 162.67 116.413 163.066C116.647 163.447 117.051 163.946 117.623 164.562L121.671 168.588L123.233 166.014H125.939L123.959 169.402L123.409 170.304L127.127 174H123.849ZM116.655 172.152C118.033 172.152 119.251 171.587 120.307 170.458L116.259 166.388C114.528 167.077 113.663 168.119 113.663 169.512C113.663 170.26 113.941 170.891 114.499 171.404C115.056 171.903 115.775 172.152 116.655 172.152ZM142.868 174L139.348 167.884H137.434V174H134.926V158.71H140.206C141.379 158.71 142.369 158.915 143.176 159.326C143.997 159.737 144.606 160.287 145.002 160.976C145.413 161.665 145.618 162.435 145.618 163.286C145.618 164.283 145.325 165.193 144.738 166.014C144.166 166.821 143.279 167.371 142.076 167.664L145.86 174H142.868ZM137.434 165.882H140.206C141.145 165.882 141.849 165.647 142.318 165.178C142.802 164.709 143.044 164.078 143.044 163.286C143.044 162.494 142.809 161.878 142.34 161.438C141.871 160.983 141.159 160.756 140.206 160.756H137.434V165.882ZM160.156 167.642C160.156 168.097 160.127 168.507 160.068 168.874H150.806C150.88 169.842 151.239 170.619 151.884 171.206C152.53 171.793 153.322 172.086 154.26 172.086C155.61 172.086 156.563 171.521 157.12 170.392H159.826C159.46 171.507 158.792 172.423 157.824 173.142C156.871 173.846 155.683 174.198 154.26 174.198C153.102 174.198 152.06 173.941 151.136 173.428C150.227 172.9 149.508 172.167 148.98 171.228C148.467 170.275 148.21 169.175 148.21 167.928C148.21 166.681 148.46 165.589 148.958 164.65C149.472 163.697 150.183 162.963 151.092 162.45C152.016 161.937 153.072 161.68 154.26 161.68C155.404 161.68 156.424 161.929 157.318 162.428C158.213 162.927 158.91 163.631 159.408 164.54C159.907 165.435 160.156 166.469 160.156 167.642ZM157.538 166.85C157.524 165.926 157.194 165.185 156.548 164.628C155.903 164.071 155.104 163.792 154.15 163.792C153.285 163.792 152.544 164.071 151.928 164.628C151.312 165.171 150.946 165.911 150.828 166.85H157.538ZM168.96 161.68C169.914 161.68 170.764 161.878 171.512 162.274C172.275 162.67 172.869 163.257 173.294 164.034C173.72 164.811 173.932 165.75 173.932 166.85V174H171.446V167.224C171.446 166.139 171.175 165.31 170.632 164.738C170.09 164.151 169.349 163.858 168.41 163.858C167.472 163.858 166.724 164.151 166.166 164.738C165.624 165.31 165.352 166.139 165.352 167.224V174H162.844V161.878H165.352V163.264C165.763 162.765 166.284 162.377 166.914 162.098C167.56 161.819 168.242 161.68 168.96 161.68ZM180.278 163.924V170.634C180.278 171.089 180.38 171.419 180.586 171.624C180.806 171.815 181.172 171.91 181.686 171.91H183.226V174H181.246C180.116 174 179.251 173.736 178.65 173.208C178.048 172.68 177.748 171.822 177.748 170.634V163.924H176.318V161.878H177.748V158.864H180.278V161.878H183.226V163.924H180.278ZM187.033 160.272C186.578 160.272 186.197 160.118 185.889 159.81C185.581 159.502 185.427 159.121 185.427 158.666C185.427 158.211 185.581 157.83 185.889 157.522C186.197 157.214 186.578 157.06 187.033 157.06C187.473 157.06 187.847 157.214 188.155 157.522C188.463 157.83 188.617 158.211 188.617 158.666C188.617 159.121 188.463 159.502 188.155 159.81C187.847 160.118 187.473 160.272 187.033 160.272ZM188.265 161.878V174H185.757V161.878H188.265ZM197.894 161.68C198.847 161.68 199.698 161.878 200.446 162.274C201.209 162.67 201.803 163.257 202.228 164.034C202.653 164.811 202.866 165.75 202.866 166.85V174H200.38V167.224C200.38 166.139 200.109 165.31 199.566 164.738C199.023 164.151 198.283 163.858 197.344 163.858C196.405 163.858 195.657 164.151 195.1 164.738C194.557 165.31 194.286 166.139 194.286 167.224V174H191.778V161.878H194.286V163.264C194.697 162.765 195.217 162.377 195.848 162.098C196.493 161.819 197.175 161.68 197.894 161.68ZM211.169 161.68C212.108 161.68 212.936 161.871 213.655 162.252C214.388 162.619 214.96 163.081 215.371 163.638V161.878H217.901V174.198C217.901 175.313 217.666 176.303 217.197 177.168C216.728 178.048 216.046 178.737 215.151 179.236C214.271 179.735 213.215 179.984 211.983 179.984C210.34 179.984 208.976 179.595 207.891 178.818C206.806 178.055 206.19 177.014 206.043 175.694H208.529C208.72 176.325 209.123 176.831 209.739 177.212C210.37 177.608 211.118 177.806 211.983 177.806C212.995 177.806 213.809 177.498 214.425 176.882C215.056 176.266 215.371 175.371 215.371 174.198V172.174C214.946 172.746 214.366 173.23 213.633 173.626C212.914 174.007 212.093 174.198 211.169 174.198C210.113 174.198 209.145 173.934 208.265 173.406C207.4 172.863 206.71 172.115 206.197 171.162C205.698 170.194 205.449 169.101 205.449 167.884C205.449 166.667 205.698 165.589 206.197 164.65C206.71 163.711 207.4 162.985 208.265 162.472C209.145 161.944 210.113 161.68 211.169 161.68ZM215.371 167.928C215.371 167.092 215.195 166.366 214.843 165.75C214.506 165.134 214.058 164.665 213.501 164.342C212.944 164.019 212.342 163.858 211.697 163.858C211.052 163.858 210.45 164.019 209.893 164.342C209.336 164.65 208.881 165.112 208.529 165.728C208.192 166.329 208.023 167.048 208.023 167.884C208.023 168.72 208.192 169.453 208.529 170.084C208.881 170.715 209.336 171.199 209.893 171.536C210.465 171.859 211.066 172.02 211.697 172.02C212.342 172.02 212.944 171.859 213.501 171.536C214.058 171.213 214.506 170.744 214.843 170.128C215.195 169.497 215.371 168.764 215.371 167.928ZM61.6143 190.734V195.222H66.8943V197.268H61.6143V201.954H67.5543V204H59.1063V188.688H67.5543V190.734H61.6143ZM70.0274 197.884C70.0274 196.667 70.2767 195.589 70.7754 194.65C71.2887 193.711 71.9781 192.985 72.8434 192.472C73.7234 191.944 74.6987 191.68 75.7694 191.68C76.7081 191.68 77.5367 191.871 78.2554 192.252C78.9887 192.633 79.5534 193.095 79.9494 193.638V191.878H82.4794V209.764H79.9494V202.24C79.5534 202.783 78.9814 203.245 78.2334 203.626C77.4854 204.007 76.6347 204.198 75.6814 204.198C74.6401 204.198 73.6867 203.934 72.8214 203.406C71.9707 202.863 71.2887 202.115 70.7754 201.162C70.2767 200.194 70.0274 199.101 70.0274 197.884ZM79.9494 197.928C79.9494 197.092 79.7734 196.366 79.4214 195.75C79.0841 195.134 78.6367 194.665 78.0794 194.342C77.5221 194.019 76.9207 193.858 76.2754 193.858C75.6301 193.858 75.0287 194.019 74.4714 194.342C73.9141 194.65 73.4594 195.112 73.1074 195.728C72.7701 196.329 72.6014 197.048 72.6014 197.884C72.6014 198.72 72.7701 199.453 73.1074 200.084C73.4594 200.715 73.9141 201.199 74.4714 201.536C75.0434 201.859 75.6447 202.02 76.2754 202.02C76.9207 202.02 77.5221 201.859 78.0794 201.536C78.6367 201.213 79.0841 200.744 79.4214 200.128C79.7734 199.497 79.9494 198.764 79.9494 197.928ZM96.9716 191.878V204H94.4636V202.57C94.0676 203.069 93.5469 203.465 92.9016 203.758C92.2709 204.037 91.5962 204.176 90.8776 204.176C89.9242 204.176 89.0662 203.978 88.3036 203.582C87.5556 203.186 86.9616 202.599 86.5216 201.822C86.0962 201.045 85.8836 200.106 85.8836 199.006V191.878H88.3696V198.632C88.3696 199.717 88.6409 200.553 89.1836 201.14C89.7262 201.712 90.4669 201.998 91.4056 201.998C92.3442 201.998 93.0849 201.712 93.6276 201.14C94.1849 200.553 94.4636 199.717 94.4636 198.632V191.878H96.9716ZM101.777 190.272C101.322 190.272 100.941 190.118 100.633 189.81C100.325 189.502 100.171 189.121 100.171 188.666C100.171 188.211 100.325 187.83 100.633 187.522C100.941 187.214 101.322 187.06 101.777 187.06C102.217 187.06 102.591 187.214 102.899 187.522C103.207 187.83 103.361 188.211 103.361 188.666C103.361 189.121 103.207 189.502 102.899 189.81C102.591 190.118 102.217 190.272 101.777 190.272ZM103.009 191.878V204H100.501V191.878H103.009ZM109.029 193.66C109.455 193.103 110.034 192.633 110.767 192.252C111.501 191.871 112.329 191.68 113.253 191.68C114.309 191.68 115.27 191.944 116.135 192.472C117.015 192.985 117.705 193.711 118.203 194.65C118.702 195.589 118.951 196.667 118.951 197.884C118.951 199.101 118.702 200.194 118.203 201.162C117.705 202.115 117.015 202.863 116.135 203.406C115.27 203.934 114.309 204.198 113.253 204.198C112.329 204.198 111.508 204.015 110.789 203.648C110.071 203.267 109.484 202.797 109.029 202.24V209.764H106.521V191.878H109.029V193.66ZM116.399 197.884C116.399 197.048 116.223 196.329 115.871 195.728C115.534 195.112 115.079 194.65 114.507 194.342C113.95 194.019 113.349 193.858 112.703 193.858C112.073 193.858 111.471 194.019 110.899 194.342C110.342 194.665 109.887 195.134 109.535 195.75C109.198 196.366 109.029 197.092 109.029 197.928C109.029 198.764 109.198 199.497 109.535 200.128C109.887 200.744 110.342 201.213 110.899 201.536C111.471 201.859 112.073 202.02 112.703 202.02C113.349 202.02 113.95 201.859 114.507 201.536C115.079 201.199 115.534 200.715 115.871 200.084C116.223 199.453 116.399 198.72 116.399 197.884ZM136.326 191.68C137.279 191.68 138.13 191.878 138.878 192.274C139.64 192.67 140.234 193.257 140.66 194.034C141.1 194.811 141.32 195.75 141.32 196.85V204H138.834V197.224C138.834 196.139 138.562 195.31 138.02 194.738C137.477 194.151 136.736 193.858 135.798 193.858C134.859 193.858 134.111 194.151 133.554 194.738C133.011 195.31 132.74 196.139 132.74 197.224V204H130.254V197.224C130.254 196.139 129.982 195.31 129.44 194.738C128.897 194.151 128.156 193.858 127.218 193.858C126.279 193.858 125.531 194.151 124.974 194.738C124.431 195.31 124.16 196.139 124.16 197.224V204H121.652V191.878H124.16V193.264C124.57 192.765 125.091 192.377 125.722 192.098C126.352 191.819 127.027 191.68 127.746 191.68C128.714 191.68 129.579 191.885 130.342 192.296C131.104 192.707 131.691 193.301 132.102 194.078C132.468 193.345 133.04 192.765 133.818 192.34C134.595 191.9 135.431 191.68 136.326 191.68ZM155.841 197.642C155.841 198.097 155.812 198.507 155.753 198.874H146.491C146.564 199.842 146.924 200.619 147.569 201.206C148.214 201.793 149.006 202.086 149.945 202.086C151.294 202.086 152.248 201.521 152.805 200.392H155.511C155.144 201.507 154.477 202.423 153.509 203.142C152.556 203.846 151.368 204.198 149.945 204.198C148.786 204.198 147.745 203.941 146.821 203.428C145.912 202.9 145.193 202.167 144.665 201.228C144.152 200.275 143.895 199.175 143.895 197.928C143.895 196.681 144.144 195.589 144.643 194.65C145.156 193.697 145.868 192.963 146.777 192.45C147.701 191.937 148.757 191.68 149.945 191.68C151.089 191.68 152.108 191.929 153.003 192.428C153.898 192.927 154.594 193.631 155.093 194.54C155.592 195.435 155.841 196.469 155.841 197.642ZM153.223 196.85C153.208 195.926 152.878 195.185 152.233 194.628C151.588 194.071 150.788 193.792 149.835 193.792C148.97 193.792 148.229 194.071 147.613 194.628C146.997 195.171 146.63 195.911 146.513 196.85H153.223ZM164.645 191.68C165.598 191.68 166.449 191.878 167.197 192.274C167.96 192.67 168.554 193.257 168.979 194.034C169.404 194.811 169.617 195.75 169.617 196.85V204H167.131V197.224C167.131 196.139 166.86 195.31 166.317 194.738C165.774 194.151 165.034 193.858 164.095 193.858C163.156 193.858 162.408 194.151 161.851 194.738C161.308 195.31 161.037 196.139 161.037 197.224V204H158.529V191.878H161.037V193.264C161.448 192.765 161.968 192.377 162.599 192.098C163.244 191.819 163.926 191.68 164.645 191.68ZM175.962 193.924V200.634C175.962 201.089 176.065 201.419 176.27 201.624C176.49 201.815 176.857 201.91 177.37 201.91H178.91V204H176.93C175.801 204 174.936 203.736 174.334 203.208C173.733 202.68 173.432 201.822 173.432 200.634V193.924H172.002V191.878H173.432V188.864H175.962V191.878H178.91V193.924H175.962ZM185.842 204.198C184.888 204.198 184.03 204.029 183.268 203.692C182.52 203.34 181.926 202.871 181.486 202.284C181.046 201.683 180.811 201.015 180.782 200.282H183.378C183.422 200.795 183.664 201.228 184.104 201.58C184.558 201.917 185.123 202.086 185.798 202.086C186.502 202.086 187.044 201.954 187.426 201.69C187.822 201.411 188.02 201.059 188.02 200.634C188.02 200.179 187.8 199.842 187.36 199.622C186.934 199.402 186.252 199.16 185.314 198.896C184.404 198.647 183.664 198.405 183.092 198.17C182.52 197.935 182.021 197.576 181.596 197.092C181.185 196.608 180.98 195.97 180.98 195.178C180.98 194.533 181.17 193.946 181.552 193.418C181.933 192.875 182.476 192.45 183.18 192.142C183.898 191.834 184.72 191.68 185.644 191.68C187.022 191.68 188.13 192.032 188.966 192.736C189.816 193.425 190.271 194.371 190.33 195.574H187.822C187.778 195.031 187.558 194.599 187.162 194.276C186.766 193.953 186.23 193.792 185.556 193.792C184.896 193.792 184.39 193.917 184.038 194.166C183.686 194.415 183.51 194.745 183.51 195.156C183.51 195.479 183.627 195.75 183.862 195.97C184.096 196.19 184.382 196.366 184.72 196.498C185.057 196.615 185.556 196.769 186.216 196.96C187.096 197.195 187.814 197.437 188.372 197.686C188.944 197.921 189.435 198.273 189.846 198.742C190.256 199.211 190.469 199.835 190.484 200.612C190.484 201.301 190.293 201.917 189.912 202.46C189.53 203.003 188.988 203.428 188.284 203.736C187.594 204.044 186.78 204.198 185.842 204.198Z" fill="white"/>
<path d="M151.925 112.561L142.589 103.224C142.389 103.024 142.119 102.906 141.836 102.896C141.552 102.885 141.275 102.982 141.06 103.167L136.904 106.743L133.552 103.391C133.447 103.287 133.323 103.204 133.187 103.148C133.05 103.091 132.904 103.062 132.756 103.062C132.609 103.062 132.462 103.091 132.326 103.148C132.189 103.204 132.065 103.287 131.961 103.391L131.958 103.395L128.267 99.7038L152.36 74.6117C155.723 71.0922 151.354 66.9068 147.99 70.4336L123.992 95.428L106.977 78.4135C107.352 77.3985 107.427 76.2969 107.193 75.2403C106.959 74.1837 106.426 73.2168 105.658 72.4551L102.243 69.0405C102.138 68.936 102.014 68.8532 101.878 68.7966C101.741 68.74 101.595 68.7109 101.447 68.7109C101.299 68.7109 101.153 68.74 101.017 68.7966C100.88 68.8532 100.756 68.936 100.652 69.0405L93.0464 76.6464C92.9419 76.7508 92.859 76.8748 92.8025 77.0113C92.7459 77.1478 92.7168 77.294 92.7168 77.4418C92.7168 77.5895 92.7459 77.7358 92.8025 77.8723C92.859 78.0087 92.9419 78.1327 93.0464 78.2372L96.4609 81.6517C97.2237 82.4186 98.1905 82.9505 99.2466 83.1842C100.303 83.418 101.404 83.3438 102.419 82.9704L119.527 100.078L109.026 111.014L99.0317 103.293C98.7956 103.11 98.4967 103.029 98.2008 103.067C97.9049 103.105 97.6361 103.259 97.4536 103.495L95.1332 106.498C95.043 106.615 94.9766 106.749 94.9379 106.891C94.8992 107.034 94.889 107.183 94.9078 107.329C94.9267 107.476 94.9741 107.617 95.0476 107.745C95.1211 107.873 95.219 107.986 95.3359 108.076L96.0451 108.624V113.26C96.0451 113.559 96.1636 113.845 96.3746 114.056C96.5856 114.267 96.8717 114.385 97.1701 114.385C97.4685 114.385 97.7546 114.267 97.9656 114.056C98.1766 113.845 98.2951 113.559 98.2951 113.26V110.362L99.2355 111.089V115.621C99.2355 115.92 99.3541 116.206 99.565 116.417C99.776 116.628 100.062 116.746 100.361 116.746C100.659 116.746 100.945 116.628 101.156 116.417C101.367 116.206 101.486 115.92 101.486 115.621V112.827L102.426 113.554V118.036C102.426 118.335 102.544 118.621 102.755 118.832C102.966 119.043 103.253 119.161 103.551 119.161C103.849 119.161 104.135 119.043 104.346 118.832C104.557 118.621 104.676 118.335 104.676 118.036V115.292L105.616 116.018V120.451C105.616 120.749 105.735 121.036 105.946 121.247C106.157 121.458 106.443 121.576 106.741 121.576C107.04 121.576 107.326 121.458 107.537 121.247C107.748 121.036 107.866 120.749 107.866 120.451V117.757L108.807 118.483V122.92C108.807 123.218 108.925 123.504 109.136 123.715C109.347 123.926 109.633 124.045 109.932 124.045C110.23 124.045 110.516 123.926 110.727 123.715C110.938 123.504 111.057 123.218 111.057 122.92V120.221L111.997 120.948V125.334C111.997 125.633 112.116 125.919 112.327 126.13C112.538 126.341 112.824 126.459 113.122 126.459C113.421 126.459 113.707 126.341 113.918 126.13C114.129 125.919 114.247 125.633 114.247 125.334V122.686L115.188 123.413V127.749C115.188 128.048 115.306 128.334 115.517 128.545C115.728 128.756 116.014 128.874 116.313 128.874C116.611 128.874 116.897 128.756 117.108 128.545C117.319 128.334 117.438 128.048 117.438 127.749V125.151L118.378 125.877V130.164C118.378 130.462 118.496 130.749 118.707 130.96C118.918 131.171 119.204 131.289 119.503 131.289C119.801 131.289 120.087 131.171 120.298 130.96C120.509 130.749 120.628 130.462 120.628 130.164V127.615C121.988 128.666 122.77 126.859 124.612 124.475C124.794 124.239 124.875 123.94 124.837 123.645C124.799 123.349 124.645 123.08 124.409 122.898L113.838 114.731L123.802 104.354L127.401 107.952L127.397 107.955C127.186 108.166 127.068 108.452 127.068 108.751C127.068 109.049 127.186 109.335 127.397 109.546L130.75 112.898L127.173 117.054C126.988 117.269 126.891 117.546 126.902 117.83C126.912 118.114 127.03 118.383 127.23 118.583L136.567 127.92C139.815 131.168 149.205 132.965 153.087 129.082C156.972 125.197 155.172 115.808 151.925 112.561V112.561ZM101.447 71.4268L102.645 72.6247L96.6301 78.6393L95.4326 77.4418L101.447 71.4268ZM98.2382 80.2129L104.22 74.2319C104.799 74.8871 105.106 75.7394 105.078 76.6138C105.049 77.4883 104.687 78.3187 104.066 78.9348L102.941 80.0609C102.322 80.6758 101.492 81.0333 100.62 81.0615C99.7471 81.0897 98.8963 80.7865 98.2382 80.2129ZM104.394 81.7645C105.016 81.1809 105.213 80.9812 105.77 80.3884L122.433 97.0511L121.085 98.4548L104.394 81.7645ZM121.198 125.214C118.076 122.801 99.8141 108.693 97.6019 106.984L98.5467 105.76L122.143 123.99L121.198 125.214ZM110.817 112.397L149.615 71.9893C149.972 71.6163 150.617 70.9449 151.162 71.4894C151.707 72.0348 151.096 72.6784 150.735 73.056L112.048 113.348L110.817 112.397ZM125.361 102.731L126.709 101.327L130.367 104.986L128.991 106.361L125.361 102.731ZM132.756 105.778L140.575 113.597C142.188 115.209 139.183 118.147 137.603 116.57L129.784 108.751L132.756 105.778ZM151.496 127.491C148.633 130.353 140.678 128.849 138.158 126.329L129.559 117.731L132.345 114.494L136.012 118.16C139.712 121.864 145.869 115.711 142.166 112.006L138.499 108.339L141.736 105.554L150.335 114.151C152.855 116.673 154.359 124.628 151.496 127.491V127.491Z" fill="white"/>
</svg>
