<svg width="249" height="274" viewBox="0 0 249 274" fill="none" xmlns="http://www.w3.org/2000/svg">
<rect width="249" height="274" rx="60" fill="#F3F0E6"/>
<path d="M44.86 170.71V186H42.352V179.312H35.158V186H32.65V170.71H35.158V177.266H42.352V170.71H44.86ZM47.5457 179.884C47.5457 178.667 47.7951 177.589 48.2937 176.65C48.8071 175.711 49.4964 174.985 50.3617 174.472C51.2417 173.944 52.2097 173.68 53.2657 173.68C54.2191 173.68 55.0477 173.871 55.7517 174.252C56.4704 174.619 57.0424 175.081 57.4677 175.638V173.878H59.9977V186H57.4677V184.196C57.0424 184.768 56.4631 185.245 55.7297 185.626C54.9964 186.007 54.1604 186.198 53.2217 186.198C52.1804 186.198 51.2271 185.934 50.3617 185.406C49.4964 184.863 48.8071 184.115 48.2937 183.162C47.7951 182.194 47.5457 181.101 47.5457 179.884ZM57.4677 179.928C57.4677 179.092 57.2917 178.366 56.9397 177.75C56.6024 177.134 56.1551 176.665 55.5977 176.342C55.0404 176.019 54.4391 175.858 53.7937 175.858C53.1484 175.858 52.5471 176.019 51.9897 176.342C51.4324 176.65 50.9777 177.112 50.6257 177.728C50.2884 178.329 50.1197 179.048 50.1197 179.884C50.1197 180.72 50.2884 181.453 50.6257 182.084C50.9777 182.715 51.4324 183.199 51.9897 183.536C52.5617 183.859 53.1631 184.02 53.7937 184.02C54.4391 184.02 55.0404 183.859 55.5977 183.536C56.1551 183.213 56.6024 182.744 56.9397 182.128C57.2917 181.497 57.4677 180.764 57.4677 179.928ZM66.0199 175.638C66.3865 175.022 66.8705 174.545 67.4719 174.208C68.0879 173.856 68.8139 173.68 69.6499 173.68V176.276H69.0119C68.0292 176.276 67.2812 176.525 66.7679 177.024C66.2692 177.523 66.0199 178.388 66.0199 179.62V186H63.5119V173.878H66.0199V175.638ZM71.3392 179.884C71.3392 178.667 71.5886 177.589 72.0872 176.65C72.6006 175.711 73.2899 174.985 74.1552 174.472C75.0352 173.944 76.0106 173.68 77.0812 173.68C77.8732 173.68 78.6506 173.856 79.4132 174.208C80.1906 174.545 80.8066 175 81.2612 175.572V169.72H83.7912V186H81.2612V184.174C80.8506 184.761 80.2786 185.245 79.5452 185.626C78.8266 186.007 77.9979 186.198 77.0592 186.198C76.0032 186.198 75.0352 185.934 74.1552 185.406C73.2899 184.863 72.6006 184.115 72.0872 183.162C71.5886 182.194 71.3392 181.101 71.3392 179.884ZM81.2612 179.928C81.2612 179.092 81.0852 178.366 80.7332 177.75C80.3959 177.134 79.9486 176.665 79.3912 176.342C78.8339 176.019 78.2326 175.858 77.5872 175.858C76.9419 175.858 76.3406 176.019 75.7832 176.342C75.2259 176.65 74.7712 177.112 74.4192 177.728C74.0819 178.329 73.9132 179.048 73.9132 179.884C73.9132 180.72 74.0819 181.453 74.4192 182.084C74.7712 182.715 75.2259 183.199 75.7832 183.536C76.3552 183.859 76.9566 184.02 77.5872 184.02C78.2326 184.02 78.8339 183.859 79.3912 183.536C79.9486 183.213 80.3959 182.744 80.7332 182.128C81.0852 181.497 81.2612 180.764 81.2612 179.928ZM103.585 173.878L99.8234 186H97.1834L94.7414 177.046L92.2994 186H89.6594L85.8754 173.878H88.4274L90.9574 183.624L93.5314 173.878H96.1494L98.6134 183.58L101.121 173.878H103.585ZM104.844 179.884C104.844 178.667 105.093 177.589 105.592 176.65C106.105 175.711 106.794 174.985 107.66 174.472C108.54 173.944 109.508 173.68 110.564 173.68C111.517 173.68 112.346 173.871 113.05 174.252C113.768 174.619 114.34 175.081 114.766 175.638V173.878H117.296V186H114.766V184.196C114.34 184.768 113.761 185.245 113.028 185.626C112.294 186.007 111.458 186.198 110.52 186.198C109.478 186.198 108.525 185.934 107.66 185.406C106.794 184.863 106.105 184.115 105.592 183.162C105.093 182.194 104.844 181.101 104.844 179.884ZM114.766 179.928C114.766 179.092 114.59 178.366 114.238 177.75C113.9 177.134 113.453 176.665 112.896 176.342C112.338 176.019 111.737 175.858 111.092 175.858C110.446 175.858 109.845 176.019 109.288 176.342C108.73 176.65 108.276 177.112 107.924 177.728C107.586 178.329 107.418 179.048 107.418 179.884C107.418 180.72 107.586 181.453 107.924 182.084C108.276 182.715 108.73 183.199 109.288 183.536C109.86 183.859 110.461 184.02 111.092 184.02C111.737 184.02 112.338 183.859 112.896 183.536C113.453 183.213 113.9 182.744 114.238 182.128C114.59 181.497 114.766 180.764 114.766 179.928ZM123.318 175.638C123.685 175.022 124.169 174.545 124.77 174.208C125.386 173.856 126.112 173.68 126.948 173.68V176.276H126.31C125.327 176.276 124.579 176.525 124.066 177.024C123.567 177.523 123.318 178.388 123.318 179.62V186H120.81V173.878H123.318V175.638ZM140.583 179.642C140.583 180.097 140.554 180.507 140.495 180.874H131.233C131.307 181.842 131.666 182.619 132.311 183.206C132.957 183.793 133.749 184.086 134.687 184.086C136.037 184.086 136.99 183.521 137.547 182.392H140.253C139.887 183.507 139.219 184.423 138.251 185.142C137.298 185.846 136.11 186.198 134.687 186.198C133.529 186.198 132.487 185.941 131.563 185.428C130.654 184.9 129.935 184.167 129.407 183.228C128.894 182.275 128.637 181.175 128.637 179.928C128.637 178.681 128.887 177.589 129.385 176.65C129.899 175.697 130.61 174.963 131.519 174.45C132.443 173.937 133.499 173.68 134.687 173.68C135.831 173.68 136.851 173.929 137.745 174.428C138.64 174.927 139.337 175.631 139.835 176.54C140.334 177.435 140.583 178.469 140.583 179.642ZM137.965 178.85C137.951 177.926 137.621 177.185 136.975 176.628C136.33 176.071 135.531 175.792 134.577 175.792C133.712 175.792 132.971 176.071 132.355 176.628C131.739 177.171 131.373 177.911 131.255 178.85H137.965ZM154.244 186.154C153.218 186.154 152.294 185.978 151.472 185.626C150.651 185.259 150.006 184.746 149.536 184.086C149.067 183.426 148.832 182.656 148.832 181.776H151.516C151.575 182.436 151.832 182.979 152.286 183.404C152.756 183.829 153.408 184.042 154.244 184.042C155.11 184.042 155.784 183.837 156.268 183.426C156.752 183.001 156.994 182.458 156.994 181.798C156.994 181.285 156.84 180.867 156.532 180.544C156.239 180.221 155.865 179.972 155.41 179.796C154.97 179.62 154.354 179.429 153.562 179.224C152.565 178.96 151.751 178.696 151.12 178.432C150.504 178.153 149.976 177.728 149.536 177.156C149.096 176.584 148.876 175.821 148.876 174.868C148.876 173.988 149.096 173.218 149.536 172.558C149.976 171.898 150.592 171.392 151.384 171.04C152.176 170.688 153.093 170.512 154.134 170.512C155.616 170.512 156.826 170.886 157.764 171.634C158.718 172.367 159.246 173.379 159.348 174.67H156.576C156.532 174.113 156.268 173.636 155.784 173.24C155.3 172.844 154.662 172.646 153.87 172.646C153.152 172.646 152.565 172.829 152.11 173.196C151.656 173.563 151.428 174.091 151.428 174.78C151.428 175.249 151.568 175.638 151.846 175.946C152.14 176.239 152.506 176.474 152.946 176.65C153.386 176.826 153.988 177.017 154.75 177.222C155.762 177.501 156.584 177.779 157.214 178.058C157.86 178.337 158.402 178.769 158.842 179.356C159.297 179.928 159.524 180.698 159.524 181.666C159.524 182.443 159.312 183.177 158.886 183.866C158.476 184.555 157.867 185.113 157.06 185.538C156.268 185.949 155.33 186.154 154.244 186.154ZM165.63 175.924V182.634C165.63 183.089 165.732 183.419 165.938 183.624C166.158 183.815 166.524 183.91 167.038 183.91H168.578V186H166.598C165.468 186 164.603 185.736 164.002 185.208C163.4 184.68 163.1 183.822 163.1 182.634V175.924H161.67V173.878H163.1V170.864H165.63V173.878H168.578V175.924H165.63ZM176.367 186.198C175.223 186.198 174.189 185.941 173.265 185.428C172.341 184.9 171.615 184.167 171.087 183.228C170.559 182.275 170.295 181.175 170.295 179.928C170.295 178.696 170.566 177.603 171.109 176.65C171.652 175.697 172.392 174.963 173.331 174.45C174.27 173.937 175.318 173.68 176.477 173.68C177.636 173.68 178.684 173.937 179.623 174.45C180.562 174.963 181.302 175.697 181.845 176.65C182.388 177.603 182.659 178.696 182.659 179.928C182.659 181.16 182.38 182.253 181.823 183.206C181.266 184.159 180.503 184.9 179.535 185.428C178.582 185.941 177.526 186.198 176.367 186.198ZM176.367 184.02C177.012 184.02 177.614 183.866 178.171 183.558C178.743 183.25 179.205 182.788 179.557 182.172C179.909 181.556 180.085 180.808 180.085 179.928C180.085 179.048 179.916 178.307 179.579 177.706C179.242 177.09 178.794 176.628 178.237 176.32C177.68 176.012 177.078 175.858 176.433 175.858C175.788 175.858 175.186 176.012 174.629 176.32C174.086 176.628 173.654 177.09 173.331 177.706C173.008 178.307 172.847 179.048 172.847 179.928C172.847 181.233 173.177 182.245 173.837 182.964C174.512 183.668 175.355 184.02 176.367 184.02ZM187.866 175.638C188.233 175.022 188.717 174.545 189.318 174.208C189.934 173.856 190.66 173.68 191.496 173.68V176.276H190.858C189.876 176.276 189.128 176.525 188.614 177.024C188.116 177.523 187.866 178.388 187.866 179.62V186H185.358V173.878H187.866V175.638ZM205.132 179.642C205.132 180.097 205.102 180.507 205.044 180.874H195.782C195.855 181.842 196.214 182.619 196.86 183.206C197.505 183.793 198.297 184.086 199.236 184.086C200.585 184.086 201.538 183.521 202.096 182.392H204.802C204.435 183.507 203.768 184.423 202.8 185.142C201.846 185.846 200.658 186.198 199.236 186.198C198.077 186.198 197.036 185.941 196.112 185.428C195.202 184.9 194.484 184.167 193.956 183.228C193.442 182.275 193.186 181.175 193.186 179.928C193.186 178.681 193.435 177.589 193.934 176.65C194.447 175.697 195.158 174.963 196.068 174.45C196.992 173.937 198.048 173.68 199.236 173.68C200.38 173.68 201.399 173.929 202.294 174.428C203.188 174.927 203.885 175.631 204.384 176.54C204.882 177.435 205.132 178.469 205.132 179.642ZM202.514 178.85C202.499 177.926 202.169 177.185 201.524 176.628C200.878 176.071 200.079 175.792 199.126 175.792C198.26 175.792 197.52 176.071 196.904 176.628C196.288 177.171 195.921 177.911 195.804 178.85H202.514ZM212.22 186.198C211.267 186.198 210.409 186.029 209.646 185.692C208.898 185.34 208.304 184.871 207.864 184.284C207.424 183.683 207.189 183.015 207.16 182.282H209.756C209.8 182.795 210.042 183.228 210.482 183.58C210.937 183.917 211.501 184.086 212.176 184.086C212.88 184.086 213.423 183.954 213.804 183.69C214.2 183.411 214.398 183.059 214.398 182.634C214.398 182.179 214.178 181.842 213.738 181.622C213.313 181.402 212.631 181.16 211.692 180.896C210.783 180.647 210.042 180.405 209.47 180.17C208.898 179.935 208.399 179.576 207.974 179.092C207.563 178.608 207.358 177.97 207.358 177.178C207.358 176.533 207.549 175.946 207.93 175.418C208.311 174.875 208.854 174.45 209.558 174.142C210.277 173.834 211.098 173.68 212.022 173.68C213.401 173.68 214.508 174.032 215.344 174.736C216.195 175.425 216.649 176.371 216.708 177.574H214.2C214.156 177.031 213.936 176.599 213.54 176.276C213.144 175.953 212.609 175.792 211.934 175.792C211.274 175.792 210.768 175.917 210.416 176.166C210.064 176.415 209.888 176.745 209.888 177.156C209.888 177.479 210.005 177.75 210.24 177.97C210.475 178.19 210.761 178.366 211.098 178.498C211.435 178.615 211.934 178.769 212.594 178.96C213.474 179.195 214.193 179.437 214.75 179.686C215.322 179.921 215.813 180.273 216.224 180.742C216.635 181.211 216.847 181.835 216.862 182.612C216.862 183.301 216.671 183.917 216.29 184.46C215.909 185.003 215.366 185.428 214.662 185.736C213.973 186.044 213.159 186.198 212.22 186.198Z" fill="#252525"/>
<g clip-path="url(#clip0_149_8517)">
<path d="M112.138 86.915C112.138 86.3326 111.666 85.8604 111.084 85.8604H104.332C103.75 85.8604 103.277 86.3326 103.277 86.915C103.277 87.4975 103.75 87.9697 104.332 87.9697H111.084C111.666 87.9697 112.138 87.4975 112.138 86.915Z" fill="#252525"/>
<path d="M144.736 86.915C144.736 86.3326 144.264 85.8604 143.681 85.8604H136.93C136.347 85.8604 135.875 86.3326 135.875 86.915C135.875 87.4975 136.347 87.9697 136.93 87.9697H143.681C144.264 87.9697 144.736 87.4975 144.736 86.915Z" fill="#252525"/>
<path d="M148.757 123.759L144.439 123.093C144.292 123.07 144.183 122.941 144.186 122.792C144.187 122.772 144.187 122.753 144.186 122.734L144.061 119.157V107.003C144.061 106.421 143.589 105.949 143.006 105.949C142.424 105.949 141.951 106.421 141.951 107.003V118.121H138.658V97.8224H141.951V102.072C141.951 102.654 142.424 103.126 143.006 103.126C143.589 103.126 144.061 102.654 144.061 102.072V97.1861L148.624 91.8278C149.413 90.901 149.848 89.7202 149.848 88.5029V84.4463C149.848 82.546 148.302 81 146.401 81H134.208C132.308 81 130.762 82.546 130.762 84.4463V88.503C130.762 89.7204 131.197 90.9013 131.986 91.828L136.549 97.1862V119.157L136.424 122.734C136.423 122.753 136.423 122.773 136.423 122.792C136.426 122.941 136.318 123.07 136.17 123.093L131.853 123.759C129.114 124.181 127.127 126.498 127.127 129.269V142.883C127.127 147.733 128.437 151.15 128.524 151.506C128.823 152.411 129.631 152.997 130.584 152.999H130.59C131.54 152.999 132.349 152.418 132.653 151.517C133.598 148.706 134.077 145.777 134.077 142.811V131.282C134.077 130.799 134.424 130.395 134.901 130.321L136.571 130.064L136.83 142.828C136.831 145.785 137.305 148.706 138.24 151.511V151.511C138.542 152.415 139.352 152.999 140.305 152.999C141.258 152.999 142.068 152.415 142.369 151.511C143.304 148.706 143.779 145.787 143.78 142.834L144.039 130.064L145.709 130.321C146.186 130.395 146.532 130.799 146.532 131.282V142.847C146.532 147.71 147.835 151.073 147.943 151.511C148.244 152.415 149.055 152.999 150.007 152.999C151.65 152.999 152.071 151.497 152.081 151.483C153.011 148.693 153.483 145.787 153.483 142.846V129.268C153.483 126.498 151.495 124.181 148.757 123.759V123.759ZM132.871 88.5029V84.4463C132.871 83.7091 133.471 83.1094 134.208 83.1094H146.401C147.139 83.1094 147.738 83.7091 147.738 84.4463V88.503C147.738 89.2197 147.482 89.9148 147.018 90.4604L142.545 95.7133H138.065L133.592 90.4604C133.127 89.9148 132.871 89.2195 132.871 88.5029V88.5029ZM151.374 142.846C151.374 145.56 150.938 148.242 150.08 150.817L150.071 150.844C150.061 150.873 150.056 150.89 150.008 150.89C149.96 150.89 149.954 150.873 149.945 150.845L149.935 150.816C149.077 148.242 148.642 145.56 148.642 142.847V131.281C148.642 129.75 147.544 128.47 146.03 128.236C144.232 127.967 144.213 127.939 143.945 127.939C142.852 127.939 141.954 128.814 141.932 129.912L141.671 142.801C141.671 142.808 141.671 142.816 141.671 142.823C141.671 145.552 141.232 148.251 140.368 150.844C140.347 150.907 140.263 150.907 140.241 150.844C139.377 148.251 138.939 145.55 138.939 142.817C138.939 142.81 138.939 142.803 138.939 142.796L138.677 129.912C138.653 128.697 137.562 127.776 136.357 127.962L134.58 128.236C133.066 128.47 131.968 129.75 131.968 131.281V142.811C131.968 145.547 131.526 148.25 130.653 150.844C130.633 150.906 130.547 150.905 130.527 150.844C130.397 150.314 129.236 147.314 129.236 142.882V129.268C129.236 127.546 130.472 126.105 132.174 125.843L136.492 125.177C137.668 124.996 138.54 123.97 138.533 122.782L138.622 120.231H141.988L142.077 122.782C142.069 123.97 142.941 124.996 144.118 125.177L148.436 125.843C150.138 126.105 151.373 127.546 151.373 129.268V142.846H151.374Z" fill="#252525"/>
<path d="M118.404 122.656L111.33 121.566C111.366 120.879 111.486 118.576 111.488 118.482C111.488 118.473 111.49 118.464 111.49 118.455V97.1558L116.027 91.8278C116.816 90.9011 117.251 89.7203 117.251 88.5029V84.4463C117.251 82.546 115.705 81 113.805 81H101.611C99.7111 81 98.1651 82.546 98.1651 84.4463V88.503C98.1651 89.7204 98.5998 90.9013 99.3891 91.828L103.927 97.1561C103.927 101.293 103.926 118.4 103.928 118.482C103.928 118.491 103.928 118.5 103.928 118.509L104.086 121.566L97.0123 122.656C95.5662 122.879 94.5166 124.103 94.5166 125.566V128.958C94.5166 129.54 94.9888 130.012 95.5713 130.012C96.1538 130.012 96.626 129.54 96.626 128.958V125.566C96.626 125.151 96.9235 124.804 97.3336 124.741L104.195 123.684L104.493 129.456C104.494 129.467 104.495 129.479 104.496 129.491C104.725 132.184 105.234 134.862 106.009 137.452C106.513 139.136 108.903 139.135 109.407 137.452C110.182 134.862 110.691 132.184 110.921 129.491C110.921 129.479 110.922 129.467 110.923 129.456L111.221 123.684L118.083 124.741C118.493 124.804 118.79 125.151 118.79 125.566V135.158C118.79 140.189 116.353 144.949 112.271 147.889L108.427 150.658C107.997 150.968 107.42 150.968 106.989 150.658L103.145 147.889C99.0631 144.949 96.626 140.189 96.626 135.158V133.89C96.626 133.307 96.1538 132.835 95.5713 132.835C94.9888 132.835 94.5166 133.307 94.5166 133.89V135.158C94.5166 140.866 97.2814 146.265 101.913 149.601L105.756 152.369C106.924 153.21 108.492 153.211 109.66 152.369L113.504 149.601C118.135 146.265 120.9 140.866 120.9 135.158V125.566C120.9 124.103 119.85 122.879 118.404 122.656V122.656ZM106.036 97.8224H109.38V117.4H106.036V97.8224ZM100.274 88.5029V84.4463C100.274 83.7091 100.874 83.1094 101.611 83.1094H113.805C114.542 83.1094 115.142 83.7091 115.142 84.4463V88.503C115.142 89.2197 114.886 89.9148 114.421 90.4604L109.948 95.7133H105.468L100.995 90.4604C100.53 89.9146 100.274 89.2195 100.274 88.5029ZM108.817 129.329C108.633 131.478 108.261 133.618 107.708 135.706C107.155 133.618 106.783 131.478 106.599 129.329L106.242 122.413C106.241 122.411 106.241 122.409 106.241 122.407L106.092 119.51H109.324L109.175 122.407C109.175 122.409 109.175 122.411 109.175 122.413L108.817 129.329Z" fill="#252525"/>
</g>
<defs>
<clipPath id="clip0_149_8517">
<rect width="72" height="72" fill="white" transform="translate(88 81)"/>
</clipPath>
</defs>
</svg>
